<svg width="494" height="194" viewBox="0 0 494 194" fill="none" xmlns="http://www.w3.org/2000/svg">
<g clip-path="url(#clip0_1_15)">
<path d="M489.646 193.354C489.842 193.549 490.158 193.549 490.354 193.354L493.536 190.172C493.731 189.976 493.731 189.66 493.536 189.464C493.34 189.269 493.024 189.269 492.828 189.464L490 192.293L487.172 189.464C486.976 189.269 486.66 189.269 486.464 189.464C486.269 189.66 486.269 189.976 486.464 190.172L489.646 193.354ZM0.5 0V2.13362H1.5V0H0.5ZM0.5 6.40085V10.6681H1.5V6.40085H0.5ZM0.5 14.9353V19.2025H1.5V14.9353H0.5ZM0.5 23.4698V27.737H1.5V23.4698H0.5ZM0.5 32.0042V36.2715H1.5V32.0042H0.5ZM0.5 40.5387V44.8059H1.5V40.5387H0.5ZM0.5 49.0732V53.3404H1.5V49.0732H0.5ZM0.5 57.6076V59.7412H1.5V57.6076H0.5ZM0.5 59.7412C0.5 60.4076 0.516099 61.0703 0.547933 61.7289L1.54677 61.6806C1.51571 61.0381 1.5 60.3915 1.5 59.7412H0.5ZM0.933197 65.6854C1.12761 67.0071 1.38587 68.3081 1.70476 69.5851L2.67497 69.3428C2.36401 68.0976 2.11216 66.8289 1.92255 65.5399L0.933197 65.6854ZM2.8574 73.3895C3.30605 74.6432 3.81476 75.8683 4.38003 77.0614L5.28373 76.6333C4.73248 75.4698 4.23642 74.2751 3.79892 73.0526L2.8574 73.3895ZM6.25676 80.5654C6.94066 81.704 7.67893 82.8062 8.46796 83.8684L9.27071 83.2721C8.50108 82.236 7.78102 81.161 7.11401 80.0505L6.25676 80.5654ZM10.9912 86.9395C11.8817 87.9215 12.8198 88.8595 13.8017 89.7501L14.4735 89.0093C13.5157 88.1406 12.6006 87.2256 11.7319 86.2677L10.9912 86.9395ZM16.8728 92.2733C17.935 93.0623 19.0372 93.8006 20.1758 94.4845L20.6907 93.6272C19.5802 92.9602 18.5052 92.2402 17.4692 91.4705L16.8728 92.2733ZM23.6798 96.3612C24.8729 96.9265 26.098 97.4352 27.3517 97.8839L27.6887 96.9423C26.4662 96.5048 25.2715 96.0088 24.108 95.4575L23.6798 96.3612ZM31.1562 99.0365C32.4332 99.3554 33.7341 99.6136 35.0558 99.8081L35.2013 98.8187C33.9124 98.6291 32.6437 98.3772 31.3985 98.0663L31.1562 99.0365ZM39.0123 100.193C39.6709 100.225 40.3336 100.241 41 100.241V99.2413C40.3497 99.2413 39.7031 99.2255 39.0606 99.1945L39.0123 100.193ZM41 100.241H43.0049V99.2413H41V100.241ZM47.0147 100.241H51.0245V99.2413H47.0147V100.241ZM55.0343 100.241H59.0441V99.2413H55.0343V100.241ZM63.0539 100.241H67.0637V99.2413H63.0539V100.241ZM71.0735 100.241H75.0833V99.2413H71.0735V100.241ZM79.0931 100.241H83.1029V99.2413H79.0931V100.241ZM87.1127 100.241H91.1225V99.2413H87.1127V100.241ZM95.1324 100.241H99.1422V99.2413H95.1324V100.241ZM103.152 100.241H107.162V99.2413H103.152V100.241ZM111.172 100.241H115.181V99.2413H111.172V100.241ZM119.191 100.241H123.201V99.2413H119.191V100.241ZM127.211 100.241H131.221V99.2413H127.211V100.241ZM135.23 100.241H139.24V99.2413H135.23V100.241ZM143.25 100.241H147.26V99.2413H143.25V100.241ZM151.27 100.241H155.279V99.2413H151.27V100.241ZM159.289 100.241H163.299V99.2413H159.289V100.241ZM167.309 100.241H171.319V99.2413H167.309V100.241ZM175.328 100.241H179.338V99.2413H175.328V100.241ZM183.348 100.241H187.358V99.2413H183.348V100.241ZM191.368 100.241H195.377V99.2413H191.368V100.241ZM199.387 100.241H203.397V99.2413H199.387V100.241ZM207.407 100.241H211.417V99.2413H207.407V100.241ZM215.426 100.241H219.436V99.2413H215.426V100.241ZM223.446 100.241H227.456V99.2413H223.446V100.241ZM231.466 100.241H235.475V99.2413H231.466V100.241ZM239.485 100.241H243.495V99.2413H239.485V100.241ZM247.505 100.241H251.515V99.2413H247.505V100.241ZM255.524 100.241H259.534V99.2413H255.524V100.241ZM263.544 100.241H267.554V99.2413H263.544V100.241ZM271.564 100.241H275.573V99.2413H271.564V100.241ZM279.583 100.241H283.593V99.2413H279.583V100.241ZM287.603 100.241H291.613V99.2413H287.603V100.241ZM295.622 100.241H299.632V99.2413H295.622V100.241ZM303.642 100.241H307.652V99.2413H303.642V100.241ZM311.662 100.241H315.671V99.2413H311.662V100.241ZM319.681 100.241H323.691V99.2413H319.681V100.241ZM327.701 100.241H331.71V99.2413H327.701V100.241ZM335.72 100.241H339.73V99.2413H335.72V100.241ZM343.74 100.241H347.75V99.2413H343.74V100.241ZM351.759 100.241H355.769V99.2413H351.759V100.241ZM359.779 100.241H363.789V99.2413H359.779V100.241ZM367.799 100.241H371.808V99.2413H367.799V100.241ZM375.818 100.241H379.828V99.2413H375.818V100.241ZM383.838 100.241H387.848V99.2413H383.838V100.241ZM391.857 100.241H395.867V99.2413H391.857V100.241ZM399.877 100.241H403.887V99.2413H399.877V100.241ZM407.897 100.241H411.906V99.2413H407.897V100.241ZM415.916 100.241H419.926V99.2413H415.916V100.241ZM423.936 100.241H427.946V99.2413H423.936V100.241ZM431.955 100.241H435.965V99.2413H431.955V100.241ZM439.975 100.241H443.985V99.2413H439.975V100.241ZM447.995 100.241H450V99.2413H447.995V100.241ZM450 100.241C450.65 100.241 451.297 100.257 451.939 100.288L451.988 99.2892C451.329 99.2574 450.666 99.2413 450 99.2413V100.241ZM455.799 100.664C457.088 100.853 458.356 101.105 459.602 101.416L459.844 100.446C458.567 100.127 457.266 99.8689 455.944 99.6745L455.799 100.664ZM463.311 102.54C464.534 102.978 465.729 103.474 466.892 104.025L467.32 103.121C466.127 102.556 464.902 102.047 463.648 101.599L463.311 102.54ZM470.309 105.855C471.42 106.522 472.495 107.242 473.531 108.012L474.127 107.209C473.065 106.42 471.963 105.682 470.824 104.998L470.309 105.855ZM476.526 110.473C477.484 111.342 478.399 112.257 479.268 113.215L480.009 112.543C479.118 111.561 478.18 110.623 477.198 109.732L476.526 110.473ZM481.729 116.21C482.499 117.246 483.219 118.321 483.886 119.432L484.743 118.917C484.059 117.778 483.321 116.676 482.532 115.614L481.729 116.21ZM485.716 122.849C486.268 124.013 486.764 125.207 487.201 126.43L488.143 126.093C487.694 124.839 487.185 123.614 486.62 122.421L485.716 122.849ZM488.325 130.14C488.636 131.385 488.888 132.654 489.077 133.943L490.067 133.797C489.872 132.475 489.614 131.174 489.295 129.897L488.325 130.14ZM489.453 137.802C489.484 138.444 489.5 139.091 489.5 139.741H490.5C490.5 139.075 490.484 138.412 490.452 137.754L489.453 137.802ZM489.5 139.741V141.643H490.5V139.741H489.5ZM489.5 145.448V149.252H490.5V145.448H489.5ZM489.5 153.056V156.86H490.5V153.056H489.5ZM489.5 160.664V164.469H490.5V160.664H489.5ZM489.5 168.273V172.077H490.5V168.273H489.5ZM489.5 175.881V179.685H490.5V175.881H489.5ZM489.5 183.49V187.294H490.5V183.49H489.5ZM489.5 191.098V193H490.5V191.098H489.5Z" fill="#BFBFBF"/>
</g>
<defs>
<clipPath id="clip0_1_15">
<rect width="494" height="194" fill="white"/>
</clipPath>
</defs>
</svg>
