<svg width="494" height="194" viewBox="0 0 494 194" fill="none" xmlns="http://www.w3.org/2000/svg">
<g clip-path="url(#clip0_1_17)">
<path d="M4.35355 193.354C4.15829 193.549 3.84171 193.549 3.64645 193.354L0.46447 190.172C0.269208 189.976 0.269208 189.66 0.46447 189.464C0.659732 189.269 0.976315 189.269 1.17157 189.464L4 192.293L6.82843 189.464C7.02369 189.269 7.34027 189.269 7.53553 189.464C7.7308 189.66 7.7308 189.976 7.53553 190.172L4.35355 193.354ZM493.5 0V2.13362H492.5V0H493.5ZM493.5 6.40085V10.6681H492.5V6.40085H493.5ZM493.5 14.9353V19.2025H492.5V14.9353H493.5ZM493.5 23.4698V27.737H492.5V23.4698H493.5ZM493.5 32.0042V36.2715H492.5V32.0042H493.5ZM493.5 40.5387V44.8059H492.5V40.5387H493.5ZM493.5 49.0732V53.3404H492.5V49.0732H493.5ZM493.5 57.6076V59.7412H492.5V57.6076H493.5ZM493.5 59.7412C493.5 60.4076 493.484 61.0703 493.452 61.7289L492.453 61.6806C492.484 61.0381 492.5 60.3915 492.5 59.7412H493.5ZM493.067 65.6854C492.872 67.0071 492.614 68.3081 492.295 69.5851L491.325 69.3428C491.636 68.0976 491.888 66.8289 492.077 65.5399L493.067 65.6854ZM491.143 73.3895C490.694 74.6432 490.185 75.8683 489.62 77.0614L488.716 76.6333C489.268 75.4698 489.764 74.2751 490.201 73.0526L491.143 73.3895ZM487.743 80.5654C487.059 81.704 486.321 82.8062 485.532 83.8684L484.729 83.2721C485.499 82.236 486.219 81.161 486.886 80.0505L487.743 80.5654ZM483.009 86.9395C482.118 87.9215 481.18 88.8595 480.198 89.7501L479.526 89.0093C480.484 88.1406 481.399 87.2256 482.268 86.2677L483.009 86.9395ZM477.127 92.2733C476.065 93.0623 474.963 93.8006 473.824 94.4845L473.309 93.6272C474.42 92.9602 475.495 92.2402 476.531 91.4705L477.127 92.2733ZM470.32 96.3612C469.127 96.9265 467.902 97.4352 466.648 97.8839L466.311 96.9423C467.534 96.5048 468.729 96.0088 469.892 95.4575L470.32 96.3612ZM462.844 99.0365C461.567 99.3554 460.266 99.6136 458.944 99.8081L458.799 98.8187C460.088 98.6291 461.356 98.3772 462.602 98.0663L462.844 99.0365ZM454.988 100.193C454.329 100.225 453.666 100.241 453 100.241V99.2413C453.65 99.2413 454.297 99.2255 454.939 99.1945L454.988 100.193ZM453 100.241H450.995V99.2413H453V100.241ZM446.985 100.241H442.975V99.2413H446.985V100.241ZM438.966 100.241H434.956V99.2413H438.966V100.241ZM430.946 100.241H426.936V99.2413H430.946V100.241ZM422.926 100.241H418.917V99.2413H422.926V100.241ZM414.907 100.241H410.897V99.2413H414.907V100.241ZM406.887 100.241H402.877V99.2413H406.887V100.241ZM398.868 100.241H394.858V99.2413H398.868V100.241ZM390.848 100.241H386.838V99.2413H390.848V100.241ZM382.828 100.241H378.819V99.2413H382.828V100.241ZM374.809 100.241H370.799V99.2413H374.809V100.241ZM366.789 100.241H362.779V99.2413H366.789V100.241ZM358.77 100.241H354.76V99.2413H358.77V100.241ZM350.75 100.241H346.74V99.2413H350.75V100.241ZM342.73 100.241H338.721V99.2413H342.73V100.241ZM334.711 100.241H330.701V99.2413H334.711V100.241ZM326.691 100.241H322.681V99.2413H326.691V100.241ZM318.672 100.241H314.662V99.2413H318.672V100.241ZM310.652 100.241H306.642V99.2413H310.652V100.241ZM302.632 100.241H298.623V99.2413H302.632V100.241ZM294.613 100.241H290.603V99.2413H294.613V100.241ZM286.593 100.241H282.583V99.2413H286.593V100.241ZM278.574 100.241H274.564V99.2413H278.574V100.241ZM270.554 100.241H266.544V99.2413H270.554V100.241ZM262.534 100.241H258.525V99.2413H262.534V100.241ZM254.515 100.241H250.505V99.2413H254.515V100.241ZM246.495 100.241H242.485V99.2413H246.495V100.241ZM238.476 100.241H234.466V99.2413H238.476V100.241ZM230.456 100.241H226.446V99.2413H230.456V100.241ZM222.436 100.241H218.427V99.2413H222.436V100.241ZM214.417 100.241H210.407V99.2413H214.417V100.241ZM206.397 100.241H202.387V99.2413H206.397V100.241ZM198.378 100.241H194.368V99.2413H198.378V100.241ZM190.358 100.241H186.348V99.2413H190.358V100.241ZM182.338 100.241H178.329V99.2413H182.338V100.241ZM174.319 100.241H170.309V99.2413H174.319V100.241ZM166.299 100.241H162.29V99.2413H166.299V100.241ZM158.28 100.241H154.27V99.2413H158.28V100.241ZM150.26 100.241H146.25V99.2413H150.26V100.241ZM142.241 100.241H138.231V99.2413H142.241V100.241ZM134.221 100.241H130.211V99.2413H134.221V100.241ZM126.201 100.241H122.192V99.2413H126.201V100.241ZM118.182 100.241H114.172V99.2413H118.182V100.241ZM110.162 100.241H106.152V99.2413H110.162V100.241ZM102.143 100.241H98.1328V99.2413H102.143V100.241ZM94.123 100.241H90.1132V99.2413H94.123V100.241ZM86.1034 100.241H82.0936V99.2413H86.1034V100.241ZM78.0838 100.241H74.074V99.2413H78.0838V100.241ZM70.0642 100.241H66.0544V99.2413H70.0642V100.241ZM62.0446 100.241H58.0348V99.2413H62.0446V100.241ZM54.025 100.241H50.0152V99.2413H54.025V100.241ZM46.0054 100.241H44V99.2413H46.0054V100.241ZM44 100.241C43.3497 100.241 42.7031 100.257 42.0606 100.288L42.0123 99.2892C42.6709 99.2574 43.3336 99.2413 44 99.2413V100.241ZM38.2013 100.664C36.9124 100.853 35.6437 101.105 34.3984 101.416L34.1562 100.446C35.4332 100.127 36.7341 99.8689 38.0558 99.6745L38.2013 100.664ZM30.6887 102.54C29.4661 102.978 28.2715 103.474 27.108 104.025L26.6798 103.121C27.8729 102.556 29.098 102.047 30.3517 101.599L30.6887 102.54ZM23.6907 105.855C22.5802 106.522 21.5052 107.242 20.4691 108.012L19.8728 107.209C20.935 106.42 22.0372 105.682 23.1758 104.998L23.6907 105.855ZM17.4735 110.473C16.5156 111.342 15.6006 112.257 14.7319 113.215L13.9912 112.543C14.8817 111.561 15.8198 110.623 16.8017 109.732L17.4735 110.473ZM12.2707 116.21C11.5011 117.246 10.781 118.321 10.114 119.432L9.25676 118.917C9.94066 117.778 10.6789 116.676 11.468 115.614L12.2707 116.21ZM8.28373 122.849C7.73247 124.013 7.23642 125.207 6.79892 126.43L5.85739 126.093C6.30605 124.839 6.81475 123.614 7.38003 122.421L8.28373 122.849ZM5.67496 130.14C5.36401 131.385 5.11215 132.654 4.92255 133.943L3.9332 133.797C4.12761 132.475 4.38587 131.174 4.70476 129.897L5.67496 130.14ZM4.54677 137.802C4.51571 138.444 4.5 139.091 4.5 139.741H3.5C3.5 139.075 3.5161 138.412 3.54793 137.754L4.54677 137.802ZM4.5 139.741V141.643H3.5V139.741H4.5ZM4.5 145.448V149.252H3.5V145.448H4.5ZM4.5 153.056V156.86H3.5V153.056H4.5ZM4.5 160.664V164.469H3.5V160.664H4.5ZM4.5 168.273V172.077H3.5V168.273H4.5ZM4.5 175.881V179.685H3.5V175.881H4.5ZM4.5 183.49V187.294H3.5V183.49H4.5ZM4.5 191.098V193H3.5V191.098H4.5Z" fill="#BFBFBF"/>
</g>
<defs>
<clipPath id="clip0_1_17">
<rect width="494" height="194" fill="white"/>
</clipPath>
</defs>
</svg>
