<svg width="16" height="104" viewBox="0 0 16 104" fill="none" xmlns="http://www.w3.org/2000/svg">
<g clip-path="url(#clip0_1_19)">
<path d="M7.64645 103.354C7.84171 103.549 8.15829 103.549 8.35355 103.354L11.5355 100.172C11.7308 99.9763 11.7308 99.6597 11.5355 99.4645C11.3403 99.2692 11.0237 99.2692 10.8284 99.4645L8 102.293L5.17157 99.4645C4.97631 99.2692 4.65973 99.2692 4.46447 99.4645C4.2692 99.6597 4.2692 99.9763 4.46447 100.172L7.64645 103.354ZM8.5 103V100.425H7.5V103H8.5ZM8.5 95.275V90.125H7.5V95.275H8.5ZM8.5 84.975V79.825H7.5V84.975H8.5ZM8.5 74.675V69.525H7.5V74.675H8.5ZM8.5 64.375V59.225H7.5V64.375H8.5ZM8.5 54.075V48.925H7.5V54.075H8.5ZM8.5 43.775V38.625H7.5V43.775H8.5ZM8.5 33.475V28.325H7.5V33.475H8.5ZM8.5 23.175V18.025H7.5V23.175H8.5ZM8.5 12.875V7.72498H7.5V12.875H8.5ZM8.5 2.57498V0H7.5V2.57498H8.5ZM7.29289 103.707C7.68342 104.098 8.31658 104.098 8.70711 103.707L15.0711 97.3431C15.4616 96.9526 15.4616 96.3195 15.0711 95.9289C14.6805 95.5384 14.0474 95.5384 13.6569 95.9289L8 101.586L2.34315 95.9289C1.95262 95.5384 1.31946 95.5384 0.928932 95.9289C0.538408 96.3195 0.538408 96.9526 0.928932 97.3431L7.29289 103.707ZM9 103V100.425H7V103H9ZM9 95.275V90.125H7V95.275H9ZM9 84.975V79.825H7V84.975H9ZM9 74.675V69.525H7V74.675H9ZM9 64.375V59.225H7V64.375H9ZM9 54.075V48.925H7V54.075H9ZM9 43.775V38.625H7V43.775H9ZM9 33.475V28.325H7V33.475H9ZM9 23.175V18.025H7V23.175H9ZM9 12.875V7.72498H7V12.875H9ZM9 2.57498V0H7V2.57498H9Z" fill="#BFBFBF"/>
</g>
<defs>
<clipPath id="clip0_1_19">
<rect width="16" height="104" fill="white"/>
</clipPath>
</defs>
</svg>
