<svg xmlns="http://www.w3.org/2000/svg" width="146" height="20" fill="none" viewBox="0 0 146 20"><g><g><path fill="#1B1B1B" fill-rule="evenodd" d="M9.828 19C3.76 19 0 15.551 0 9.494 0 3.436 3.775 0 9.828 0c5.23 0 9.182 3.156 9.196 7.712H13.45c-.137-2.087-1.606-3.474-3.623-3.474-2.389 0-3.899 1.96-3.899 5.243 0 3.321 1.497 5.281 3.912 5.281 2.004 0 3.46-1.362 3.638-3.487h5.572C19.024 15.857 15.167 19 9.828 19zm30.031-.318h-5.82V11.58h-6.972v7.1h-5.82V.319h5.82v6.974h6.973V.318h5.82v18.364zm2.43 0V6.326h5.627v12.356H42.29zm18.337 0h-5.82V4.607h-5.215V.318h16.251v4.289h-5.216v14.075zm13.026-14.38v4.657h2.402c1.633 0 2.635-.929 2.635-2.316 0-1.362-1.057-2.342-2.621-2.342h-2.416zm0 8.22v6.16h-5.82V.318h8.798c5.285 0 8.002 2.304 8.002 6.236 0 2.163-1.125 4.25-3.198 5.167l3.761 6.96H78.69l-3.13-6.159h-1.907zm26.394 6.16l-1.029-3.652h-6.04l-1.029 3.652h-5.93L92.485.318h7.302l6.464 18.364h-6.204zM95.942 4.556l-1.907 6.668h3.925l-1.908-6.668h-.11zm17.583 14.126h-5.49V.318h4.516l7.645 9.52h.11V.317h5.49v18.364h-4.461l-7.7-9.672h-.11v9.672zM134.361.318v11.225c0 1.934 1.029 2.99 2.909 2.99 1.881 0 2.91-1.056 2.91-2.99V.318H146v11.823c0 4.187-3.5 6.859-8.73 6.859-5.229 0-8.729-2.672-8.729-6.86V.319h5.82z" clip-rule="evenodd"></path><path fill="#6C63FF" d="M42.307 0.259H47.929V4.559H42.307z"></path></g></g></svg>