<svg width="490" height="452" viewBox="0 0 490 452" fill="none" xmlns="http://www.w3.org/2000/svg">
<path d="M464.635 451.573H25.3682C22.5189 451.573 20.1914 449.241 20.1914 446.396V420.635C20.1914 417.786 22.5234 415.458 25.3682 415.458H464.63C467.48 415.458 469.807 417.79 469.807 420.635V446.396C469.812 449.241 467.48 451.573 464.635 451.573Z" fill="#F2F2F2"/>
<path opacity="0.21" d="M262.47 198.583C313.963 198.583 355.707 156.84 355.707 105.347C355.707 53.8543 313.963 12.1111 262.47 12.1111C210.978 12.1111 169.234 53.8543 169.234 105.347C169.234 156.84 210.978 198.583 262.47 198.583Z" fill="#B0C5F0"/>
<path opacity="0.75" d="M345.721 194.954C363.763 194.954 378.388 180.328 378.388 162.287C378.388 144.246 363.763 129.62 345.721 129.62C327.68 129.62 313.055 144.246 313.055 162.287C313.055 180.328 327.68 194.954 345.721 194.954Z" stroke="#511F61" stroke-width="2.26852" stroke-miterlimit="10"/>
<path opacity="0.85" d="M178.986 113.968C200.034 113.968 217.097 96.9047 217.097 75.8565C217.097 54.8083 200.034 37.7454 178.986 37.7454C157.938 37.7454 140.875 54.8083 140.875 75.8565C140.875 96.9047 157.938 113.968 178.986 113.968Z" stroke="#511F61" stroke-width="1.36111" stroke-miterlimit="10" stroke-dasharray="5.44 5.44"/>
<path d="M207.916 426.22C201.669 427.699 192.967 431.991 187.894 434.668C186.179 435.571 186.86 437.413 189.006 437.676C195.807 438.511 207.744 439.427 215.598 436.914C225.475 433.225 216.832 425.689 216.832 425.689L207.916 426.22Z" fill="#0B4870"/>
<path d="M265.308 419.778C261.365 423.507 256.955 430.975 254.469 435.498C253.63 437.032 255.031 438.656 256.76 438.162C262.241 436.587 271.592 433.266 276.233 427.912C281.814 420.644 271.705 416.057 271.705 416.057L265.308 419.778Z" fill="#0B4870"/>
<path d="M223.223 300.667C233.204 326.074 258.158 400.481 266.778 419.537C267.686 421.352 269.95 421.143 270.862 420.898C273.965 420.059 273.13 417.722 273.13 417.722C273.13 417.722 262.695 357.38 257.704 350.12C254.982 340.593 254.982 310.648 246.362 293.407C237.741 276.167 223.223 300.667 223.223 300.667Z" fill="#FFE3CA"/>
<path d="M201.137 255.514C201.314 277.859 205.905 374.444 207.72 398.767C209.535 423.09 210.143 426.338 210.143 426.338C210.143 426.338 212.103 429.714 217.37 427.019C218.123 409.315 223.858 358.078 220.192 348.619C223.218 334.241 231.784 254.294 231.784 254.294L201.137 255.514Z" fill="#FFE3CA"/>
<path d="M293.095 301.12C279.483 335.148 201.446 350.574 179.215 312.917C179.215 282.582 196.347 228.827 208.257 212.349C210.053 209.862 211.723 207.576 213.179 205.498C214.386 203.783 215.448 202.208 216.319 200.788C217.131 199.468 217.78 198.279 218.233 197.222C218.651 196.247 218.991 195.258 219.263 194.26C222.539 182.304 215.965 169.546 215.965 169.546V170.907C160.159 219.907 183.298 134.157 183.298 134.157H188.743C188.743 134.157 184.206 156.389 189.196 168.639C194.187 180.889 215.058 134.157 218.233 130.981C221.409 127.806 233.206 128.259 240.919 127.352L250.9 125.991C250.9 125.991 267.687 129.62 271.77 132.343C275.223 134.647 273.485 134.675 281.657 150.836C293.589 174.442 289.805 203.057 271.947 222.566C269.189 225.579 267.233 227.167 267.233 227.167L264.511 221.722C272.678 211.741 274.946 201.759 276.761 188.602C278.576 175.444 265.419 165.463 265.419 165.463C265.419 165.463 262.696 170 254.983 185.88C254.416 187.05 254.067 188.407 253.904 189.931C253.668 192.127 253.831 194.663 254.307 197.485C254.562 199.01 254.906 200.611 255.333 202.29C255.859 204.359 256.508 206.532 257.247 208.801C264.52 231.037 289.642 278.821 293.095 301.12Z" fill="#0B4870"/>
<path d="M251.715 71.2105C252.963 66.1472 256.619 61.8642 261.138 59.2554C265.653 56.6512 270.961 55.6213 276.174 55.6712C280.988 55.7165 285.992 56.7464 289.744 59.759C293.496 62.7716 295.638 68.1208 293.882 72.5988C292.898 75.1033 290.779 77.4081 291.192 80.0668C291.459 81.7954 292.784 83.1883 294.286 84.0866C295.788 84.9804 297.48 85.484 299.086 86.1782C301.364 87.1627 303.501 88.5828 304.998 90.561C306.495 92.5391 307.294 95.1207 306.813 97.5526C306.236 100.452 304.022 102.688 302.049 104.893C300.08 107.094 298.156 109.744 298.383 112.688C298.75 117.488 304.58 120.628 304.608 125.437C304.626 128.413 302.149 131.04 299.258 131.757C296.368 132.474 293.256 131.535 290.82 129.829C288.383 128.119 286.532 125.709 284.89 123.228C283.705 121.44 282.594 119.548 282.163 117.447C281.736 115.347 282.099 112.978 283.574 111.422C284.431 110.515 285.616 109.921 286.301 108.877C287.694 106.758 286.387 103.818 284.459 102.167C282.53 100.515 280.067 99.5715 278.207 97.8429C276.346 96.1143 275.267 93.0246 276.895 91.0782C277.73 90.08 279.159 89.522 279.536 88.2788C279.994 86.7589 278.443 85.2617 276.873 85.0485C275.298 84.8352 273.751 85.4568 272.213 85.847C268.094 86.8951 263.575 86.2644 259.895 84.132C256.22 81.9996 253.43 78.3881 252.296 74.2912L251.715 71.2105Z" fill="#0B4870"/>
<path d="M235.04 92.3033C233.846 103.088 240.344 112.656 249.554 113.677C258.764 114.698 267.198 106.781 268.391 95.9964C269.585 85.2119 263.015 76.1741 253.878 74.6224C235.983 71.5872 236.233 81.5187 235.04 92.3033Z" fill="#0B4870"/>
<path d="M242.64 115.547L242.418 129.189L242.609 149.57L252.032 128.182L254.573 108.845L245.145 106.164L242.64 115.547Z" fill="#FCD2B1"/>
<path d="M234.256 99.3811C233.33 107.729 236.601 118.096 243.352 118.845C250.103 119.594 257.785 110.438 258.71 102.09C259.636 93.7415 254.908 86.3643 248.157 85.6157C241.406 84.8671 235.181 91.0284 234.256 99.3811Z" fill="#FFE3CA"/>
<path d="M226.84 85.053C226.337 89.5946 235.501 98.1651 242.865 98.9818C250.229 99.7984 256.603 96.7722 257.107 92.2306C257.61 87.6891 252.048 83.3426 244.689 82.5305C237.33 81.7183 227.344 80.5115 226.84 85.053Z" fill="#0B4870"/>
<path d="M261.076 100.946C261.331 98.6395 260.092 96.61 258.309 96.4126C256.526 96.2153 254.874 97.9248 254.618 100.231C254.363 102.537 255.602 104.567 257.385 104.764C259.168 104.961 260.821 103.252 261.076 100.946Z" fill="#FFE3CA"/>
<path d="M258.685 112.883C258.536 112.883 258.381 112.874 258.232 112.856C257.143 112.733 256.167 112.198 255.482 111.345C254.797 110.492 254.489 109.421 254.607 108.333L254.833 108.36L254.607 108.333C254.729 107.244 255.265 106.268 256.117 105.583C256.97 104.898 258.041 104.59 259.13 104.707C260.219 104.83 261.194 105.365 261.88 106.218C262.565 107.071 262.873 108.142 262.755 109.231C262.524 111.327 260.745 112.883 258.685 112.883ZM258.676 105.138C257.851 105.138 257.057 105.415 256.403 105.937C255.646 106.545 255.165 107.412 255.06 108.382C254.951 109.349 255.228 110.302 255.836 111.064C256.444 111.826 257.311 112.302 258.282 112.407C260.282 112.629 262.084 111.182 262.306 109.186C262.415 108.219 262.138 107.266 261.53 106.504C260.922 105.742 260.051 105.266 259.085 105.161C258.949 105.143 258.812 105.138 258.676 105.138Z" fill="#6C63FF"/>
<path d="M258.512 104.934C259.151 104.934 259.669 104.416 259.669 103.777C259.669 103.138 259.151 102.62 258.512 102.62C257.873 102.62 257.355 103.138 257.355 103.777C257.355 104.416 257.873 104.934 258.512 104.934Z" fill="#6C63FF"/>
<path d="M254.305 197.485C243.089 203.574 227.187 202.558 216.316 200.788C217.129 199.468 217.777 198.279 218.231 197.222C218.648 196.247 218.989 195.258 219.261 194.259C229.601 196.197 245.326 194.359 253.901 189.931C253.665 192.127 253.829 194.663 254.305 197.485Z" fill="#6C63FF"/>
<path d="M264.902 222.503L261.789 224.898L254.984 225.806C254.984 225.806 254.53 233.065 258.613 233.972C261.789 231.704 263.15 229.435 263.15 229.435L266.639 225.982L264.902 222.503Z" fill="#FFE3CA"/>
<path d="M195.314 113.233L192.369 124.176C192.369 124.176 192.369 124.176 193.277 125.991C193.694 126.826 192.959 127.946 192.047 128.913C192.043 128.913 192.043 128.913 192.043 128.913C190.972 130.051 189.647 130.981 189.647 130.981L188.74 134.157H184.216L184.656 130.981C184.656 130.981 181.934 127.352 183.295 124.63C183.404 124.412 183.626 124.035 184.203 123.65L191.008 122.361C191.779 120.818 193.535 115.016 194.878 113.028C195.032 112.802 195.386 112.965 195.314 113.233Z" fill="#FFE3CA"/>
<path d="M191.009 122.361C191.009 122.361 190.556 126.898 189.194 127.352C187.833 127.806 183.75 125.537 183.75 125.537L184.204 123.65L191.009 122.361Z" fill="#FFDEC2"/>
<path d="M192.047 128.913C192.043 128.913 192.043 128.913 192.047 128.913C192.043 128.913 191.008 125.537 190.84 123.541C190.818 123.296 191.462 123.269 192.369 124.176C192.369 124.176 192.369 124.176 193.277 125.991C193.694 126.826 192.959 127.946 192.047 128.913Z" fill="#FFDEC2"/>
<path d="M203.884 86.0512C203.884 86.6456 203.658 87.19 203.29 87.6074C203.662 88.0203 203.884 88.5693 203.884 89.1636V91.1055C203.884 91.5274 203.771 91.9267 203.571 92.2715C203.771 92.6163 203.884 93.0156 203.884 93.4375V95.3794C203.884 96.6634 202.836 97.7114 201.552 97.7114H181.34C180.056 97.7114 179.008 96.6634 179.008 95.3794V93.4375C179.008 93.0156 179.121 92.6163 179.321 92.2715C179.121 91.9267 179.008 91.5274 179.008 91.1055V89.1636C179.008 88.5693 179.235 88.0248 179.602 87.6074C179.23 87.1946 179.008 86.6456 179.008 86.0512V84.1094C179.008 82.8254 180.056 81.7773 181.34 81.7773H201.552C202.836 81.7773 203.884 82.8254 203.884 84.1094V86.0512Z" fill="#12B0CE"/>
<path d="M220.014 42.0375C220.014 53.3574 213.431 63.1392 203.885 67.7625V78.302C203.885 79.0915 203.236 79.7402 202.446 79.7402H180.446C179.657 79.7402 179.008 79.0915 179.008 78.302V67.7625C169.462 63.1392 162.879 53.3574 162.879 42.0375C162.879 26.2622 175.669 13.4723 191.444 13.4723C207.219 13.4723 220.014 26.2622 220.014 42.0375Z" fill="#FFDB5B"/>
<path d="M201.179 88.0839H182.028C181.855 88.0839 181.715 87.9432 181.715 87.7708C181.715 87.5984 181.855 87.4578 182.028 87.4578H201.179C201.351 87.4578 201.492 87.5984 201.492 87.7708C201.492 87.9432 201.356 88.0839 201.179 88.0839Z" fill="#E9F7FF"/>
<path d="M201.179 92.4757H182.028C181.855 92.4757 181.715 92.3351 181.715 92.1627C181.715 91.9903 181.855 91.8496 182.028 91.8496H201.179C201.351 91.8496 201.492 91.9903 201.492 92.1627C201.492 92.3351 201.356 92.4757 201.179 92.4757Z" fill="#E9F7FF"/>
<path d="M196.342 45.5583C195.979 45.2361 195.493 45.0864 194.972 45.1363C194.318 45.2044 193.674 45.5673 193.284 46.0982C192.934 46.57 192.744 47.1281 192.639 47.668C192.349 47.5183 192.054 47.3504 191.755 47.1734L191.646 47.1054H191.251L191.142 47.1734C190.843 47.3504 190.548 47.5183 190.258 47.668C190.153 47.1281 189.967 46.5746 189.613 46.0982C189.223 45.5673 188.574 45.1998 187.925 45.1363C187.399 45.0864 186.914 45.2316 186.555 45.5583C186.083 45.9847 185.916 46.6199 186.102 47.2959C186.342 48.1671 187.086 48.8884 187.916 49.0563C188.447 49.1652 188.964 49.1244 189.473 48.9883V49.0019C190.262 59.1875 190.557 69.5229 190.344 79.7403H191.287C191.496 69.5002 191.21 59.1422 190.416 48.9338C190.412 48.8431 190.403 48.7523 190.394 48.6525C190.757 48.4846 191.11 48.2896 191.46 48.0899C191.809 48.2896 192.159 48.4846 192.526 48.6525C192.517 48.7478 192.512 48.8431 192.503 48.9338C191.709 59.1376 191.419 69.5002 191.632 79.7403H192.576C192.363 69.5229 192.653 59.1875 193.447 49.0019V48.9883C193.955 49.1244 194.472 49.1652 195.003 49.0563C195.834 48.8884 196.578 48.1625 196.818 47.2959C196.981 46.6199 196.814 45.9847 196.342 45.5583ZM188.089 48.1353C187.608 48.04 187.141 47.5682 187 47.0509C186.936 46.8196 186.914 46.4974 187.177 46.2615C187.345 46.1118 187.544 46.0709 187.712 46.0709C187.749 46.0709 187.789 46.0755 187.826 46.0755C188.211 46.1118 188.615 46.3432 188.851 46.6608C189.137 47.0419 189.278 47.5137 189.359 48.04C188.933 48.1716 188.511 48.2215 188.089 48.1353ZM195.888 47.0509C195.747 47.5727 195.28 48.04 194.799 48.1353C194.382 48.2215 193.96 48.1716 193.529 48.04C193.61 47.5092 193.751 47.0419 194.037 46.6608C194.268 46.3432 194.672 46.1163 195.062 46.0755C195.248 46.0573 195.507 46.0709 195.711 46.257C195.97 46.4929 195.947 46.8196 195.888 47.0509Z" fill="white"/>
<path d="M165.703 45.7034C165.376 45.7034 165.099 45.4493 165.076 45.1136C164.133 30.3636 175.131 20.8858 182.753 18.1136C183.079 17.9957 183.438 18.1635 183.556 18.4902C183.674 18.8169 183.506 19.1753 183.179 19.2933C179.159 20.7542 174.935 23.8938 171.877 27.6913C169.064 31.1848 165.816 37.0331 166.324 45.0319C166.347 45.3767 166.084 45.6761 165.739 45.6988C165.73 45.7034 165.716 45.7034 165.703 45.7034Z" fill="white"/>
<path d="M426.968 380.024C421.796 355.896 405.849 334.286 384.32 322.222C395.84 343.977 409.628 364.53 425.394 383.436L426.968 380.024Z" fill="#9BD37A"/>
<path d="M432.736 389.094C412.22 360.41 401.934 324.563 404.121 289.365C417.415 321.855 427.46 355.674 434.052 390.151L432.736 389.094Z" fill="#9BD37A"/>
<path d="M426.872 390.074C426.246 372.424 425.625 354.648 428.392 337.208C431.16 319.768 437.571 302.482 449.435 289.401C451.241 325.53 442.498 362.125 424.559 393.535L426.872 390.074Z" fill="#9BD37A"/>
<path d="M427.716 391.648C416.165 358.278 418.056 320.466 432.879 288.417C442.148 321.9 433.945 357.443 425.738 391.203L427.716 391.648Z" fill="#659944"/>
<path d="M429.244 379.289C432.433 350.016 451.965 323.071 478.793 310.934C467.908 340.139 449.302 366.431 425.383 386.412L429.244 379.289Z" fill="#9BD37A"/>
<path d="M456.883 374.158L453.562 431.007C453.562 433.747 451.321 435.988 448.581 435.988H409.158C406.418 435.988 404.177 433.747 404.177 431.007L403.423 418.153L400.855 374.153C400.855 371.413 403.097 369.172 405.837 369.172H451.897C453.694 369.172 455.277 370.138 456.153 371.576V371.581C456.616 372.338 456.883 373.223 456.883 374.158Z" fill="#8394A8"/>
<path d="M55.2603 394.375C51.5581 377.116 40.1565 361.663 24.7578 353.033C32.9971 368.595 42.8606 383.295 54.1351 396.815L55.2603 394.375Z" fill="#9BD37A"/>
<path d="M59.3923 400.858C44.7195 380.342 37.3605 354.703 38.9258 329.527C48.4354 352.765 55.6175 376.952 60.3315 401.611L59.3923 400.858Z" fill="#9BD37A"/>
<path d="M55.1912 401.561C54.742 388.939 54.2974 376.222 56.2801 363.749C58.2628 351.277 62.8452 338.914 71.3294 329.554C72.6225 355.392 66.3704 381.566 53.5352 404.034L55.1912 401.561Z" fill="#9BD37A"/>
<path d="M55.7995 402.686C47.5376 378.822 48.8896 351.776 59.4926 328.851C66.1213 352.797 60.2549 378.223 54.3839 402.369L55.7995 402.686Z" fill="#659944"/>
<path d="M56.8881 393.848C59.1702 372.914 73.1397 353.641 92.3269 344.962C84.5413 365.85 71.2342 384.656 54.125 398.948L56.8881 393.848Z" fill="#9BD37A"/>
<path d="M76.6564 390.178L74.2835 430.839C74.2835 432.799 72.682 434.4 70.722 434.4H42.5243C40.5643 434.4 38.9627 432.799 38.9627 430.839L38.4273 421.647L36.5898 390.178C36.5898 388.218 38.1914 386.616 40.1514 386.616H73.0948C74.3788 386.616 75.5131 387.306 76.1392 388.336V388.34C76.4659 388.876 76.6564 389.506 76.6564 390.178Z" fill="#8394A8"/>
<path d="M148.135 51.5832C152.52 51.5832 156.075 48.0285 156.075 43.6434C156.075 39.2584 152.52 35.7036 148.135 35.7036C143.75 35.7036 140.195 39.2584 140.195 43.6434C140.195 48.0285 143.75 51.5832 148.135 51.5832Z" fill="#511F61"/>
<path d="M216.19 9.8426C218.821 9.8426 220.954 7.70973 220.954 5.07871C220.954 2.44769 218.821 0.314819 216.19 0.314819C213.559 0.314819 211.426 2.44769 211.426 5.07871C211.426 7.70973 213.559 9.8426 216.19 9.8426Z" fill="#511F61"/>
<path d="M169.23 10.0695C170.859 10.0695 172.179 8.74919 172.179 7.12046C172.179 5.49173 170.859 4.17139 169.23 4.17139C167.602 4.17139 166.281 5.49173 166.281 7.12046C166.281 8.74919 167.602 10.0695 169.23 10.0695Z" stroke="#FCAD00" stroke-width="0.453704" stroke-miterlimit="10"/>
<path d="M232.295 53.625C236.68 53.625 240.235 50.0702 240.235 45.6852C240.235 41.3001 236.68 37.7454 232.295 37.7454C227.91 37.7454 224.355 41.3001 224.355 45.6852C224.355 50.0702 227.91 53.625 232.295 53.625Z" stroke="#511F61" stroke-width="0.453704" stroke-miterlimit="10"/>
</svg>
