<svg width="356" height="311" viewBox="0 0 356 311" fill="none" xmlns="http://www.w3.org/2000/svg">
<g clip-path="url(#clip0)">
<path opacity="0.5" d="M177.948 306.367C276.089 306.367 355.648 298.223 355.648 288.177C355.648 278.131 276.089 269.987 177.948 269.987C79.8071 269.987 0.248047 278.131 0.248047 288.177C0.248047 298.223 79.8071 306.367 177.948 306.367Z" fill="#F7F7F7"/>
<path opacity="0.3" d="M45.6839 275.249C60.449 275.249 72.4186 273.642 72.4186 271.659C72.4186 269.677 60.449 268.07 45.6839 268.07C30.9187 268.07 18.9492 269.677 18.9492 271.659C18.9492 273.642 30.9187 275.249 45.6839 275.249Z" fill="#F7F7F7"/>
<path opacity="0.3" d="M193.974 202.575L33.9961 215.567V14.5781L193.974 27.5703V202.575Z" fill="#F7F7F7"/>
<path opacity="0.6" d="M83.8619 64.9447C84.5792 71.0738 89.6783 76.1274 89.9573 82.2922C90.2905 89.6521 83.8678 95.3087 78.1977 100.013C72.611 104.648 67.0475 109.704 64.0619 116.32C61.0762 122.937 61.3021 131.515 66.4343 136.648C72.5346 142.751 82.9176 142.015 89.8035 147.215C95.0565 151.182 97.3368 157.839 100.846 163.409C108.384 175.373 122.793 182.647 136.895 181.607C140.787 181.32 145.019 180.2 147.196 176.961C149.824 173.053 148.395 167.701 146.042 163.621C143.69 159.542 140.457 155.815 139.432 151.219C137.255 141.456 145.66 132.69 153.853 126.951C162.046 121.211 171.63 115.208 173.555 105.392C175.606 94.9338 167.794 85.0899 159.277 78.6835C154.212 74.8732 148.462 71.3669 145.704 65.6604C143.441 60.9785 143.558 55.4876 141.765 50.6068C139.283 43.8526 132.935 38.6771 125.814 37.6065C112.731 35.6432 110.381 46.2792 100.975 50.8365C94.0271 54.202 82.3823 52.3085 83.8619 64.9447Z" fill="#DCECFF"/>
<path d="M218.55 266.141C218.435 267.998 218.27 269.99 217.09 271.428C215.698 273.124 213.321 273.555 211.15 273.873C207.987 274.338 204.825 274.802 201.662 275.267C201.5 275.735 202.047 276.127 202.516 276.286C204.854 277.077 207.402 276.732 209.857 276.476C212.702 276.18 215.562 276.017 218.423 275.988C219.696 275.975 221.207 275.862 221.853 274.764C222.335 273.946 222.115 272.919 222.001 271.975C221.657 269.101 222.466 266.173 222.054 263.307C222.007 262.977 221.901 262.595 221.589 262.476C221.43 262.416 221.253 262.441 221.086 262.475C218.666 262.964 218.685 263.967 218.55 266.141Z" fill="#FFE3CA"/>
<path d="M219.411 273.589C217.054 275.029 214.659 275.419 211.919 275.077C211.751 275.056 210.831 274.854 210.664 274.836C210.567 274.31 210.62 273.795 210.188 273.812C208.207 273.888 206.229 274.054 204.262 274.308C203.637 274.389 201.265 274.444 201.015 274.93C200.791 275.364 200.934 275.917 201.249 276.288C201.564 276.66 202.019 276.882 202.475 277.056C204.721 277.912 207.203 277.811 209.604 277.697C212.557 277.558 215.51 277.419 218.463 277.279C219.471 277.232 220.532 277.168 221.378 276.619C222.623 275.812 223.052 274.183 223.081 272.7C223.136 270.001 220.262 273.07 219.411 273.589Z" fill="#0B4870"/>
<path d="M209.912 132.234C209.912 132.234 216.554 131.848 216.541 131.681C216.387 129.747 214.638 126.879 215.546 125.163C216.454 123.448 217.148 122.477 218.066 120.766C218.201 120.513 218.32 120.168 218.113 119.969C217.944 119.806 217.668 119.86 217.442 119.927C216.228 120.288 215.03 120.705 213.854 121.176C211.862 121.973 209.979 121.953 209.912 124.059C209.838 126.373 209.912 132.234 209.912 132.234Z" fill="#FFE3CA"/>
<path d="M172.284 271.1C171.926 272.926 171.5 274.879 170.141 276.149C168.538 277.647 166.125 277.762 163.931 277.792C160.735 277.837 157.539 277.882 154.342 277.927C154.121 278.369 154.611 278.831 155.055 279.049C157.269 280.142 159.839 280.134 162.307 280.203C165.167 280.284 168.023 280.498 170.863 280.845C172.126 281 173.639 281.085 174.424 280.083C175.01 279.335 174.926 278.288 174.937 277.338C174.974 274.443 176.161 271.647 176.129 268.752C176.126 268.418 176.071 268.025 175.777 267.867C175.627 267.787 175.448 267.788 175.279 267.8C172.816 267.966 172.703 268.962 172.284 271.1Z" fill="#FFE3CA"/>
<path d="M224.943 183.193C224.943 183.193 222.801 198.985 221.998 211.03C221.195 223.076 225.21 249.039 224.943 255.999C224.675 262.958 223.069 266.973 223.069 266.973H216.912C216.912 266.973 209.418 234.585 209.15 227.626C208.882 220.666 204.332 185.067 204.332 185.067L224.943 183.193Z" fill="#004970"/>
<path d="M142.924 125.348C142.999 126.062 141.971 126.262 141.779 125.57C139.204 116.273 133.251 92.7144 133.335 89.4746C133.387 87.4305 134.847 85.945 134.847 85.945H136.697C136.697 85.945 138.209 87.4576 138.378 89.4746C138.494 90.8805 141.943 116.023 142.924 125.348Z" fill="#0B4870"/>
<path d="M210.05 111.964C209.322 113.329 208.425 114.902 206.891 115.105C206.646 115.138 206.384 115.135 206.173 115.262C205.78 115.5 205.75 116.05 205.767 116.509C205.831 118.259 205.894 120.009 205.957 121.758C206.015 123.357 206.222 125.224 207.591 126.054C208.572 126.649 209.819 126.48 210.945 126.263C211.847 126.09 212.752 125.896 213.598 125.538C216.229 124.423 217.986 121.815 218.803 119.076C219.445 116.92 219.573 114.514 218.617 112.477C216.758 108.517 212.102 108.116 210.05 111.964Z" fill="#FFE3CA"/>
<path d="M221.996 182.478C220.797 182.651 219.604 182.864 218.416 183.1C218.206 182.944 217.923 182.878 217.659 182.828C209.39 181.267 200.839 181.696 192.969 184.676C188.904 197.063 178.018 241.771 175.745 247.797C173.059 254.921 172.742 263.019 171.039 270.439C173.701 271.024 173.406 270.845 176.129 270.943C185.639 248.446 190.932 249.599 192.334 234.615C192.618 231.575 196.621 226.447 198.385 223.954C206.741 212.139 220.941 195.623 223.145 192.124C225.116 188.998 229.037 181.46 221.996 182.478Z" fill="#004970"/>
<path d="M143.421 104.997C143.28 104.456 143.092 103.884 142.645 103.547C142.073 103.116 141.257 103.213 140.594 103.483C139.931 103.752 139.327 104.172 138.634 104.354C137.39 104.682 135.914 104.238 134.885 105.008C134.285 105.458 133.998 106.287 134.194 107.011C134.295 107.386 134.507 107.719 134.665 108.074C135.203 109.283 135.106 110.757 135.888 111.825C136.482 112.636 137.466 113.045 138.399 113.417C140.662 114.319 142.925 115.22 145.188 116.122C145.333 116.18 145.501 116.237 145.641 116.168C145.759 116.11 145.821 115.979 145.87 115.856C146.818 113.498 146.411 112.358 145.224 110.45C144.194 108.796 143.904 106.854 143.421 104.997Z" fill="#FFE3CA"/>
<path d="M172.16 278.597C169.634 279.715 167.209 279.786 164.537 279.088C164.374 279.045 163.488 278.724 163.325 278.684C163.298 278.149 163.418 277.646 162.988 277.606C161.014 277.421 159.031 277.325 157.048 277.319C156.418 277.317 154.059 277.06 153.747 277.509C153.469 277.909 153.538 278.476 153.801 278.886C154.064 279.296 154.486 279.576 154.915 279.808C157.029 280.952 159.503 281.178 161.898 281.381C164.844 281.631 167.79 281.881 170.736 282.131C171.741 282.216 172.801 282.293 173.712 281.86C175.052 281.223 175.691 279.665 175.916 278.199C176.324 275.529 173.072 278.194 172.16 278.597Z" fill="#0B4870"/>
<path d="M228.331 137.915C225.21 135.13 221.666 132.178 217.483 132.238C216.089 132.258 194.745 127.461 192.267 127.269C175.705 125.98 162.202 112.745 145.731 110.588C144.095 111.11 143.555 113.327 144.223 114.909C144.891 116.492 146.364 117.562 147.783 118.531C162.602 128.654 178.268 131.765 194.381 139.67C190.669 149.269 198.347 160.877 197.714 163.257C197.037 165.804 190.952 182.595 191.619 185.144C197.624 186.992 202.407 187.237 208.668 187.758C214.93 188.279 221.634 187.15 226.945 183.793C226.363 180.685 223.577 177.817 225.707 176.67C231.804 172.793 237.723 169.868 241.747 163.867C242.523 162.709 243.22 161.454 243.429 160.076C244.005 156.278 232.779 141.885 228.331 137.915ZM224.732 169.916C225.514 166.415 227.79 149.233 227.79 149.233C229.592 150.171 237.903 159.986 237.903 159.986C237.903 159.986 226.5 168.736 224.732 169.916Z" fill="#FFCD4A"/>
<path d="M136.939 85.8654C135.756 86.5117 134.242 86.2262 133.319 85.2445C132.784 84.6762 132.4 83.9014 132.764 82.9631C133.576 80.8746 135.085 78.4388 134.389 77.0464C133.692 75.6541 133.692 75.7706 133.692 75.6541C133.692 75.5382 137.53 77.8125 138.101 79.7147C139.261 83.5829 138.163 85.1963 136.939 85.8654Z" fill="#F7F7F7"/>
<path d="M141.907 98.9186C141.741 98.496 141.512 98.036 141.081 97.8919C140.565 97.7191 139.998 98.1162 139.788 98.6179C139.577 99.1196 139.628 99.6874 139.684 100.229C139.836 101.728 139.988 103.228 140.14 104.728C140.227 105.581 140.417 106.585 141.198 106.937C141.781 107.199 142.51 106.949 142.913 106.453C143.689 105.499 143.175 104.384 143.019 103.324C142.797 101.812 142.471 100.346 141.907 98.9186Z" fill="#FFE3CA"/>
<path d="M138.492 81.5009C138.415 80.9607 138.303 80.3821 138.102 79.7141C137.532 77.812 133.694 75.5376 133.694 75.6535C133.694 75.6926 133.696 75.7088 133.723 75.7614C133.732 75.7787 133.741 75.7971 133.751 75.8155C133.823 75.9499 133.99 76.2462 134.389 77.0454C135.052 78.3711 133.723 80.6395 132.893 82.6565C133.135 82.787 133.401 82.8304 133.67 82.7123C134.233 82.4652 134.536 81.6249 135.145 81.7105C136.003 81.8314 135.673 83.4577 136.481 83.7736C136.98 83.9692 137.486 83.4718 137.687 82.9745C137.889 82.4771 137.98 81.8937 138.393 81.5518C138.424 81.528 138.459 81.5187 138.492 81.5009Z" fill="#6C63FF"/>
<path d="M223.416 112.109C222.074 110.76 220.329 109.888 218.567 109.171C217.2 108.614 215.765 108.13 214.289 108.16C212.814 108.189 211.279 108.82 210.498 110.072C209.902 111.027 209.81 112.229 210.015 113.336C210.148 114.057 210.464 115.622 211.02 116.156C211.489 116.605 212.235 116.299 212.631 116.958C212.905 117.413 212.872 117.991 212.733 118.504C212.589 119.035 212.325 119.557 211.877 119.877C211.752 119.966 211.61 120.035 211.461 120.081C210.74 120.305 210.267 120.987 210.371 121.734C210.533 122.9 210.964 124.028 211.634 124.996C211.792 125.225 211.969 125.444 212.166 125.64C212.119 125.974 212.03 126.31 211.984 126.643C211.847 127.634 212.269 128.824 213.234 129.083C212.891 128.701 212.554 128.259 212.536 127.746C212.518 127.232 212.984 126.684 213.481 126.814C213.879 126.917 214.075 127.367 214.138 127.773C214.281 128.704 213.999 129.691 213.386 130.406C214.038 130.039 214.71 129.654 215.153 129.051C215.63 128.402 215.793 127.56 216.284 126.922C216.389 126.785 216.509 126.662 216.635 126.544C216.692 126.621 216.751 126.698 216.804 126.777C217.198 127.351 217.236 127.731 216.929 128.654C216.878 128.809 216.558 129.346 216.558 129.346C216.626 129.284 218.239 128.073 217.118 126.195C217.394 126.145 217.668 126.086 217.936 126.001C219.942 125.368 221.401 123.675 222.748 122.06C223.94 120.631 225.182 119.093 225.416 117.247C225.657 115.358 224.759 113.457 223.416 112.109Z" fill="#0B4870"/>
<path d="M222.335 111.176C220.187 111.246 218.417 112.409 218.557 115.329C218.594 116.093 218.845 116.832 218.924 117.592C219.243 120.661 216.84 123.236 215.401 125.964C214.931 126.855 214.589 128.038 215.254 128.793C215.265 128.805 215.279 128.812 215.291 128.824C215.661 128.213 215.849 127.49 216.286 126.922C216.392 126.785 216.512 126.662 216.638 126.543C216.694 126.621 216.753 126.698 216.807 126.776C217.2 127.351 217.239 127.731 216.932 128.654C216.88 128.809 216.56 129.346 216.56 129.346C216.629 129.284 218.242 128.073 217.12 126.195C217.397 126.145 217.671 126.086 217.938 126.001C219.944 125.368 221.403 123.675 222.75 122.06C223.943 120.631 225.184 119.093 225.418 117.247C225.659 115.359 224.76 113.458 223.418 112.109C223.08 111.769 222.717 111.46 222.335 111.176Z" fill="#0B4870"/>
<path d="M229.532 115.787C230.143 112.942 228.331 110.14 225.486 109.529C222.64 108.918 219.838 110.73 219.227 113.575C218.616 116.421 220.428 119.223 223.273 119.833C226.119 120.444 228.921 118.633 229.532 115.787Z" fill="#0B4870"/>
<path d="M212.036 43.9701L184.828 42.6639V-0.342285L212.036 1.86217V43.9701Z" fill="#DCCDF9"/>
<path d="M43.3423 115.062L24.2168 114.144V83.9132L43.3423 85.4627V115.062Z" fill="#6C63FF"/>
<path d="M48.3473 131.738L32.9941 131.001V106.733L48.3473 107.977V131.738Z" fill="#2A94F4"/>
<path d="M175.743 42.0679L151.773 42.9564V12.8226L175.743 13.7106V42.0679Z" fill="#2A94F4"/>
<path d="M102.907 223.602L78.9375 224.49V194.356L102.907 195.244V223.602Z" fill="#6C63FF"/>
<path opacity="0.5" d="M42.8333 209.478C42.245 206.598 41.6533 203.658 41.999 200.739C42.4454 196.975 44.4137 193.566 46.6095 190.476C47.9411 188.602 50.145 186.586 52.2244 187.566C53.0392 187.95 53.5923 188.728 54.0344 189.514C57.1799 195.104 56.3391 201.965 55.9495 208.368C55.6819 212.767 55.6554 217.267 54.1839 221.422C53.6915 222.812 53.0175 224.179 51.9367 225.182C50.8558 226.186 49.3058 226.772 47.8756 226.412C44.6461 225.599 43.8519 221.194 43.7814 218.4C43.7029 215.279 43.471 212.597 42.8333 209.478Z" fill="#F7F7F7"/>
<path d="M52.3115 241.275C54.043 241.774 55.8926 242.503 56.7188 244.035C55.6363 245.644 54.3783 247.145 52.9714 248.508C50.8861 250.527 48.1502 252.332 45.1921 252.039C42.2048 251.743 39.9548 249.444 37.7103 247.544C35.7615 245.893 32.8658 244.835 31.1029 243.13C28.653 240.763 31.9209 240.342 34.1801 240.025C40.2225 239.175 46.4626 239.591 52.3115 241.275Z" fill="#0B4870"/>
<path opacity="0.6" d="M43.6579 247.309C40.8943 243.854 26.72 238.478 23.5523 235.389C18.0452 230.018 14.8276 222.372 14.8379 214.679C14.8504 205.414 19.2913 196.598 19.4186 187.334C19.4771 183.075 18.6184 178.833 18.8275 174.58C19.0372 170.326 20.592 165.788 24.2159 163.551C29.437 160.328 36.7433 163.542 39.8779 168.816C43.0126 174.091 42.9974 180.619 42.4389 186.729C41.8803 192.839 40.8797 199.081 42.3468 205.039C44.723 214.688 53.1469 221.913 55.7897 231.492C56.8039 235.169 47.1891 242.892 47.0835 246.704C46.9637 251.033 46.7687 256.72 44.8665 260.61C42.1978 266.069 49.1005 268.321 43.8588 262.222C40.32 258.104 47.6279 252.273 43.6579 247.309Z" fill="#9BD37A"/>
<path d="M44.6958 252.303L44.264 252.226C46.0599 242.114 44.0234 231.284 38.6761 222.515C38.0797 221.537 37.429 220.559 36.8 219.613C35.029 216.949 33.1967 214.194 32.3142 211.069C30.9998 206.415 31.9176 201.524 32.805 196.793C33.0374 195.556 33.2774 194.276 33.4714 193.028C34.9661 183.422 33.4199 174.831 29.1172 168.838L29.4737 168.582C33.8436 174.669 35.4174 183.375 33.9048 193.094C33.7092 194.35 33.4692 195.633 33.2357 196.874C32.3575 201.555 31.4495 206.395 32.7362 210.949C33.5998 214.009 35.412 216.733 37.1646 219.37C37.7958 220.319 38.4491 221.301 39.05 222.287C44.453 231.145 46.5112 242.086 44.6958 252.303Z" fill="#659944"/>
<path d="M33.7475 190.802C31.0208 187.553 28.4869 185.07 25.5332 182.75L25.8041 182.405C28.7827 184.745 31.3366 187.247 34.0839 190.519L33.7475 190.802Z" fill="#659944"/>
<path d="M34.6473 215.432L34.2734 215.202C34.9637 214.081 35.7877 212.698 36.6112 211.315C37.4363 209.929 38.2608 208.544 38.9521 207.421L39.326 207.651C38.6358 208.772 37.8117 210.156 36.9882 211.539C36.1637 212.924 35.3391 214.309 34.6473 215.432Z" fill="#659944"/>
<path d="M43.7231 235.108C42.4657 233.132 39.973 232.525 37.5621 231.938L36.9109 231.778C33.3293 230.886 29.9237 229.442 26.7891 227.489L27.0215 227.117C30.1171 229.045 33.4805 230.471 37.0177 231.353L37.6667 231.512C40.0456 232.09 42.7414 232.747 44.0942 234.872L43.7231 235.108Z" fill="#659944"/>
<path d="M31.9323 202.114C29.5161 199.795 27.2325 197.287 25.1445 194.659L25.488 194.386C27.5635 196.998 29.8341 199.492 32.2363 201.797L31.9323 202.114Z" fill="#659944"/>
<path d="M37.1045 174.178L33.666 181.253L34.0612 181.445L37.4996 174.37L37.1045 174.178Z" fill="#659944"/>
<path d="M40.987 225.738L40.5801 225.573C41.5656 223.142 42.7006 220.743 43.9537 218.442L44.3394 218.651C43.0939 220.939 41.9659 223.323 40.987 225.738Z" fill="#659944"/>
<path d="M56.8228 244.104C48.0695 246.616 38.4032 245.794 30.1992 241.841L34.9018 271.244H49.4504L56.8228 244.104Z" fill="#8394A8"/>
<path d="M52.4662 260.151L53.0849 257.874C52.717 257.992 52.347 258.101 51.9716 258.192C49.7438 258.737 47.4277 258.818 45.1355 258.744C41.451 258.624 37.736 258.076 34.2682 256.789C33.6452 256.558 33.0514 256.289 32.4668 256.005L32.8569 258.445C33.0833 258.542 33.3098 258.639 33.5379 258.731C39.5494 261.139 46.4206 262.399 52.4662 260.151Z" fill="#F7F7F7"/>
<path d="M277.656 68.1753L275.904 67.8778C275.721 67.2884 275.487 66.7206 275.2 66.1783L276.233 64.734C276.671 64.1185 276.603 63.2793 276.066 62.7473L274.512 61.1935C274.22 60.9015 273.834 60.74 273.422 60.74C273.099 60.74 272.792 60.8392 272.53 61.0272L271.081 62.0592C270.518 61.7618 269.929 61.5169 269.319 61.3343L269.027 59.6034C268.902 58.8574 268.26 58.3156 267.504 58.3156H265.309C264.553 58.3156 263.912 58.8579 263.786 59.6034L263.484 61.3761C262.9 61.5586 262.332 61.7986 261.789 62.0907L260.355 61.0581C260.095 60.8706 259.782 60.7714 259.458 60.7714C259.046 60.7714 258.655 60.9329 258.369 61.2249L256.809 62.7787C256.277 63.3107 256.204 64.1499 256.642 64.7654L257.685 66.2303C257.398 66.7775 257.169 67.3458 256.992 67.9353L255.261 68.2267C254.515 68.3519 253.973 68.9933 253.973 69.7497V71.9449C253.973 72.7007 254.515 73.3421 255.261 73.4673L257.034 73.7696C257.216 74.3531 257.456 74.9219 257.748 75.4642L256.721 76.8929C256.283 77.5083 256.351 78.3475 256.888 78.8795L258.442 80.4333C258.734 80.7253 259.12 80.8873 259.532 80.8873C259.855 80.8873 260.162 80.7882 260.423 80.6007L261.888 79.5578C262.415 79.8341 262.968 80.0584 263.536 80.2356L263.828 81.9871C263.953 82.7331 264.595 83.2755 265.35 83.2755H267.551C268.307 83.2755 268.949 82.7331 269.073 81.9871L269.37 80.2356C269.96 80.053 270.528 79.8184 271.07 79.5318L272.515 80.5639C272.775 80.7514 273.088 80.851 273.411 80.851C273.823 80.851 274.209 80.6896 274.501 80.3976L276.055 78.8438C276.587 78.3118 276.66 77.4726 276.222 76.8571L275.19 75.4073C275.477 74.8602 275.717 74.2918 275.894 73.7078L277.646 73.4158C278.392 73.2907 278.934 72.6492 278.934 71.8934V69.6982C278.944 68.9419 278.402 68.3004 277.656 68.1753ZM266.454 76.0157C263.571 76.0157 261.234 73.6786 261.234 70.7958C261.234 67.9131 263.571 65.5759 266.454 65.5759C269.337 65.5759 271.674 67.9131 271.674 70.7958C271.674 73.6786 269.337 76.0157 266.454 76.0157Z" fill="#6C63FF"/>
<path opacity="0.4" d="M259.706 37.5187L258.272 37.2754C258.123 36.7933 257.931 36.3284 257.696 35.8847L258.541 34.7026C258.899 34.1993 258.844 33.5123 258.404 33.0767L257.133 31.8052C256.894 31.5663 256.578 31.4341 256.241 31.4341C255.977 31.4341 255.725 31.5154 255.511 31.6687L254.325 32.5133C253.864 32.27 253.383 32.0696 252.883 31.9201L252.644 30.5039C252.542 29.8933 252.017 29.4501 251.399 29.4501H249.602C248.984 29.4501 248.459 29.8938 248.356 30.5039L248.109 31.9547C247.631 32.1043 247.166 32.3004 246.722 32.5393L245.549 31.6941C245.335 31.5408 245.079 31.4596 244.815 31.4596C244.478 31.4596 244.158 31.5918 243.923 31.8307L242.647 33.1022C242.212 33.5372 242.152 34.2242 242.511 34.728L243.364 35.927C243.129 36.375 242.941 36.8399 242.797 37.322L241.38 37.561C240.77 37.6634 240.326 38.1883 240.326 38.807V40.6035C240.326 41.2222 240.77 41.7467 241.38 41.8496L242.831 42.0972C242.981 42.575 243.177 43.0399 243.416 43.4841L242.575 44.6533C242.217 45.1566 242.272 45.8435 242.712 46.2791L243.983 47.5506C244.222 47.7896 244.538 47.9217 244.875 47.9217C245.139 47.9217 245.391 47.8405 245.605 47.6872L246.804 46.8339C247.234 47.0598 247.687 47.2434 248.152 47.3886L248.391 48.8222C248.493 49.4322 249.018 49.8759 249.637 49.8759H251.438C252.057 49.8759 252.582 49.4322 252.684 48.8222L252.927 47.3886C253.409 47.2391 253.874 47.0473 254.318 46.8127L255.5 47.6574C255.713 47.8107 255.97 47.892 256.234 47.892C256.571 47.892 256.887 47.7598 257.126 47.5208L258.397 46.2493C258.832 45.8143 258.892 45.1273 258.534 44.6234L257.689 43.437C257.924 42.9889 258.121 42.5241 258.265 42.0463L259.699 41.8073C260.309 41.7049 260.752 41.18 260.752 40.5613V38.7648C260.76 38.1455 260.316 37.6206 259.706 37.5187ZM250.539 43.9343C248.179 43.9343 246.267 42.0219 246.267 39.6625C246.267 37.3031 248.179 35.3906 250.539 35.3906C252.898 35.3906 254.81 37.3031 254.81 39.6625C254.81 42.0219 252.898 43.9343 250.539 43.9343Z" fill="#2A94F4"/>
<path opacity="0.4" d="M248.887 57.5825H210.43V84.4011H230.927L228.748 91.2659L237.657 84.4011H248.887V57.5825Z" fill="#2A94F4"/>
<path d="M223.37 71.447C223.37 72.2722 222.702 72.9407 221.876 72.9407C221.051 72.9407 220.383 72.2722 220.383 71.447C220.383 70.6219 221.051 69.9534 221.876 69.9534C222.701 69.9534 223.37 70.6219 223.37 71.447Z" fill="#F7F7F7"/>
<path d="M230.835 71.447C230.835 72.2722 230.166 72.9407 229.341 72.9407C228.516 72.9407 227.848 72.2722 227.848 71.447C227.848 70.6219 228.516 69.9534 229.341 69.9534C230.166 69.9534 230.835 70.6219 230.835 71.447Z" fill="#F7F7F7"/>
<path d="M238.304 71.447C238.304 72.2722 237.635 72.9407 236.81 72.9407C235.985 72.9407 235.316 72.2722 235.316 71.447C235.316 70.6219 235.985 69.9534 236.81 69.9534C237.635 69.9534 238.304 70.6219 238.304 71.447Z" fill="#F7F7F7"/>
<path d="M132.162 310.468C131.965 310.468 131.795 310.407 131.654 310.286C131.514 310.165 131.443 309.993 131.443 309.77C131.443 309.568 131.515 309.403 131.66 309.272C131.804 309.142 131.972 309.077 132.162 309.077C132.347 309.077 132.51 309.136 132.652 309.254C132.795 309.372 132.866 309.544 132.866 309.769C132.866 309.988 132.796 310.16 132.657 310.283C132.518 310.406 132.354 310.468 132.162 310.468Z" fill="#F7F7F7"/>
<path d="M214.164 310.465C213.965 310.465 213.797 310.402 213.658 310.281C213.516 310.159 213.445 309.989 213.445 309.767C213.445 309.565 213.517 309.4 213.663 309.268C213.806 309.14 213.974 309.073 214.164 309.073C214.351 309.073 214.513 309.132 214.655 309.248C214.797 309.368 214.869 309.541 214.869 309.767C214.869 309.987 214.799 310.157 214.661 310.28C214.522 310.402 214.357 310.465 214.164 310.465Z" fill="#F7F7F7"/>
<path d="M180.485 308.225C180.759 308.225 180.962 308.248 181.195 308.287L181.26 307.868C181.26 307.868 180.618 307.671 179.774 307.74L179.708 307.512C179.97 307.457 180.167 307.224 180.167 306.945C180.167 306.626 179.907 306.367 179.587 306.367C179.268 306.367 179.008 306.626 179.008 306.945C179.008 307.224 179.205 307.457 179.467 307.512L179.54 307.767C178.643 307.89 177.93 308.24 177.93 308.24L178.056 308.626C178.598 308.446 179.068 308.336 179.495 308.29C179.914 308.244 180.228 308.225 180.485 308.225Z" fill="#F7F7F7"/>
<path d="M286.033 156.493C285.818 156.303 285.592 156.118 285.325 156.017C285.009 155.898 284.662 155.906 284.325 155.919C283.854 155.937 283.383 155.961 282.913 155.99C282.692 156.004 282.428 156.048 282.34 156.252C282.246 156.471 282.429 156.709 282.617 156.856C283.198 157.308 283.945 157.503 284.533 157.948C285.121 158.393 285.517 159.067 286.141 159.46C286.322 159.574 286.528 159.664 286.741 159.656C286.952 159.649 287.147 159.548 287.333 159.448C288.153 159.013 288.102 158.757 287.54 158.064C287.086 157.505 286.587 156.955 286.033 156.493Z" fill="#F7F7F7"/>
<path d="M260.32 180.358L268.023 126.233L288.805 123.381L299.614 179.967L260.32 180.358Z" fill="#FCD2B1"/>
<path d="M276.385 264.227L276.362 270.327C276.358 271.568 276.527 272.804 276.864 273.998L277.394 275.877C277.83 277.42 276.67 278.951 275.067 278.945C270.912 278.93 263.81 278.941 261.98 278.944C261.68 278.945 261.386 278.743 261.361 278.444C261.206 276.663 266.351 275.471 270.226 273.971C273.177 272.828 273.02 267.523 272.656 264.425C272.519 263.255 273.495 262.259 274.669 262.356C275.641 262.437 276.388 263.251 276.385 264.227Z" fill="#FCD2B1"/>
<path d="M304.944 262.515L307.046 269.494C307.138 269.803 307.277 270.095 307.457 270.362L308.947 272.575C309.893 273.98 309.212 275.9 307.592 276.394C307.592 276.394 304.588 277.451 301.49 278.468C298.32 279.51 294.332 278.639 294.332 277.803C294.332 275.944 296.065 277.419 298.968 275.478C299.941 274.828 300.945 274.147 301.84 273.444C304.339 271.483 302.157 266.518 300.628 263.721C300.078 262.716 300.662 261.468 301.783 261.229L302.507 261.074C303.57 260.847 304.63 261.474 304.944 262.515Z" fill="#FCD2B1"/>
<path d="M283.473 180.882L260.444 178.95C260.444 178.95 258.125 195.71 263.946 226.051C266.675 240.278 272.363 267.467 272.363 267.467C273.773 268.084 275.206 268.239 276.666 267.875C276.666 267.875 277.098 255.882 277.363 242.967C277.616 230.58 277.684 217.345 278.473 213.014C280.086 204.168 283.473 180.882 283.473 180.882Z" fill="#004970"/>
<path d="M278.718 181.174C276.341 193.934 271.03 213.014 281.26 230.939C291.491 248.863 302.237 267.498 302.237 267.498C303.621 267.555 304.877 267.053 306.043 266.167C306.043 266.167 304.249 258.041 301.656 248.553C298.69 237.698 294.932 224.931 296.003 218.273C298.009 205.797 300.314 189.181 299.615 181.112C298.917 173.043 279.969 174.464 278.718 181.174Z" fill="#004970"/>
<path d="M259.528 178.98L268.026 126.233L288.808 123.38L299.977 179.078C300.186 180.125 299.509 181.141 298.46 181.34C294.591 182.073 285.258 183.605 274.813 183.605C267.016 183.605 262.634 182.089 260.64 181.129C259.833 180.74 259.386 179.865 259.528 178.98Z" fill="#F7F7F7"/>
<path d="M282.314 126.666C282.314 130.466 283.005 134.229 284.303 137.8C286.841 144.787 290.651 157.998 288.387 169.638C285.128 186.398 280.938 193.174 286.37 197.08C291.801 200.987 302.219 194.469 302.519 192.296C302.82 190.124 300.492 163.433 297.853 151.87C295.215 140.306 287.825 123.683 287.825 123.683L284.694 124.018C283.341 124.162 282.314 125.304 282.314 126.666Z" fill="#55B0FF"/>
<path d="M273.662 125.459C273.662 125.459 270.058 133.248 271.315 144.44C272.572 155.631 275.485 189.71 265.302 194.856C262.077 196.486 254.713 189.269 254.713 186.592C254.713 183.915 257.171 174.953 259.5 166.805C261.829 158.657 267.442 126.313 267.442 126.313L273.662 125.459Z" fill="#55B0FF"/>
<path d="M276.564 101.317C281.202 101.317 282.933 104.619 283.021 110.726C283.054 113.014 282.025 115.28 281.197 116.727C280.582 117.802 280.413 119.075 280.764 120.263L281.783 123.71C282.475 126.907 280.956 128.661 278.715 129.298C277.604 129.613 276.273 129.369 275.304 128.742C274.151 127.997 274.056 126.395 274.27 125.039L274.533 124.056C274.888 122.732 274.12 121.305 272.781 121.012C269.21 120.231 268.698 116.508 267.742 110.726C266.745 104.7 271.926 101.317 276.564 101.317Z" fill="#FCD2B1"/>
<path d="M280.465 110.839C280.465 112.255 280.992 113.403 282.356 113.403C283.719 113.403 284.594 111.456 284.594 110.04C284.594 108.624 283.719 108.275 282.356 108.275C280.992 108.275 280.465 109.423 280.465 110.839Z" fill="#FCD2B1"/>
<path d="M281.032 117.055C281.032 117.055 277.568 121.818 273.258 121.172C273.258 121.172 274.153 121.6 274.371 122.296C274.371 122.295 278.465 121.993 281.032 117.055Z" fill="#FCD2B1"/>
<path d="M268.699 126.143C268.699 126.143 263.816 126.992 251.077 142.915C245.557 154.592 245.174 150.176 245.174 150.176C245.174 150.176 246.421 157.61 250.03 155.912C253.64 154.213 264.877 142.279 264.877 142.279L268.699 126.143Z" fill="#55B0FF"/>
<path d="M248.01 142.714C246.514 145.107 244.678 147.253 244.569 150.074C244.459 152.894 246.408 156.005 249.229 156.086C251.565 156.152 253.699 151.01 253.699 151.01L263.816 128.795L259.471 127.153C259.47 127.152 250.369 138.94 248.01 142.714Z" fill="#55B0FF"/>
<path d="M263.4 128.666C263.467 128.763 263.533 128.86 263.6 128.957C265.107 127.213 266.513 125.382 267.81 123.476C268.144 122.984 268.481 122.461 268.536 121.869C268.606 121.12 268.214 120.414 267.836 119.764C267.402 119.017 266.991 118.037 266.556 117.29C267.259 116.461 267.962 115.632 268.666 114.804C268.952 114.467 269.244 114.12 269.392 113.703C269.54 113.287 269.515 112.779 269.215 112.454C268.915 112.13 268.483 112.035 268.152 112.328C266.616 113.686 259.872 125.078 259.701 126.682C259.597 127.656 259.541 128.774 260.23 129.469C261.066 130.311 262.529 129.472 263.4 128.666Z" fill="#FCD2B1"/>
<path d="M269.71 104.085C269.71 104.085 276.721 104.669 278.889 103.111C278.889 103.111 279.722 107.954 281.032 108.851C282.342 109.748 281.587 107.805 282.883 108.297C282.883 108.297 283.899 102.502 279.294 100.741C274.689 98.9806 271.913 96.8135 271.913 96.8135L273.944 98.9128L270.626 97.9647L272.251 99.5223L265.886 99.1837L267.62 99.9964L264.531 102.231L268.698 102.028L264.191 104.601L268.698 103.721L266.901 104.94L269.71 104.085Z" fill="#0B4870"/>
<path d="M246.524 151.96C246.328 151.827 246.086 151.694 245.867 151.784C245.713 151.846 245.621 152.001 245.519 152.133C244.411 153.562 241.676 152.608 240.634 154.085C240.207 154.691 240.249 155.534 240.562 156.205C240.875 156.876 241.418 157.41 241.968 157.907C243.38 159.184 247.116 159.641 247.116 159.641L251.818 161.039L252.036 159.007L249.773 157.252C249.773 157.252 250.356 156.028 250.201 155.799C249.055 154.11 247.461 152.595 246.524 151.96Z" fill="#FCD2B1"/>
<path d="M246.77 151.9C246.58 151.687 246.378 151.476 246.124 151.343C245.825 151.188 245.479 151.154 245.143 151.127C244.673 151.088 244.203 151.056 243.733 151.03C243.511 151.017 243.244 151.03 243.132 151.222C243.013 151.428 243.166 151.685 243.336 151.854C243.858 152.372 244.577 152.655 245.107 153.167C245.638 153.679 245.951 154.395 246.524 154.86C246.69 154.995 246.884 155.109 247.097 155.127C247.307 155.144 247.512 155.067 247.709 154.991C248.575 154.656 248.555 154.396 248.08 153.641C247.696 153.031 247.266 152.425 246.77 151.9Z" fill="#FCD2B1"/>
<path d="M287.83 123.683C293.231 125.393 300.522 132.005 299.957 137.642C299.029 146.897 297.077 160.311 293.241 166.669C291.513 169.534 286.772 168.485 283.45 168.082C273.703 166.898 254.419 164.349 245.895 159.478C246.227 158.068 246.234 156.851 246.993 155.618C255.782 155.235 276.273 156.144 284.691 158.705L286.888 146.144" fill="#55B0FF"/>
<path d="M308.959 272.576C308.959 272.576 304.378 275.659 301.243 276.212C298.107 276.766 297.001 276.212 297.001 276.212C297.001 276.212 294.05 276.062 293.358 277.722C292.666 279.382 297.616 281.077 301.159 280.351C304.701 279.625 309.681 276.549 309.681 276.549C309.681 276.549 311.003 272.443 308.959 272.576Z" fill="#0B4870"/>
<path d="M276.454 275.206C276.454 275.206 271.348 277.31 268.166 277.224C264.983 277.138 264.01 276.374 264.01 276.374C264.01 276.374 261.149 275.636 260.138 277.123C259.128 278.611 263.638 281.263 267.254 281.261C270.87 281.259 276.365 279.245 276.365 279.245C276.365 279.245 278.484 275.486 276.454 275.206Z" fill="#0B4870"/>
</g>
<defs>
<clipPath id="clip0">
<rect width="356" height="310.332" fill="white"/>
</clipPath>
</defs>
</svg>
