<svg width="372" height="263" viewBox="0 0 372 263" fill="none" xmlns="http://www.w3.org/2000/svg">
<g clip-path="url(#clip0)">
<path d="M90.3751 17.8402C81.7888 21.5765 73.2743 26.175 67.2747 33.3602C61.2751 40.5454 58.2573 50.8562 61.8858 59.5143C66.6999 71.0465 81.9325 77.7647 82.0043 90.2669C82.0403 99.2124 73.7773 106.038 65.4425 109.308C57.1077 112.577 47.8747 113.727 40.2943 118.505C28.834 125.69 23.481 139.593 21.2895 152.922C19.0262 166.753 19.9243 182.525 29.7321 192.584C41.911 205.05 62.0295 203.649 79.274 200.991C102.267 197.434 125.151 193.267 148.072 189.099C198.261 179.938 248.449 170.813 298.602 161.652C303.991 160.682 309.595 159.604 313.942 156.299C322.636 149.76 323.355 136.288 318.325 126.696C313.295 117.068 303.955 110.529 294.686 104.889C285.417 99.2484 275.609 93.8954 268.675 85.5247C261.742 77.1539 258.293 64.7954 263.538 55.311C267.993 47.2636 277.549 42.9524 281.717 34.7613C287.213 23.9476 280.89 10.1521 270.903 3.2543C260.88 -3.71533 135.678 -1.99089 90.3751 17.8402Z" fill="#F7F7F7"/>
<path d="M64.7255 71.5497C89.2693 71.5497 109.166 51.6531 109.166 27.1093C109.166 2.56557 89.2693 -17.3311 64.7255 -17.3311C40.1818 -17.3311 20.2852 2.56557 20.2852 27.1093C20.2852 51.6531 40.1818 71.5497 64.7255 71.5497Z" stroke="#D3D3D3" stroke-width="0.359259" stroke-miterlimit="10" stroke-dasharray="4.36 4.36"/>
<path d="M351.344 263.322H4.65865C2.07199 263.322 -0.0117188 261.203 -0.0117188 258.652V230.809C-0.0117188 228.223 2.10791 226.139 4.65865 226.139H351.344C353.931 226.139 356.014 228.259 356.014 230.809V258.652C356.014 261.203 353.895 263.322 351.344 263.322Z" fill="#F2F2F2"/>
<path d="M307.335 31.2408V157.341C307.335 159.712 305.395 161.652 303.024 161.652H52.9791C50.608 161.652 48.668 159.712 48.668 157.341V31.2408C48.668 28.8697 50.608 26.9297 52.9791 26.9297H303.024C305.395 26.9297 307.335 28.8697 307.335 31.2408Z" fill="#DCF2FF"/>
<path d="M307.335 31.2408V40.2223H48.668V31.2408C48.668 28.8697 50.608 26.9297 52.9791 26.9297H303.024C305.395 26.9297 307.335 28.8697 307.335 31.2408Z" fill="#2A94F4"/>
<path d="M147.104 48.8445H56.5703V55.6704H147.104V48.8445Z" fill="white"/>
<path d="M259.193 73.274H168.66V80.1H259.193V73.274Z" fill="white"/>
<path d="M219.674 85.4889H56.5703V92.3148H219.674V85.4889Z" fill="white"/>
<path d="M204.944 61.0592H56.5703V67.8851H204.944V61.0592Z" fill="white"/>
<path d="M189.855 48.8445H152.133V55.6704H189.855V48.8445Z" fill="#6C63FF"/>
<path d="M147.104 109.918H56.5703V116.744H147.104V109.918Z" fill="white"/>
<path d="M189.855 109.918H152.133V116.744H189.855V109.918Z" fill="#6C63FF"/>
<path d="M263.143 61.0592H208.535V67.8851H263.143V61.0592Z" fill="#6C63FF"/>
<path d="M122.315 97.7037H56.9297V104.53H122.315V97.7037Z" fill="#6C63FF"/>
<path d="M163.63 73.274H56.5703V80.1H163.63V73.274Z" fill="#6C63FF"/>
<path d="M206.85 225.744H152.027V238.318H206.85V225.744Z" fill="#072C3D"/>
<path d="M138.769 240.653C148.109 242.988 182.562 246.832 199.699 248.628C203.507 249.023 206.453 249.347 208.106 249.49C209.004 249.598 209.507 249.634 209.507 249.634C209.507 249.634 213.997 249.347 219.458 249.059C224.488 248.772 236.092 248.844 240.116 248.7C241.625 248.664 242.127 246.616 240.834 245.862C238.463 244.497 228.512 240.437 223.626 239.826C220.608 239.467 217.303 236.737 214.68 235.228C212.668 234.042 210.369 236.09 208.537 236.773C207.639 237.096 206.992 239.108 205.986 239.18C205.735 239.216 205.483 239.216 205.232 239.252C203.974 239.323 202.645 239.252 201.387 239.108C201.028 239.072 200.705 239 200.346 238.964C196.358 238.353 193.053 237.06 193.053 237.06C180.838 230.737 153.965 213.816 133.056 218.271C132.877 218.307 132.697 218.343 132.553 218.379C132.374 218.415 132.194 218.45 132.05 218.486C110.998 223.839 126.195 237.491 138.769 240.653Z" fill="#FCD2B1"/>
<path d="M138.77 240.653C148.111 242.988 182.564 246.832 199.701 248.628L202.826 230.558C202.215 230.45 201.569 230.414 200.922 230.414C194.312 230.342 187.773 228.977 181.666 226.39C167.798 220.462 148.183 214.499 132.016 218.522C110.999 223.839 126.196 237.491 138.77 240.653Z" fill="#004970"/>
<path d="M213.602 235.659C213.602 233.863 215.757 232.785 215.757 232.785L232.499 238.964L241.624 243.922L243.42 246.437L241.265 248.053L222.583 245.359L216.476 241.766L213.602 235.659Z" fill="#0E538C"/>
<path d="M205.195 239.252L208.105 249.491C209.003 249.598 209.506 249.634 209.506 249.634C209.506 249.634 213.997 249.347 219.458 249.059C224.488 248.772 236.092 248.844 240.115 248.7C241.624 248.664 242.127 246.617 240.834 245.862C238.463 244.497 228.511 240.437 223.625 239.827C220.608 239.467 217.302 236.737 214.68 235.228C212.668 234.042 210.369 236.09 208.536 236.773C207.638 237.096 206.992 239.108 205.986 239.18C205.698 239.252 205.447 239.252 205.195 239.252Z" fill="#0E538C"/>
<path d="M217.628 178.645L215.365 161.903C214.215 153.497 207.569 147.245 199.701 147.245H184.468C182.277 147.245 178.684 147.245 176.493 147.245H161.26C153.393 147.245 146.746 153.497 145.597 161.903L143.333 178.645C141.573 191.794 148.938 204.368 160.721 208.212L176.457 213.349C178.648 213.349 180.445 211.409 180.445 209.038C180.445 211.409 182.241 213.349 184.433 213.349L200.168 208.212C211.988 204.368 219.388 191.794 217.628 178.645Z" fill="#FFCD4A"/>
<path d="M196.852 132.434C197.489 130.766 196.879 128.984 195.489 128.453C194.099 127.921 192.455 128.843 191.818 130.511C191.181 132.179 191.791 133.962 193.181 134.493C194.571 135.024 196.214 134.102 196.852 132.434Z" fill="#FFE3CA"/>
<path d="M210.837 223.696L150.948 221.684L147.176 169.699H215.399L210.837 223.696Z" fill="#2A94F4"/>
<path d="M173.836 142L175.812 153.999L175.956 154.287C177.752 158.095 183.213 157.915 184.757 153.999L186.374 141.821L173.836 142Z" fill="#FCD2B1"/>
<path d="M194.275 126.624C194.275 141.893 188.167 144.91 180.659 144.91C173.15 144.91 167.043 141.928 167.043 126.624C167.043 118.325 173.15 111.607 180.659 111.607C188.167 111.571 194.275 118.325 194.275 126.624Z" fill="#FFE3CA"/>
<path d="M172.542 122.816C178.649 126.157 185.296 128.528 192.158 129.821C194.852 130.324 201.103 127.127 202.792 125.007C204.624 122.744 197.762 122.852 196.325 120.337C194.277 116.78 192.229 112.11 188.78 109.918C185.332 107.727 180.23 109.847 176.206 110.637C172.614 111.355 171.536 110.134 168.662 112.433C166.291 114.337 164.818 118.074 163.992 120.984C163.165 123.894 164.243 130.073 167.225 130.755C167.943 126.444 169.668 125.331 170.458 123.211L172.542 122.816Z" fill="#0E538C"/>
<path d="M168.544 134.497C169.934 133.965 170.544 132.183 169.906 130.515C169.269 128.847 167.626 127.925 166.236 128.456C164.846 128.987 164.235 130.77 164.873 132.438C165.51 134.106 167.154 135.028 168.544 134.497Z" fill="#FFE3CA"/>
<path d="M177.248 136.144H170.422C169.308 136.144 168.41 135.246 168.41 134.133V132.085C168.41 130.971 169.308 130.073 170.422 130.073H177.248C178.362 130.073 179.26 130.971 179.26 132.085V134.133C179.26 135.246 178.362 136.144 177.248 136.144Z" stroke="#0E538C" stroke-width="0.718518" stroke-miterlimit="10"/>
<path d="M190.9 136.144H184.074C182.961 136.144 182.062 135.246 182.062 134.133V132.085C182.062 130.971 182.961 130.073 184.074 130.073H190.9C192.014 130.073 192.912 130.971 192.912 132.085V134.133C192.912 135.246 192.014 136.144 190.9 136.144Z" stroke="#0E538C" stroke-width="0.718518" stroke-miterlimit="10"/>
<path d="M179.258 133.091C180.264 132.552 180.982 132.192 182.06 133.091" stroke="#0E538C" stroke-width="0.718518" stroke-miterlimit="10"/>
<path d="M209.044 230.198H151.311C149.551 230.198 148.078 228.761 148.078 226.965L146.461 187.914C146.461 186.153 147.898 184.68 149.694 184.68H210.661C212.421 184.68 213.894 186.117 213.894 187.914L212.277 226.965C212.241 228.761 210.804 230.198 209.044 230.198Z" fill="#6C63FF"/>
<path d="M180.049 213.565C183.422 213.565 186.156 210.83 186.156 207.457C186.156 204.084 183.422 201.35 180.049 201.35C176.676 201.35 173.941 204.084 173.941 207.457C173.941 210.83 176.676 213.565 180.049 213.565Z" fill="white"/>
<path d="M226.247 240.653C216.907 242.988 182.454 246.832 165.317 248.628C161.509 249.024 158.563 249.347 156.91 249.491C156.012 249.598 155.509 249.634 155.509 249.634C155.509 249.634 151.019 249.347 145.558 249.059C140.528 248.772 128.924 248.844 124.9 248.7C123.392 248.664 122.889 246.617 124.182 245.862C126.553 244.497 136.505 240.437 141.39 239.827C144.408 239.467 147.713 236.737 150.336 235.228C152.348 234.042 154.647 236.09 156.479 236.773C157.377 237.096 158.024 239.108 159.03 239.18C159.282 239.216 159.533 239.216 159.785 239.252C161.042 239.324 162.371 239.252 163.629 239.108C163.988 239.072 164.311 239 164.67 238.964C168.658 238.354 171.963 237.06 171.963 237.06C184.178 230.737 211.051 213.816 231.96 218.271C232.139 218.307 232.319 218.343 232.463 218.379C232.642 218.415 232.822 218.451 232.966 218.487C254.018 223.839 238.822 237.491 226.247 240.653Z" fill="#FCD2B1"/>
<path d="M226.247 240.653C216.907 242.988 182.454 246.832 165.317 248.628L162.191 230.558C162.802 230.45 163.449 230.414 164.095 230.414C170.706 230.342 177.244 228.977 183.352 226.39C197.219 220.462 216.835 214.499 233.001 218.522C254.018 223.839 238.821 237.491 226.247 240.653Z" fill="#004970"/>
<path d="M151.412 235.659C151.412 233.863 149.257 232.785 149.257 232.785L132.515 238.964L123.39 243.922L121.594 246.437L123.749 248.054L142.431 245.359L148.538 241.767L151.412 235.659Z" fill="#0E538C"/>
<path d="M159.82 239.252L156.91 249.491C156.012 249.598 155.509 249.634 155.509 249.634C155.509 249.634 151.019 249.347 145.558 249.06C140.528 248.772 128.924 248.844 124.9 248.7C123.392 248.664 122.889 246.617 124.182 245.862C126.553 244.497 136.505 240.437 141.39 239.827C144.408 239.467 147.713 236.737 150.336 235.228C152.348 234.043 154.647 236.09 156.479 236.773C157.377 237.096 158.024 239.108 159.03 239.18C159.353 239.252 159.605 239.252 159.82 239.252Z" fill="#0E538C"/>
<path d="M320.624 1.42224H249.491C241.013 1.42224 234.043 9.11039 234.043 18.4871C234.043 27.0734 239.827 34.2226 247.3 35.3722L247.515 42.8808L254.952 35.5519H320.624C329.103 35.5519 336.073 27.8637 336.073 18.4871C336.073 9.11039 329.139 1.42224 320.624 1.42224Z" fill="#F27CC2"/>
<path d="M266.737 24.415C269.713 24.415 272.125 22.0023 272.125 19.0261C272.125 16.0499 269.713 13.6372 266.737 13.6372C263.76 13.6372 261.348 16.0499 261.348 19.0261C261.348 22.0023 263.76 24.415 266.737 24.415Z" fill="white"/>
<path d="M285.061 24.415C288.037 24.415 290.45 22.0023 290.45 19.0261C290.45 16.0499 288.037 13.6372 285.061 13.6372C282.085 13.6372 279.672 16.0499 279.672 19.0261C279.672 22.0023 282.085 24.415 285.061 24.415Z" fill="white"/>
<path d="M303.381 24.415C306.357 24.415 308.77 22.0023 308.77 19.0261C308.77 16.0499 306.357 13.6372 303.381 13.6372C300.405 13.6372 297.992 16.0499 297.992 19.0261C297.992 22.0023 300.405 24.415 303.381 24.415Z" fill="white"/>
<path d="M63.2172 190.393C79.1895 190.393 92.1376 177.445 92.1376 161.472C92.1376 145.5 79.1895 132.552 63.2172 132.552C47.245 132.552 34.2969 145.5 34.2969 161.472C34.2969 177.445 47.245 190.393 63.2172 190.393Z" fill="#6C63FF"/>
<path d="M43.207 163.269V161.688C43.207 160.898 43.6741 160.215 44.3926 159.928L52.3681 156.766C53.6256 156.263 54.9548 157.197 54.9548 158.527C54.9548 159.353 54.4518 160.071 53.6615 160.323L47.2307 162.478L53.6615 164.634C54.4518 164.885 54.9548 165.604 54.9548 166.43V166.466C54.9548 167.795 53.5896 168.729 52.3681 168.227L44.3926 165.065C43.71 164.742 43.207 164.059 43.207 163.269Z" fill="white"/>
<path d="M67.4923 151.916C68.7138 151.916 69.5042 153.174 68.9653 154.287L60.0557 172.933C59.7682 173.508 59.1934 173.867 58.5827 173.867C57.3612 173.867 56.5708 172.609 57.1097 171.496L66.0194 152.85C66.3068 152.275 66.8816 151.916 67.4923 151.916Z" fill="white"/>
<path d="M72.7386 164.67L79.1694 162.514L72.7386 160.359C71.9842 160.107 71.4453 159.389 71.4453 158.562V158.527C71.4453 157.197 72.8105 156.263 74.032 156.766L82.0075 159.928C82.7261 160.215 83.1931 160.898 83.1931 161.688V163.269C83.1931 164.059 82.7261 164.742 82.0075 165.029L74.032 168.191C72.7746 168.694 71.4453 167.759 71.4453 166.43C71.4453 165.64 71.9842 164.921 72.7386 164.67Z" fill="white"/>
<path d="M334.176 210.547C331.23 196.716 322.069 184.357 309.746 177.459C316.356 189.926 324.224 201.673 333.278 212.523L334.176 210.547Z" fill="#659944"/>
<path d="M337.479 215.72C325.731 199.302 319.839 178.753 321.096 158.598C328.713 177.208 334.461 196.572 338.233 216.295L337.479 215.72Z" fill="#659944"/>
<path d="M334.103 216.295C333.743 206.2 333.384 195.997 334.965 186.01C336.546 176.022 340.21 166.143 347 158.634C348.042 179.327 343.012 200.272 332.773 218.271L334.103 216.295Z" fill="#659944"/>
<path d="M334.602 217.193C327.992 198.081 329.07 176.453 337.548 158.095C342.865 177.28 338.159 197.614 333.453 216.942L334.602 217.193Z" fill="#9BD37A"/>
<path d="M335.465 210.116C337.297 193.338 348.47 177.926 363.846 170.993C357.631 187.698 346.961 202.751 333.273 214.211L335.465 210.116Z" fill="#659944"/>
<path d="M351.308 207.17L349.404 239.719C349.404 241.3 348.11 242.557 346.565 242.557H324.004C322.423 242.557 321.166 241.264 321.166 239.719L320.735 232.354L319.262 207.17C319.262 205.589 320.555 204.332 322.1 204.332H348.469C349.511 204.332 350.409 204.871 350.912 205.697C351.128 206.128 351.308 206.631 351.308 207.17Z" fill="#8394A8"/>
<path d="M351.311 207.17L349.407 239.719C349.407 241.3 348.114 242.557 346.569 242.557H324.008C322.427 242.557 321.169 241.264 321.169 239.719L320.738 232.354C331.265 229.336 342.114 216.331 350.916 205.697C351.132 206.128 351.311 206.631 351.311 207.17Z" fill="#8394A8"/>
<path d="M16.7644 221.612C14.8244 212.559 8.86068 204.476 0.777344 199.949C5.08845 208.104 10.2618 215.792 16.1896 222.906L16.7644 221.612Z" fill="#659944"/>
<path d="M18.9177 224.989C11.2296 214.248 7.38549 200.811 8.21178 187.626C13.2055 199.805 16.9777 212.487 19.4207 225.421L18.9177 224.989Z" fill="#659944"/>
<path d="M16.7294 225.385C16.4779 218.774 16.2624 212.092 17.3042 205.553C18.3461 199.015 20.7531 192.548 25.2079 187.626C25.8905 201.17 22.6213 214.894 15.8672 226.678L16.7294 225.385Z" fill="#659944"/>
<path d="M17.0495 225.959C12.7024 213.457 13.4209 199.266 18.9895 187.267C22.4743 199.805 19.3847 213.134 16.295 225.78L17.0495 225.959Z" fill="#9BD37A"/>
<path d="M17.6284 221.325C18.814 210.367 26.1429 200.236 36.2021 195.71C32.1066 206.667 25.137 216.511 16.1914 224.019L17.6284 221.325Z" fill="#659944"/>
<path d="M27.9729 219.385L26.7155 240.689C26.7155 241.731 25.8892 242.557 24.8474 242.557H10.0818C9.03996 242.557 8.21367 241.731 8.21367 240.689L7.92626 235.875L6.99219 219.385C6.99219 218.343 7.81848 217.517 8.86033 217.517H26.1407C26.8233 217.517 27.3981 217.876 27.7214 218.415C27.9011 218.702 27.9729 219.061 27.9729 219.385Z" fill="#8394A8"/>
<path d="M27.9724 219.385L26.715 240.689C26.715 241.731 25.8887 242.557 24.8469 242.557H10.0813C9.03948 242.557 8.21319 241.731 8.21319 240.689L7.92578 235.875C14.8236 233.899 21.9369 225.384 27.685 218.415C27.9006 218.702 27.9724 219.061 27.9724 219.385Z" fill="#8394A8"/>
</g>
<defs>
<clipPath id="clip0">
<rect width="372" height="263" fill="white"/>
</clipPath>
</defs>
</svg>
