<svg width="315" height="315" fill="none" xmlns="http://www.w3.org/2000/svg"><path d="M239.395 179.616c-1.365 0-2.739-.078-4.089-.236a2.293 2.293 0 01-2.024-2.409c.178-3.153-1.651-6.087-4.55-7.3-2.762-1.158-6.364-.347-8.386 1.887a2.294 2.294 0 01-3.138.248 35.346 35.346 0 01-5.617-5.682 2.301 2.301 0 01.25-3.106c2.302-2.109 3.057-5.452 1.882-8.319-1.164-2.832-3.949-4.684-6.916-4.608-1.152 0-2.517-.834-2.651-2.03-.3-2.695-.297-5.413.015-8.073.148-1.234 1.128-2.065 2.377-2.024 3.287 0 6.168-1.785 7.329-4.548 1.217-2.899.461-6.27-1.881-8.391a2.3 2.3 0 01-.245-3.135 35.268 35.268 0 015.743-5.679 2.309 2.309 0 013.112.263c2.004 2.202 5.583 3.018 8.327 1.895 2.864-1.172 4.713-4.057 4.606-7.178a2.305 2.305 0 012.041-2.359 35.487 35.487 0 017.986.02 2.29 2.29 0 012.024 2.409 7.475 7.475 0 004.544 7.304c2.768 1.155 6.376.344 8.389-1.884a2.292 2.292 0 013.135-.254 35.13 35.13 0 015.626 5.682c.741.939.63 2.304-.25 3.109-2.299 2.108-3.054 5.451-1.882 8.318 1.147 2.8 3.882 4.608 6.968 4.608 1.12 0 2.462.835 2.596 2.033a35.56 35.56 0 01-.015 8.074c-.142 1.21-1.227 2.12-2.42 2.021l-.417-.012c-2.964 0-5.732 1.832-6.872 4.559-1.216 2.896-.458 6.268 1.884 8.391a2.297 2.297 0 01.248 3.136 35.495 35.495 0 01-5.743 5.678c-.96.741-2.295.63-3.112-.259-2.007-2.202-5.588-3.019-8.333-1.896-2.864 1.172-4.713 4.057-4.602 7.175a2.31 2.31 0 01-2.042 2.362 36.74 36.74 0 01-3.897.21zm-13.364-11.144a7.67 7.67 0 012.96.574 8.139 8.139 0 014.965 7.963 1.617 1.617 0 001.426 1.7c2.584.301 5.244.31 7.834.021a1.63 1.63 0 001.441-1.666c-.123-3.398 1.896-6.542 5.019-7.822 2.996-1.222 6.901-.336 9.086 2.068a1.616 1.616 0 002.196.181 34.694 34.694 0 005.632-5.568 1.614 1.614 0 00-.175-2.211c-2.555-2.316-3.38-5.994-2.056-9.153 1.248-2.975 4.264-4.973 7.505-4.973l.443.012c.854.067 1.613-.572 1.715-1.426.306-2.611.312-5.276.014-7.919-.09-.805-1.108-1.432-1.925-1.432-3.36 0-6.34-1.975-7.595-5.028-1.277-3.13-.455-6.776 2.051-9.074.621-.569.7-1.531.178-2.193a34.492 34.492 0 00-5.516-5.571 1.616 1.616 0 00-2.21.178c-2.197 2.432-6.131 3.316-9.15 2.056-3.162-1.33-5.151-4.53-4.958-7.965a1.62 1.62 0 00-1.427-1.701 34.844 34.844 0 00-7.834-.02 1.626 1.626 0 00-1.441 1.665c.12 3.401-1.898 6.545-5.025 7.826-2.995 1.222-6.898.335-9.083-2.068a1.628 1.628 0 00-2.196-.184 34.583 34.583 0 00-5.632 5.568 1.62 1.62 0 00.175 2.211c2.552 2.313 3.378 5.99 2.051 9.155-1.266 3.013-4.39 4.961-7.963 4.961-.913-.026-1.59.546-1.695 1.429a34.89 34.89 0 00-.014 7.919c.09.805 1.132 1.429 1.972 1.429 3.246-.084 6.276 1.937 7.548 5.029 1.283 3.126.458 6.772-2.051 9.073a1.625 1.625 0 00-.177 2.191 34.656 34.656 0 005.509 5.574 1.622 1.622 0 002.214-.175c1.528-1.692 3.882-2.634 6.189-2.634zm13.46-12.215c-6.652 0-12.066-5.413-12.066-12.066 0-6.653 5.414-12.067 12.066-12.067 6.653 0 12.067 5.414 12.067 12.067 0 6.653-5.414 12.066-12.067 12.066zm0-23.459c-6.282 0-11.392 5.11-11.392 11.393 0 6.282 5.11 11.392 11.392 11.392 6.28 0 11.39-5.11 11.39-11.392 0-6.283-5.107-11.393-11.39-11.393zM89.86 225.115a43.493 43.493 0 01-4.705 1.773 2.811 2.811 0 01-3.47-1.692c-1.374-3.625-4.89-6.002-8.745-5.917-3.675.078-7.312 2.785-8.464 6.3a2.82 2.82 0 01-3.398 1.843 43.074 43.074 0 01-9.132-3.573 2.824 2.824 0 01-1.269-3.611c1.528-3.514.709-7.642-2.039-10.269-2.718-2.596-6.766-3.285-10.053-1.721-1.293.574-3.238.321-3.985-.954a43.632 43.632 0 01-4.01-9.062c-.45-1.456.236-2.882 1.657-3.456 3.686-1.64 6.028-5.078 5.953-8.756-.082-3.859-2.614-7.266-6.298-8.473a2.82 2.82 0 01-1.84-3.392 43.302 43.302 0 013.608-9.234 2.836 2.836 0 013.62-1.26c3.345 1.47 7.767.6 10.284-2.027 2.628-2.745 3.264-6.904 1.584-10.349a2.831 2.831 0 011.114-3.666 43.699 43.699 0 018.968-3.961 2.815 2.815 0 013.471 1.692c1.371 3.622 4.883 6.002 8.739 5.924 3.68-.085 7.32-2.795 8.467-6.298a2.816 2.816 0 013.389-1.846 43.144 43.144 0 019.14 3.564 2.824 2.824 0 011.27 3.614c-1.526 3.509-.706 7.636 2.038 10.267 2.683 2.566 6.653 3.231 10.115 1.691 1.257-.56 3.176-.291 3.926.983a43.535 43.535 0 014.01 9.063c.444 1.429-.32 2.989-1.706 3.473l-.472.196c-3.325 1.478-5.513 4.914-5.434 8.543.082 3.855 2.613 7.259 6.3 8.47a2.811 2.811 0 011.84 3.392 43.467 43.467 0 01-3.608 9.234 2.815 2.815 0 01-3.619 1.26c-3.348-1.47-7.773-.598-10.29 2.027-2.628 2.744-3.264 6.901-1.581 10.339a2.831 2.831 0 01-1.111 3.667 40.576 40.576 0 01-4.264 2.202zm-20.548-5.834c1.146-.51 2.374-.807 3.608-.834 4.208-.093 8.04 2.5 9.54 6.455a1.98 1.98 0 002.447 1.193 42.656 42.656 0 008.797-3.885 1.996 1.996 0 00.784-2.587c-1.834-3.751-1.137-8.284 1.73-11.279 2.747-2.864 7.572-3.818 11.22-2.214a1.991 1.991 0 002.555-.892 42.501 42.501 0 003.538-9.054 1.981 1.981 0 00-1.298-2.391c-4.019-1.322-6.781-5.034-6.871-9.24-.085-3.958 2.301-7.706 5.935-9.322l.505-.21c.991-.35 1.522-1.447 1.21-2.453a42.83 42.83 0 00-3.934-8.89c-.505-.857-1.958-1.053-2.873-.644-3.772 1.677-8.097.95-11.025-1.853-2.996-2.87-3.891-7.37-2.226-11.197a1.991 1.991 0 00-.895-2.549 42.21 42.21 0 00-8.966-3.497 1.98 1.98 0 00-2.389 1.304c-1.251 3.824-5.22 6.775-9.237 6.869-4.209.084-8.038-2.512-9.532-6.461a1.98 1.98 0 00-2.447-1.193 42.814 42.814 0 00-8.796 3.885 1.997 1.997 0 00-.785 2.587c1.832 3.754 1.135 8.29-1.732 11.285-2.748 2.864-7.572 3.815-11.218 2.211a2.001 2.001 0 00-2.555.889 42.263 42.263 0 00-3.538 9.057 1.99 1.99 0 001.298 2.394c4.016 1.319 6.776 5.034 6.866 9.246.084 4.01-2.45 7.753-6.455 9.535-1.035.423-1.51 1.403-1.19 2.447a42.956 42.956 0 003.935 8.89c.502.857 1.983 1.038 2.922.618 3.6-1.715 8.007-.96 10.973 1.875 2.998 2.868 3.894 7.368 2.225 11.198a1.993 1.993 0 00.896 2.546 42.532 42.532 0 008.96 3.503 1.99 1.99 0 002.394-1.301c.867-2.657 3.04-4.891 5.624-6.041zm9.003-20.413c-7.463 3.319-16.234-.053-19.553-7.514-3.32-7.463.053-16.234 7.513-19.553 7.464-3.319 16.235.053 19.554 7.513 3.319 7.461-.05 16.235-7.514 19.554zm-11.701-26.312c-7.044 3.133-10.226 11.413-7.094 18.457 3.133 7.044 11.413 10.226 18.457 7.093 7.044-3.132 10.226-11.412 7.093-18.456-3.132-7.044-11.41-10.226-18.456-7.094z" fill="#6C63FF"/><path d="M236.305 41.7H78.68v231.603h157.625V41.7z" fill="#F7F7F7"/><path d="M227.51 51.418H87.48v212.167h140.03V51.418z" fill="#fff"/><path opacity=".1" d="M215.844 100.514H99.148a3.51 3.51 0 01-3.5-3.5V73.18a3.51 3.51 0 013.5-3.5h116.699a3.51 3.51 0 013.5 3.5v23.835a3.515 3.515 0 01-3.503 3.5zM134.895 112.403H97.918a2.276 2.276 0 01-2.27-2.269 2.276 2.276 0 012.27-2.269h36.977a2.276 2.276 0 012.269 2.269 2.276 2.276 0 01-2.269 2.269zM217.075 125.507H97.918a2.275 2.275 0 01-2.27-2.269 2.276 2.276 0 012.27-2.269h119.157a2.276 2.276 0 012.269 2.269 2.277 2.277 0 01-2.269 2.269zM217.075 135.946H97.918a2.276 2.276 0 01-2.27-2.269 2.275 2.275 0 012.27-2.269h119.157a2.275 2.275 0 012.269 2.269 2.276 2.276 0 01-2.269 2.269zM217.075 146.385H97.918a2.276 2.276 0 01-2.27-2.27 2.276 2.276 0 012.27-2.269h119.157a2.276 2.276 0 012.269 2.269 2.276 2.276 0 01-2.269 2.27zM217.075 156.826H97.918a2.275 2.275 0 01-2.27-2.269 2.276 2.276 0 012.27-2.269h119.157a2.276 2.276 0 012.269 2.269 2.275 2.275 0 01-2.269 2.269zM217.075 167.266H97.918a2.276 2.276 0 01-2.27-2.27 2.276 2.276 0 012.27-2.269h119.157a2.276 2.276 0 012.269 2.269 2.276 2.276 0 01-2.269 2.27zM217.075 177.707H97.918a2.276 2.276 0 01-2.27-2.269 2.275 2.275 0 012.27-2.269h119.157a2.275 2.275 0 012.269 2.269 2.276 2.276 0 01-2.269 2.269zM217.075 188.146H97.918a2.276 2.276 0 01-2.27-2.27 2.276 2.276 0 012.27-2.269h119.157a2.276 2.276 0 012.269 2.269 2.276 2.276 0 01-2.269 2.27zM217.075 198.587H97.918a2.276 2.276 0 01-2.27-2.269 2.275 2.275 0 012.27-2.269h119.157a2.275 2.275 0 012.269 2.269 2.278 2.278 0 01-2.269 2.269zM217.075 209.026H97.918a2.276 2.276 0 01-2.27-2.269 2.276 2.276 0 012.27-2.269h119.157a2.276 2.276 0 012.269 2.269 2.276 2.276 0 01-2.269 2.269zM165.333 219.468H97.918a2.276 2.276 0 01-2.27-2.269 2.275 2.275 0 012.27-2.269h67.415c1.249 0 2.27 1.02 2.27 2.269a2.278 2.278 0 01-2.27 2.269z" fill="#6C63FF"/><path d="M202.394 257.25c10.111 0 18.308-8.197 18.308-18.308s-8.197-18.308-18.308-18.308-18.308 8.197-18.308 18.308 8.197 18.308 18.308 18.308z" fill="#6C63FF"/><path d="M203.925 255.532c10.111 0 18.308-8.197 18.308-18.308s-8.197-18.308-18.308-18.308-18.308 8.197-18.308 18.308 8.197 18.308 18.308 18.308z" stroke="#6C63FF" stroke-width=".292" stroke-miterlimit="10"/><path d="M300.152 284.955H18.356a2.77 2.77 0 01-2.762-2.762v-10.57a2.77 2.77 0 012.762-2.762H300.15a2.77 2.77 0 012.762 2.762v10.57a2.767 2.767 0 01-2.76 2.762z" fill="#F2F2F2"/><path d="M134.68 176.829l.72 6.294s4.369.058 6.049-1.87c-.306-1.161-1.088-2.042-1.088-2.042s.415.082 1.893-.306c-.956-.726-5.474-3.284-5.474-3.284l-2.1 1.208z" fill="#FCD2B1"/><path d="M142.476 180.401s-.893-2.353-1.817-2.114c-.925.239-4.474 3.278-3.229 4.494 1.382 1.351 1.152 2.614 1.152 2.614s4.349-1.779 3.894-4.994z" fill="#FCD2B1"/><path d="M212.718 197.624H199.07a1.277 1.277 0 01-1.277-1.277v-7.968a1.28 1.28 0 011.277-1.278h13.648a1.28 1.28 0 011.277 1.278v7.968c0 .706-.575 1.277-1.277 1.277zm-13.175-1.75h12.702v-7.023h-12.702v7.023z" fill="#9ACFF7"/><path d="M219.902 193.664v15.688a1.3 1.3 0 01-1.298 1.298h-25.415a1.3 1.3 0 01-1.298-1.298v-15.688a1.3 1.3 0 011.298-1.298h25.415a1.3 1.3 0 011.298 1.298z" fill="#CCE9FF"/><path d="M219.902 193.664v7.846h-28.011v-7.846a1.3 1.3 0 011.298-1.298h25.415a1.3 1.3 0 011.298 1.298z" fill="#9ACFF7"/><path d="M209.389 200.331h-6.983v3.605h6.983v-3.605z" fill="#2A94F4"/><path d="M173.634 179.046l-3.196 92.963h6.655s9.917-43.429 5.224-50.715c4.36-13.408 11.255-41.764 11.255-41.764l-19.938-.484z" fill="#0D517F"/><path d="M175.539 179.53l4.702 9.733 19.008 84.618h6.644s-.053-42.814-7.228-50.129c-.846-15.782.35-36.604-3.059-47.366-13.607-3.06-20.067 3.144-20.067 3.144z" fill="#0E538C"/><path d="M180.749 135.655c-5.512 9.587-14.335 25.445-24.284 30.493.598 2.173 1.872 4.122 1.872 4.122s15.701-5.612 20.735-13.522c5.034-7.91 1.677-21.093 1.677-21.093z" fill="#0B3A54"/><path d="M205.725 182.517c-1.038.606-3.319 8.65-3.319 8.65s4.13.905 6.56-1.12c1.537-4.777-1.619-9.636-1.619-9.636l-1.622 2.106zM183.505 117.533c-.145 1.622-1.193 7.251-1.193 7.251l11.256-5.722-.537-1.444-2.922-6.093s-2.835.096-3.121 0c-.289-.096-3.483 6.008-3.483 6.008z" fill="#FCD2B1"/><path d="M195.537 93.861c2.835 5.142 6.382 1.774 4.165 8.065.694 1.064 4.521 3.369-3.278 11.255-2.482 3.99-3.392 4.431-3.392 4.431s-1.794-2.593-2.923-4.711l-5.297-16.03 10.725-3.01z" fill="#0E538C"/><path d="M179.04 99.66s-5.781 4.873-2.494 18.366c4.649.679 8.957-1.135 8.957-1.135l4.603-3.984s-.974-14.382-5.851-14.948c-4.874-.569-5.215 1.7-5.215 1.7z" fill="#FFE3CA"/><path d="M184.991 100.508c-3.547.178-12.697-3.546-9.45-7.62 3.246-4.075 6.527 1.239 8.741.442 2.217-.799 8.42-4.608 11.255.531 0 0 1.596 6.204-10.546 6.647z" fill="#0E538C"/><path d="M191.515 107.905c.954-1.329 1.023-2.913.154-3.536-.869-.624-2.347-.051-3.301 1.279-.954 1.329-1.023 2.913-.154 3.536.869.624 2.347.051 3.301-1.279z" fill="#FFE3CA"/><path d="M184.811 99.07c-.505 4.163-.257 6.499.417 7.184.446 1.027.738 2.908.738 2.908h1.706s2.4-4.812 2.435-6.352c.032-1.54-.726-4.944-.726-4.944l-4.57 1.205z" fill="#0E538C"/><path d="M195.608 124.784v-7.166s-14.826 5.296-15.663 7.166c-.837 1.869-7.7 21.324-7.7 21.324s-.026 43.56.024 45.059c2.715-3.497 10.555-10.576 10.555-10.576l18.427 10.576s-5.985-22.718-6.253-24.266c-.268-1.549 3.666-17.188 3.666-17.188l-3.056-24.929z" fill="#0B4870"/><path d="M194.819 125.592c-6.623.674-9.19 3.106-9.19 5.81 4.325 9.596 21.353 25.731 19.057 51.721 2.162.175 5.137 0 5.137 0s9.727-32.798-15.004-57.531z" fill="#125D87"/><path d="M158.521 167.989c-.061-.041-.12-.079-.175-.12-1.062-.723-1.47-1.14-1.881-1.724-.432-.612-2.223-1.741-3.086-.91-.864.829-.942 2.456-.738 3.069.207.612-.058 3.231.373 3.73.432.499 2.024 1.426 3.351 1.292 1.328-.131 2.156-1.557 2.453-2.785.301-1.225-.297-2.552-.297-2.552z" fill="#EDBC9A"/><path d="M170.433 272.172l-15.062 6.571h22.205l-.484-6.571h-6.659zM199.045 272.172l-15.065 6.571h22.205l-.484-6.571h-6.656z" fill="#0B4870"/><path d="M234.839 61.792h-36.683c-4.092 0-7.437 3.349-7.437 7.438v9.109c0 4.092 3.348 7.437 7.437 7.437h2.021l-3.774 6.46 9.077-6.46h29.359c4.092 0 7.438-3.348 7.438-7.437V69.23c0-4.092-3.346-7.438-7.438-7.438zM191.183 29.129h-17.742c-8.601 0-15.636 7.038-15.636 15.636 0 8.549 6.95 15.546 15.478 15.633 3.99 2.564 9.03 5.746 9.03 5.746l-3.039-5.743h11.912c8.601 0 15.636-7.038 15.636-15.636 0-8.598-7.038-15.636-15.639-15.636z" fill="#6C63FF"/><path d="M126.753 102.104c-2.095-3.223-4.606-6.737-8.392-7.397-2.318-.405-4.678.374-6.825 1.339-3.759 1.689-7.44 4.22-8.977 8.044-1.499 3.734-.683 7.931-.152 11.918.531 3.987.621 8.452-1.939 11.553-2.754 3.328-7.546 3.914-11.375 5.912-3.696 1.931-6.59 5.349-7.873 9.318-.644 1.99-.88 4.218-.052 6.137.904 2.088 2.917 3.483 4.985 4.433 8.802 4.046 19.81 1.488 26.955-5.054 7.146-6.542 10.646-16.444 10.745-26.131.035-3.447-.32-6.953.499-10.301.458-1.873 1.272-3.643 1.692-5.524l.709-4.247z" fill="#0E538C"/><path d="M114.113 140.119c6.169 14.82 13.464 28.756 20.647 37.978 2.797.155 4.422-1.426 4.422-1.426s-15.336-26.941-14.178-35.225c1.161-8.286-10.891-1.327-10.891-1.327z" fill="#1989DD"/><path d="M147.016 170.852l-14.039-8.289-11.448 19.389 14.04 8.29 11.447-19.39z" fill="#CCE9FF"/><path d="M145.773 171.14l-12.445-7.348-10.35 17.531 12.445 7.347 10.35-17.53z" fill="#fff"/><path d="M137.334 164.225l6.11 3.608a.71.71 0 01.251.972l-.983 1.665a.71.71 0 01-.971.251l-6.111-3.608a.708.708 0 01-.25-.971l.982-1.666a.709.709 0 01.972-.251z" fill="#0E538C"/><path d="M132.598 166.94l10.76 6.353a.3.3 0 01-.307.516l-10.759-6.352a.3.3 0 01.306-.517zM131.602 168.626l10.759 6.353a.3.3 0 11-.306.516l-10.759-6.353a.299.299 0 01-.105-.411.298.298 0 01.411-.105zM130.61 170.309l10.759 6.352a.3.3 0 01-.306.517l-10.76-6.353a.3.3 0 11.307-.516zM129.614 171.995l10.759 6.353a.3.3 0 11-.306.516l-10.76-6.353a.3.3 0 11.307-.516zM128.621 173.678l10.76 6.352a.3.3 0 01-.306.517l-10.76-6.353a.3.3 0 11.306-.516zM127.625 175.364l10.76 6.353a.3.3 0 11-.306.516l-10.76-6.353a.299.299 0 01-.105-.411.3.3 0 01.411-.105zM126.547 176.997l7.28 4.299c.096.059.107.219.023.362-.085.143-.231.213-.33.155l-7.28-4.3c-.096-.058-.108-.218-.023-.361.085-.14.233-.21.33-.155z" fill="#CCE9FF"/><path d="M134.586 187.039a1.761 1.761 0 10.001-3.523 1.761 1.761 0 00-.001 3.523zM118.808 267.905l3.567 5.139a10.228 10.228 0 002.975 2.835l4.591 2.864h-11.48l-3.73-4.381v4.381h-1.704v-10.838h5.781z" fill="#6C63FF"/><path d="M124.191 213.686c-.539 1.937-5.384 54.023-5.384 54.023s-5.923 1.694-5.743 0c.181-1.695-6.101-43.362 1.975-54.023 5.562-4.36 9.152 0 9.152 0z" fill="#F7C39F"/><path d="M115.843 267.904l3.567 5.14a10.228 10.228 0 002.975 2.835l4.591 2.864h-11.48l-3.73-4.381v4.381h-1.704v-10.839h5.781z" fill="#6C63FF"/><path d="M121.227 213.686c-.54 1.937-5.385 54.023-5.385 54.023s-5.923 1.694-5.742 0c.18-1.695-6.102-43.362 1.974-54.023 5.562-4.36 9.153 0 9.153 0z" fill="#FCD2B1"/><path d="M112.469 166.486c-4.159 4.591-10.17 9.243-5.571 23.254 2.039 6.216 2.281 12.878.826 19.253-1.858 8.147-3.509 18.145-3.509 18.145l20.886.586s6.563-48.454 1.654-61.238c-6.093-2.266-14.286 0-14.286 0z" fill="#0E538C"/><path d="M120.588 126.321c2.45 3.561 10.766 16.222 10.29 17.987-.566 2.106-4.133 22.178-4.133 22.178h-14.283s1.803-4.599.298-7.665c-1.505-3.065-13.487-24.683 1.703-35.848 2.619.997 6.125 3.348 6.125 3.348z" fill="#2A94F4"/><path d="M121.343 120.913c-.326 2.538-.735 4.501.409 8.184-3.354-1.473-7.038-4.5-7.283-5.646 1.146-2.701 2.374-4.451 1.391-6.767 1.636.219 5.483 4.229 5.483 4.229z" fill="#FCD2B1"/><path d="M126.878 104.417c1.459 4.958 1.097 19.13-2.738 18.538-3.836-.589-8.406-2.508-10.177-7.373-1.767-4.865 1.643-19.676 12.915-11.165z" fill="#FFE3CA"/><path d="M113.896 116.627c.678-.391.72-1.587.095-2.671-.626-1.084-1.683-1.645-2.361-1.254-.678.392-.72 1.588-.095 2.672.626 1.083 1.683 1.645 2.361 1.253z" fill="#FFE3CA"/><path d="M110.437 114.867c8.7-2.36 15.595-6.953 17.228-11.229 1.631-4.276-9.429-6.49-11.64-3.981-2.211 2.508-10.13 10.039-5.588 15.21z" fill="#0E538C"/><path d="M113.93 118.146a1.462 1.462 0 10-.001-2.923 1.462 1.462 0 00.001 2.923z" fill="#6C63FF"/><path d="M115.394 125.641c-3.231-.691-7.455 6.12-7.046 7.546.408 1.426 10.87 40.731 42.974 38.08.102-.408 0-3.261 0-3.261s-26.798 3.59-35.928-42.365z" fill="#34A2F4"/><path d="M90.58 58.292H70.687c-9.27 0-16.786 7.516-16.786 16.786 0 9.269 7.517 16.785 16.786 16.785h6.273c4.92 3.666 16.474 12.241 16.022 11.62-.394-.542-4.524-7.376-7.079-11.62h4.675c9.27 0 16.786-7.516 16.786-16.785 0-9.27-7.516-16.786-16.786-16.786zM134.435 42.56c0-9.966-8.08-18.046-18.046-18.046s-18.045 8.08-18.045 18.046 8.079 18.045 18.045 18.045c1.126 0 2.226-.107 3.293-.306l-1.966 9.383 11.749-14.688-.009.003a17.964 17.964 0 004.979-12.437z" fill="#6C63FF"/><path d="M151.067 168.583c.266-.078 1.666-.18 1.829-.408.163-.227.753-1.928 1.243-2.024.49-.099.915 2.739 0 4.226-.881 1.164-1.698.575-1.96.607-.263.032-1.57-.032-1.57-.032l.458-2.369z" fill="#FCD2B1"/><path d="M280.032 284.39c5.793 0 8.237-4.626 9.203-9.535 1.087-5.536.288-11.43.288-11.43h-18.978s-.03.224-.07.627c-.356 3.485-1.5 20.338 9.557 20.338z" fill="#B6E7FF"/><path d="M270.543 263.427c0 .415 4.25.75 9.491.75s9.491-.335 9.491-.75c0-.414-4.25-.749-9.491-.749-5.241-.003-9.491.332-9.491.749z" fill="#85DDFF"/><path d="M254.332 210.808s10.01 15.228 16.015 24.523c6.006 9.295 7.578 11.223 8.293 14.228.714 3.001 1.359 14.084 1.359 14.084h.443s-.155-9.406-.697-12.571c-.522-3.059.038-4.159.467-7.376.428-3.217 1-8.365-2.252-11.941-3.252-3.576-2.395-7.079-3.538-9.435-1.143-2.36-10.01-5.218-11.153-7.651-1.144-2.432-6.149-3.934-8.937-3.861z" fill="#2A94F4"/><path d="M254.332 210.808s3.147 3.576 5.291 4.789c2.144 1.216 3.147.143 4.789 3.074 1.645 2.932 1.706 4.218 3.214 5.72 1.505 1.502 3.293 1.572 3.436 4.862.143 3.287-.715 6.075-.715 6.075s-15.37-23.732-16.015-24.52z" fill="#41AAF7"/><path d="M279.201 263.64h-.449s-.135-3.045-1.345-4.524c-.779-.954-4.092-2.036-7.368-3.334-1.802-.714-3.596-1.493-4.946-2.353-3.809-2.418-7.435-10.212-7.747-11.6-.111-.484-.157-.776-.154-.977v-.006c.008-.373.192-.429.513-.805.154-.181.618-.119 1.184.053a6.786 6.786 0 013.885 3.112c.793 1.373 2.062 3.091 3.617 3.508 2.686.718 2.464 1.164 3.456 3.897.989 2.733 3.488 3.179 6.621 6.405 3.135 3.22 2.733 6.624 2.733 6.624z" fill="#2A94F4"/><path d="M270.039 255.783c-1.802-.715-3.596-1.493-4.946-2.354-3.809-2.418-7.435-10.211-7.747-11.599-.111-.485-.157-.776-.154-.977.011.09.186 1.324 2.17 2.143 2.059.849 2.461.849 2.73 2.15.268 1.298.495 2.686 1.569 2.954 1.076.269 1.747-.939 2.596 1.03.851 1.969 1.257 2.643 2.038 2.911.782.268 1.377-.134 1.552 1.388.105.931.163 1.811.192 2.354z" fill="#41AAF7"/><path d="M282.493 263.641h.531s1.038-18.854 2.47-20.604c.922-1.129 3.967-3.156 7.849-4.693 2.135-.846 4.258-1.77 5.859-2.788 4.509-2.864 8.806-12.095 9.176-13.74.131-.572.187-.919.184-1.158v-.006c-.009-.444-.231-.511-.607-.954-.181-.216-.732-.14-1.403.064-1.945.592-3.584 1.925-4.602 3.684-.939 1.627-2.444 3.663-4.285 4.153-3.182.849-2.919 1.38-4.092 4.614-1.172 3.238-4.13 3.766-7.843 7.584-3.716 3.824-3.237 23.844-3.237 23.844z" fill="#2A94F4"/><path d="M293.344 238.347c2.135-.846 4.258-1.77 5.859-2.788 4.509-2.865 8.806-12.096 9.176-13.741.131-.571.187-.919.184-1.158-.012.108-.222 1.569-2.573 2.541-2.438 1.006-2.916 1.006-3.234 2.546-.318 1.537-.586 3.182-1.858 3.5-1.272.318-2.068-1.114-3.074 1.219-1.009 2.333-1.491 3.13-2.415 3.448-.928.318-1.631-.161-1.838 1.645a51.515 51.515 0 00-.227 2.788z" fill="#41AAF7"/><path d="M280.026 284.389c5.792 0 8.237-4.626 9.202-9.534-5.679-2.153-12.83-5.603-18.763-10.804-.353 3.486-1.496 20.338 9.561 20.338z" fill="#CCE9FF"/><path d="M35.952 282.021c-4.11 0-5.845-3.281-6.528-6.764-.77-3.928-.204-8.108-.204-8.108h13.466s.02.16.05.443c.25 2.474 1.059 14.429-6.784 14.429z" fill="#B6E7FF"/><path d="M42.68 267.149c0 .294-3.016.533-6.734.533-3.72 0-6.735-.239-6.735-.533 0-.295 3.016-.534 6.735-.534 3.721 0 6.734.239 6.734.534z" fill="#85DDFF"/><path d="M19.184 229.818s7.102 10.804 11.36 17.398c4.261 6.595 5.375 7.963 5.883 10.095.507 2.129.962 9.992.962 9.992h.557s.356-6.644-.303-8.826c-.659-2.181-.405-3.042-.102-5.325.303-2.284.709-5.936-1.598-8.47-2.307-2.535-1.7-5.023-2.511-6.694-.811-1.674-7.103-3.701-7.913-5.428-.805-1.727-4.355-2.791-6.335-2.742z" fill="#2A94F4"/><path d="M19.184 229.818s2.23 2.538 3.753 3.398c1.523.863 2.232.102 3.398 2.182 1.167 2.079 1.21 2.992 2.281 4.057 1.068 1.064 2.336 1.117 2.438 3.45.103 2.334-.507 4.311-.507 4.311s-10.905-16.841-11.363-17.398z" fill="#41AAF7"/><path d="M35.722 267.3h-.508s-.151-3.447-1.522-5.121c-.884-1.08-4.635-2.308-8.345-3.778-2.041-.81-4.071-1.691-5.603-2.665-4.31-2.739-8.42-11.565-8.773-13.137-.125-.548-.18-.881-.178-1.108v-.006c.009-.423.219-.487.58-.913.176-.207.7-.134 1.342.061 1.861.566 3.427 1.841 4.401 3.523.899 1.558 2.337 3.503 4.098 3.973 3.042.814 2.792 1.318 3.915 4.413 1.12 3.094 3.949 3.599 7.498 7.251 3.55 3.651 3.095 7.507 3.095 7.507z" fill="#2A94F4"/><path d="M25.347 258.402c-2.041-.811-4.071-1.692-5.603-2.666-4.31-2.739-8.42-11.565-8.773-13.137-.125-.548-.18-.881-.178-1.108.012.105.213 1.499 2.459 2.429 2.33.963 2.788.963 3.091 2.436.304 1.47.56 3.042 1.777 3.348 1.216.303 1.977-1.065 2.94 1.167.965 2.231 1.423 2.992 2.31 3.295.886.304 1.557-.151 1.756 1.573.12 1.05.186 2.05.221 2.663z" fill="#41AAF7"/><path d="M35.95 282.021c-4.11 0-5.846-3.281-6.528-6.764 4.028-1.528 9.103-3.975 13.311-7.665.251 2.473 1.06 14.429-6.784 14.429z" fill="#CCE9FF"/></svg>