<svg width="40" height="40" viewBox="0 0 40 40" fill="none" xmlns="http://www.w3.org/2000/svg">
<g clip-path="url(#clip0_1_2)">
<path fill-rule="evenodd" clip-rule="evenodd" d="M39.144 8.927C39.1581 8.97985 39.1651 9.03431 39.165 9.089V17.559C39.1651 17.6677 39.1365 17.7746 39.0821 17.8687C39.0277 17.9628 38.9493 18.0409 38.855 18.095L31.745 22.188V30.301C31.745 30.4095 31.7166 30.5161 31.6626 30.6101C31.6085 30.7042 31.5307 30.7824 31.437 30.837L16.597 39.38C16.562 39.4 16.525 39.412 16.488 39.425C16.474 39.43 16.461 39.438 16.447 39.442C16.3431 39.4695 16.2339 39.4695 16.13 39.442C16.113 39.437 16.098 39.428 16.081 39.422C16.048 39.409 16.012 39.399 15.98 39.38L1.142 30.837C1.04775 30.7828 0.969459 30.7047 0.915031 30.6106C0.860602 30.5165 0.831962 30.4097 0.832001 30.301V4.89C0.832151 4.83527 0.839549 4.78079 0.854001 4.728C0.858001 4.71 0.869001 4.694 0.875001 4.676C0.887001 4.644 0.898001 4.61 0.915001 4.58C0.926001 4.56 0.943001 4.544 0.957001 4.525C0.975001 4.501 0.991001 4.475 1.012 4.454C1.03 4.436 1.052 4.423 1.072 4.407C1.095 4.389 1.115 4.369 1.141 4.354L8.562 0.0830002C8.6559 0.0291391 8.76225 0.000799179 8.8705 0.000799179C8.97875 0.000799179 9.08511 0.0291391 9.179 0.0830002L16.599 4.354C16.625 4.369 16.645 4.389 16.668 4.407C16.688 4.422 16.71 4.436 16.728 4.453C16.749 4.475 16.765 4.501 16.783 4.525C16.797 4.544 16.814 4.56 16.825 4.58C16.843 4.611 16.853 4.644 16.865 4.676C16.871 4.694 16.882 4.71 16.887 4.728C16.9014 4.78081 16.9088 4.83527 16.909 4.89V20.762L23.091 17.202V9.088C23.091 9.034 23.099 8.979 23.112 8.928C23.118 8.908 23.128 8.893 23.134 8.875C23.146 8.842 23.157 8.809 23.174 8.779C23.186 8.759 23.203 8.743 23.216 8.724C23.234 8.7 23.25 8.674 23.271 8.653C23.289 8.635 23.311 8.622 23.331 8.606C23.355 8.588 23.375 8.568 23.4 8.553L30.82 4.281C30.9139 4.22676 31.0205 4.1982 31.129 4.1982C31.2375 4.1982 31.3441 4.22676 31.438 4.281L38.857 8.553C38.883 8.568 38.903 8.588 38.927 8.605C38.946 8.621 38.968 8.635 38.986 8.652C39.007 8.674 39.023 8.7 39.041 8.724C39.055 8.743 39.072 8.759 39.083 8.779C39.101 8.809 39.111 8.842 39.123 8.875C39.13 8.893 39.14 8.909 39.145 8.927H39.144ZM37.929 17.202V10.158L35.332 11.653L31.746 13.718V20.762L37.929 17.202ZM30.509 29.944V22.895L26.982 24.91L16.907 30.66V37.775L30.51 29.944H30.509ZM2.07 5.959V29.944L15.671 37.774V30.661L8.564 26.64L8.562 26.638L8.559 26.636C8.535 26.623 8.515 26.603 8.493 26.586C8.473 26.57 8.451 26.558 8.434 26.541L8.432 26.538C8.412 26.519 8.398 26.495 8.382 26.474C8.366 26.453 8.348 26.435 8.335 26.414V26.411C8.321 26.388 8.312 26.361 8.302 26.334C8.292 26.311 8.279 26.289 8.272 26.264C8.265 26.234 8.263 26.204 8.26 26.174C8.257 26.15 8.251 26.127 8.251 26.104V9.519L4.665 7.453L2.07 5.96V5.959ZM8.87 1.332L2.69 4.89L8.87 8.448L15.05 4.889L8.87 1.332H8.871H8.87ZM12.085 23.538L15.671 21.473V5.96L13.075 7.455L9.488 9.52V25.034L12.085 23.539V23.538ZM31.128 5.53L24.948 9.088L31.128 12.646L37.308 9.087L31.128 5.53V5.53ZM30.51 13.717L26.923 11.652L24.327 10.157V17.201L27.913 19.265L30.51 20.761V13.717ZM16.288 29.59L25.353 24.415L29.885 21.828L23.709 18.272L16.598 22.366L10.117 26.097L16.287 29.59H16.288Z" fill="white"/>
</g>
<defs>
<clipPath id="clip0_1_2">
<rect width="40" height="40" fill="white"/>
</clipPath>
</defs>
</svg>
