<svg width="378" height="276" viewBox="0 0 378 276" fill="none" xmlns="http://www.w3.org/2000/svg">
<g clip-path="url(#clip0)">
<path d="M90.2348 62.9284C77.8786 68.4866 65.2706 74.6818 56.5919 85.0886C53.6965 88.5601 51.2054 92.7755 51.4572 97.2884C51.9264 105.704 61.5779 110.717 70.0048 110.732C78.4317 110.747 86.6298 107.588 95.0567 107.611C99.4056 107.623 104.849 109.729 104.792 114.081C104.758 116.683 102.667 118.731 100.729 120.463C85.8554 133.758 70.9814 147.053 56.1036 160.347C51.1482 164.776 46.0363 169.419 43.4575 175.546C40.8787 181.672 41.6226 189.744 46.9595 193.712C50.473 196.325 55.1385 196.668 59.5179 196.744C79.4045 197.099 99.1881 194.04 118.747 190.435C187.905 177.693 255.779 158.009 321.027 131.782C332.975 126.979 345.801 121.078 351.489 109.526C358.058 96.1745 351.05 77.9282 337.229 72.412C328.97 69.1122 319.684 70.0545 310.941 68.437C302.197 66.8195 292.821 60.8264 292.729 51.9379C292.584 37.2318 316.381 31.6507 317.064 16.9599C317.426 9.18146 310.357 2.60853 302.754 0.918566C295.151 -0.771397 287.255 1.26571 279.823 3.60038C279.823 3.59275 145.046 38.2771 90.2348 62.9284Z" fill="#F7F7F7"/>
<path d="M69.7439 215.506C76.0117 210.016 83.1797 204.195 91.4998 204.569C98.4085 204.878 104.432 209.528 108.728 214.953C113.023 220.373 116.063 226.683 120.183 232.241C124.525 238.093 130.796 243.365 138.083 243.312C145.731 243.255 151.976 237.483 157.389 232.077C169.337 220.148 181.285 208.219 193.233 196.29C199.852 189.683 207.882 182.557 217.164 183.698C226.43 184.838 232.492 193.681 237.313 201.677C244.649 213.842 251.981 226.012 259.317 238.177C260.778 240.603 262.342 243.129 264.799 244.54C271.296 248.275 278.945 242.339 284.083 236.884C289.374 231.265 294.818 225.562 301.647 221.957C308.471 218.352 317.043 217.146 323.864 220.763C328.213 223.067 331.398 227.034 334.458 230.891C346.272 245.792 358.091 260.692 369.905 275.593H10.8203C10.8203 275.589 50.1015 232.707 69.7439 215.506Z" fill="#DCEEFF"/>
<path d="M77.3988 215.91C82.3428 211.588 87.7522 206.957 94.3442 205.522C101.043 204.065 107.357 207.033 112.152 211.592C121.323 220.312 124.641 234.065 135.735 240.962C140.553 243.956 146.195 244.731 151.521 242.625C156.949 240.481 161.256 236.258 165.319 232.207C176.111 221.441 186.899 210.665 197.688 199.891C205.989 191.602 217.601 179.085 230.4 186.288C235.557 189.191 239.208 194.223 242.325 199.117C246.189 205.19 249.794 211.439 253.51 217.604C257.439 224.123 261.368 230.639 265.297 237.158C268.098 241.801 271.306 246.852 277.486 246.219C282.968 245.654 287.683 241.503 291.345 237.704C296.037 232.836 300.619 227.801 306.349 224.116C312.014 220.469 318.968 218.225 325.732 219.492C332.549 220.77 337.008 225.878 341.117 231.047C350.646 243.037 360.149 255.05 369.667 267.051C372.028 270.031 374.394 273.01 376.755 275.993C376.888 275.669 377.026 275.341 377.159 275.017C373.951 275.017 370.747 275.017 367.538 275.017C358.814 275.017 350.089 275.017 341.361 275.017C328.459 275.017 315.554 275.017 302.652 275.017C286.973 275.017 271.291 275.017 255.612 275.017C238.441 275.017 221.271 275.017 204.1 275.017C186.705 275.017 169.309 275.017 151.914 275.017C135.693 275.017 119.472 275.017 103.252 275.017C89.549 275.017 75.8424 275.017 62.1395 275.017C52.3202 275.017 42.5009 275.017 32.6815 275.017C29.6144 275.017 26.5473 275.017 23.4802 275.017C21.9505 275.017 20.1918 274.772 18.6735 275.017C18.4866 275.047 18.2692 275.017 18.0784 275.017C18.2119 275.341 18.3493 275.669 18.4828 275.993C32.7655 260.402 47.3152 245.009 62.3455 230.135C67.2438 225.279 72.2068 220.465 77.3988 215.91C77.9519 215.422 77.1432 214.617 76.5901 215.101C66.6105 223.856 57.3138 233.42 48.0781 242.942C39.5062 251.781 31.0488 260.738 22.6715 269.764C21.0006 271.564 19.3259 273.369 17.6664 275.184C17.3384 275.543 17.5596 276.161 18.0708 276.161C21.2791 276.161 24.4835 276.161 27.6918 276.161C36.4162 276.161 45.1407 276.161 53.869 276.161C66.7707 276.161 79.6762 276.161 92.5779 276.161C108.257 276.161 123.94 276.161 139.618 276.161C156.789 276.161 173.959 276.161 191.13 276.161C208.525 276.161 225.921 276.161 243.317 276.161C259.537 276.161 275.758 276.161 291.978 276.161C305.681 276.161 319.388 276.161 333.091 276.161C342.91 276.161 352.729 276.161 362.549 276.161C367.21 276.161 371.895 276.291 376.557 276.161C376.755 276.157 376.953 276.161 377.152 276.161C377.69 276.161 377.85 275.555 377.556 275.184C367.79 262.866 358.02 250.548 348.254 238.23C344.058 232.939 340.102 226.847 334.815 222.559C330.13 218.76 324.301 217.432 318.373 218.256C312.227 219.111 306.715 222.086 301.908 225.909C296.648 230.093 292.535 235.423 287.481 239.806C282.464 244.159 275.01 247.935 269.727 241.801C267.323 239.009 265.618 235.488 263.722 232.344C261.692 228.976 259.663 225.611 257.634 222.242C253.639 215.616 249.645 208.99 245.651 202.363C242.699 197.465 239.631 192.468 235.386 188.565C231.578 185.067 226.768 182.729 221.5 183.03C215.766 183.358 210.692 186.513 206.37 190.072C200.877 194.597 196.02 199.941 190.989 204.961C185.461 210.481 179.933 216.001 174.402 221.518C169.366 226.546 164.506 231.898 159.078 236.502C153.913 240.885 147.507 244.17 140.637 241.999C127.426 237.826 123.299 222.109 114.841 212.717C110.988 208.437 105.922 204.82 100.078 204.107C94.0695 203.371 88.416 206.003 83.6284 209.402C81.164 211.149 78.8637 213.11 76.5901 215.097C76.0331 215.589 76.8456 216.394 77.3988 215.91Z" fill="#CCE9FF"/>
<path d="M347.994 99.2684C340.544 92.2186 331.503 90.2426 320.317 90.7652C318.486 90.8529 316.438 91.1581 315.381 92.4246C314.328 93.6911 315.465 96.0029 317.254 95.6482C304.623 89.6742 289.566 87.4272 275.268 89.3842C273.689 89.6017 271.968 89.945 271.022 91.0322C270.08 92.1233 270.706 94.1146 272.308 94.1299C260.562 89.2583 239.379 98.6657 241.5 99.4782L347.994 99.2684Z" fill="#DCF2FF"/>
<path d="M296.559 166.653C289.673 160.137 281.315 158.31 270.981 158.795C269.287 158.875 267.395 159.157 266.418 160.328C265.445 161.499 266.498 163.636 268.146 163.308C256.473 157.784 242.557 155.708 229.342 157.517C227.881 157.715 226.29 158.036 225.42 159.043C224.547 160.05 225.127 161.892 226.607 161.908C215.75 157.402 196.176 166.1 198.137 166.852L296.559 166.653Z" fill="#DCF2FF"/>
<path d="M89.172 150.715L12.5781 152.317L47.6477 159.508L28.6843 173.337L90.2401 158.947L89.172 150.715Z" fill="#6C63FF"/>
<path d="M91.8984 161.866L8.78125 210.783L54.6735 176.286L10.681 175.336L91.8984 154.927V161.866Z" fill="#6C63FF"/>
<path d="M27.0438 192.098L39.6136 180.925L-4.375 178.044L25.7277 161.877L-3.22674 148.289H32.026L11.9715 125.98L12.6391 126.193C13.4059 126.438 89.2367 150.528 91.8995 150.528H92.384L68.2362 172.982L27.0438 192.098ZM-3.02074 177.751L40.5521 180.604L29.2411 190.66L68.0531 172.646L91.4837 150.849C85.174 149.605 20.9783 129.238 13.196 126.766L32.8843 148.666H-1.5177L26.5746 161.85L-3.02074 177.751Z" fill="#6C63FF"/>
<path d="M85.5177 148.3L36.0166 128.562L46.4502 141.975L-0.121094 135.814L90.2404 157.25L85.5177 148.3Z" fill="#6C63FF"/>
<path d="M166.541 87.5187C166.541 87.5187 160.327 109.515 182.949 112.487C181.819 114.84 181.591 115.798 181.591 115.798C181.591 115.798 158.545 110.286 159.69 96.2356C163.749 87.3661 166.541 87.5187 166.541 87.5187Z" fill="#17A564"/>
<path d="M117.596 128.055L94.4593 117.042L68.1523 148.476L90.2401 143.65L117.596 128.055Z" fill="#2A94F4"/>
<path d="M126.641 169.45L110.203 189.111L73.1875 171.51L95.2715 166.684L126.641 169.45Z" fill="#2A94F4"/>
<path d="M98.2762 163.109L88.9909 164.208L85.5156 148.3L94.4576 145.649L98.2762 163.109Z" fill="#0E538C"/>
<path d="M244.78 121.951C244.78 121.951 221.056 147.575 190.354 161.126C189.782 161.377 189.21 161.625 188.634 161.866C188.062 162.114 187.482 162.35 186.906 162.583C181.798 164.647 176.514 166.348 171.135 167.523C145.164 173.2 114.119 171.578 95.3501 167.054L90.2383 143.65C105.41 131.702 132.869 116.92 158.84 111.247C164.219 110.072 169.728 109.416 175.232 109.164C175.858 109.134 176.484 109.111 177.105 109.092C177.731 109.072 178.353 109.057 178.979 109.05C212.534 108.558 244.78 121.951 244.78 121.951Z" fill="#CCE9FF"/>
<path d="M244.786 121.951C244.786 121.951 221.061 147.575 190.36 161.126C189.787 161.377 189.215 161.625 188.639 161.866C181.193 154.999 176.21 146.545 174.208 137.371C172.205 128.2 173.208 118.438 177.115 109.092C177.74 109.072 178.362 109.057 178.988 109.05C212.539 108.558 244.786 121.951 244.786 121.951Z" fill="#2A94F4"/>
<path d="M178.983 109.05C178.357 109.057 177.735 109.073 177.11 109.092C176.488 109.111 175.862 109.134 175.237 109.164C173.47 113.559 172.315 118.034 171.796 122.493C171.201 127.632 171.449 132.759 172.536 137.733C173.623 142.708 175.534 147.476 178.22 151.894C180.551 155.732 183.469 159.321 186.906 162.579C187.482 162.347 188.062 162.106 188.634 161.862C189.21 161.618 189.783 161.374 190.355 161.122C183.03 154.561 177.922 146.397 175.87 137.005C173.821 127.613 175.061 118.068 178.983 109.05Z" fill="#0E538C"/>
<path d="M186.289 111.232C196.158 111.682 229.522 118.289 237.194 121.604C230.568 121.097 189.871 113.704 187.51 116.824C186.373 113.601 186.289 111.232 186.289 111.232Z" fill="#CCE9FF"/>
<path d="M122.794 151.833L81.5288 160.851L70.6719 159.993L80.1822 154.686L121.447 145.672L122.794 151.833Z" fill="#2A94F4"/>
<path d="M163.428 151.68L169.555 159.508L161.021 154.45V155.594L158.961 154.209L160.899 150.715L163.428 151.68Z" fill="#0B4870"/>
<path d="M169.39 131.412C169.951 130.71 169.562 129.665 168.681 129.497C161.15 128.051 144.258 123.729 141.706 120.933C138.86 117.816 142.789 113.753 145.635 111.586L154.65 115.42L177.893 126.331C178.534 126.632 178.775 127.422 178.412 128.028L164.114 152.321C164.114 152.321 161.539 152.05 159.781 151.642C159.781 151.642 166.46 134.33 169.39 131.412Z" fill="#0B3E60"/>
<path d="M172.453 114.398H178.824L176.867 114.997L178.824 116.653L176.718 118.762L172.453 116.279V114.398Z" fill="#FCD2B1"/>
<path d="M166.823 86.8284L164.542 100.012L154.654 115.417L144.109 112.617L153.994 84.0512L165.121 81.644L166.823 86.8284Z" fill="#17A564"/>
<path d="M170.126 83.3874L166.54 87.5188L165.117 81.644L166.819 80.5835L170.126 83.3874Z" fill="#FCD2B1"/>
<path d="M166.11 70.4209C164.481 71.077 163.664 75.2505 163.916 76.1317C164.168 77.0129 166.571 80.5836 166.571 80.5836L170.859 71.1533L166.11 70.4209Z" fill="#0E538C"/>
<path d="M172.436 73.2782C172.436 73.2782 175.648 85.4551 173.279 84.902C170.91 84.345 167.446 83.891 167.007 82.7161C166.569 81.5411 165.527 73.8009 166.523 72.6068C167.519 71.4128 172.253 72.5229 172.253 72.5229L172.436 73.2782Z" fill="#FFE3CA"/>
<path d="M165.793 73.6521C165.221 73.1638 164.977 72.3207 165.198 71.5997C165.511 70.5888 166.59 70.0051 167.632 69.822C168.673 69.6389 169.745 69.7533 170.794 69.6007C171.84 69.4481 172.938 68.9331 173.335 67.9565C173.9 68.4601 174.216 69.2307 174.17 69.986C174.521 69.6694 174.876 69.3528 175.227 69.0361C174.72 70.5811 174.129 72.2406 172.77 73.1332C171.447 73.9992 169.738 73.9077 168.162 73.7856C168.158 73.7818 166.365 74.1404 165.793 73.6521Z" fill="#0E538C"/>
<path d="M168.032 73.4193L165.819 76.8374L165.602 72.5876L168.032 73.4193Z" fill="#0E538C"/>
<path d="M166.494 79.1284C166.905 79.0042 167.1 78.444 166.929 77.8772C166.758 77.3105 166.285 76.9518 165.874 77.076C165.462 77.2003 165.268 77.7605 165.439 78.3272C165.61 78.894 166.082 79.2527 166.494 79.1284Z" fill="#FFE3CA"/>
<path d="M153.989 84.0513C153.989 84.0513 138.15 114.398 173.075 117.072C172.899 115.371 172.899 114.059 172.899 114.059C172.899 114.059 154.829 111.651 157.572 95.9459C157.865 94.2712 158.411 92.6537 159.086 91.0935C162.161 83.9712 153.989 84.0513 153.989 84.0513Z" fill="#17A564"/>
<path d="M322.014 162.827C320.74 162.984 319.417 163.148 318.451 163.273C310.902 153.492 304.512 134.979 301.266 114.219C302.456 114.074 303.642 113.925 304.832 113.78C308.079 134.533 314.465 153.042 322.014 162.827Z" fill="#F7F7F7"/>
<path d="M322.016 162.827C322.096 162.93 322.176 163.033 322.256 163.136C321.066 163.281 319.88 163.43 318.69 163.575C318.61 163.475 318.533 163.372 318.453 163.273C319.418 163.147 320.742 162.983 322.016 162.827Z" fill="#F7F7F7"/>
<path d="M322.254 163.136C323.784 165.078 325.363 166.657 326.969 167.824L323.403 168.263C321.797 167.096 320.217 165.516 318.688 163.575C319.878 163.43 321.064 163.281 322.254 163.136Z" fill="#F7F7F7"/>
<path d="M306.917 91.1123C307.421 119.384 316.302 148.457 326.754 156.052L323.188 156.491C312.735 148.895 303.854 119.823 303.351 91.551C303.225 84.4821 303.633 78.1343 304.484 72.7058C305.674 72.5608 306.86 72.4121 308.05 72.2671C307.203 77.6956 306.792 84.0434 306.917 91.1123Z" fill="#6C63FF"/>
<path d="M316.52 124.24C319.148 132.846 322.689 139.556 326.515 142.337L322.948 142.776C319.122 139.995 315.582 133.285 312.953 124.679C314.143 124.534 315.33 124.385 316.52 124.24Z" fill="#F7F7F7"/>
<path d="M322.707 124.969C323.818 127.006 325.027 128.566 326.286 129.478L322.719 129.917C321.464 129.005 320.251 127.445 319.141 125.407C320.327 125.263 321.517 125.118 322.707 124.969Z" fill="#6C63FF"/>
<path d="M321.825 104.17C322.302 109.565 324.045 114.623 326.048 116.08L322.481 116.519C320.478 115.062 318.735 110.003 318.258 104.609C319.444 104.46 320.634 104.315 321.825 104.17Z" fill="#F7F7F7"/>
<path d="M311.99 94.7937C312.173 105.139 313.893 115.634 316.522 124.24C315.331 124.385 314.145 124.534 312.955 124.679C310.326 116.077 308.61 105.582 308.423 95.2324C308.121 78.4434 311.952 67.2011 317.491 66.5183L321.058 66.0796C315.518 66.7663 311.692 78.0085 311.99 94.7937Z" fill="#F7F7F7"/>
<path d="M302.567 87.9497C302.724 96.6398 303.521 105.391 304.833 113.78C303.643 113.925 302.456 114.074 301.266 114.218C299.954 105.834 299.157 97.0785 299 88.3884C298.497 60.1816 304.928 41.2907 314.237 40.1462L317.803 39.7075C308.495 40.852 302.064 59.7429 302.567 87.9497Z" fill="#F7F7F7"/>
<path d="M316.746 98.2496C316.929 108.447 319.378 118.861 322.708 124.972C321.518 125.117 320.332 125.266 319.141 125.411C315.807 119.3 313.358 108.885 313.179 98.6883C312.981 87.6597 315.495 80.2742 319.134 79.8279L322.701 79.3892C319.065 79.8355 316.551 87.221 316.746 98.2496Z" fill="#6C63FF"/>
<path d="M319.305 51.8882C314.071 52.5329 309.955 60.0824 308.051 72.2669C306.861 72.4119 305.675 72.5607 304.484 72.7056C306.388 60.5211 310.504 52.9716 315.738 52.3269C316.81 52.1972 318.237 52.0217 319.305 51.8882Z" fill="#6C63FF"/>
<path d="M321.701 101.847C321.716 102.621 321.758 103.396 321.827 104.166C320.637 104.311 319.45 104.46 318.26 104.605C318.191 103.835 318.149 103.06 318.134 102.286C318.042 97.2617 319.191 93.897 320.85 93.6948L324.417 93.2561C322.758 93.4583 321.609 96.8268 321.701 101.847Z" fill="#F7F7F7"/>
<path d="M326.282 129.478C327.232 130.168 328.14 130.439 328.986 130.336L325.42 130.775C324.573 130.878 323.665 130.607 322.715 129.917C323.787 129.787 325.24 129.211 326.282 129.478Z" fill="#6C63FF"/>
<path d="M326.047 116.076C326.478 116.389 326.894 116.515 327.28 116.465L323.713 116.904C323.327 116.95 322.912 116.828 322.48 116.515C323.549 116.385 325.002 115.805 326.047 116.076Z" fill="#F7F7F7"/>
<path d="M326.516 142.338C327.962 143.387 329.343 143.803 330.632 143.642L327.065 144.081C325.776 144.241 324.395 143.825 322.949 142.776C324.017 142.647 325.444 142.467 326.516 142.338Z" fill="#F7F7F7"/>
<path d="M326.762 156.052C328.734 157.486 330.623 158.051 332.385 157.833L328.818 158.272C327.056 158.49 325.168 157.925 323.195 156.491C324.263 156.361 325.717 155.781 326.762 156.052Z" fill="#6C63FF"/>
<path d="M326.969 167.824C329.395 169.587 331.719 170.285 333.885 170.018L330.319 170.457C328.152 170.724 325.829 170.026 323.402 168.263C324.47 168.133 325.897 167.954 326.969 167.824Z" fill="#F7F7F7"/>
<path d="M320.848 93.6948L324.414 93.2561C324.8 93.2104 325.216 93.3324 325.647 93.6452L322.08 94.0839C321.645 93.7711 321.233 93.6491 320.848 93.6948Z" fill="#6C63FF"/>
<path d="M319.133 79.828L322.7 79.3893C323.547 79.2863 324.454 79.5572 325.404 80.2477L321.838 80.6864C320.888 79.9959 319.98 79.7212 319.133 79.828Z" fill="#F7F7F7"/>
<path d="M317.492 66.522L321.059 66.0833C322.348 65.9231 323.733 66.3389 325.179 67.388L321.612 67.8267C320.166 66.7738 318.782 66.3618 317.492 66.522Z" fill="#6C63FF"/>
<path d="M327.282 116.466L323.715 116.904C325.37 116.698 326.519 113.338 326.427 108.31C326.316 102.118 324.371 95.7437 322.082 94.0842L325.649 93.6455C327.938 95.3088 329.883 101.68 329.994 107.871C330.082 112.899 328.937 116.264 327.282 116.466Z" fill="#6C63FF"/>
<path d="M315.738 52.3271L319.305 51.8884C321.068 51.6709 322.956 52.2355 324.932 53.6699L321.365 54.1086C319.389 52.678 317.501 52.1096 315.738 52.3271Z" fill="#F7F7F7"/>
<path d="M314.234 40.1464L317.801 39.7077C319.968 39.4406 322.291 40.1349 324.721 41.9012L321.154 42.3399C318.724 40.5736 316.401 39.8793 314.234 40.1464Z" fill="#6C63FF"/>
<path d="M328.989 130.336L325.422 130.775C329.061 130.325 331.575 122.939 331.377 111.914C331.133 98.3183 326.86 84.337 321.836 80.6863L325.403 80.2476C330.427 83.8983 334.699 97.8796 334.944 111.476C335.142 122.5 332.628 129.886 328.989 130.336Z" fill="#F7F7F7"/>
<path d="M330.631 143.642L327.065 144.081C332.604 143.398 336.43 132.152 336.132 115.367C335.762 94.6677 329.258 73.3848 321.609 67.8267L325.176 67.3879C332.825 72.9461 339.329 94.2328 339.699 114.928C339.997 131.713 336.171 142.959 330.631 143.642Z" fill="#6C63FF"/>
<path d="M332.384 157.833L328.817 158.272C336.382 157.338 341.609 141.979 341.2 119.048C340.697 90.7766 331.816 61.7039 321.363 54.1086L324.93 53.6699C335.383 61.2614 344.264 90.3379 344.767 118.61C345.179 141.54 339.953 156.903 332.384 157.833Z" fill="#F7F7F7"/>
<path d="M333.89 170.018L330.323 170.457C339.628 169.308 346.059 150.417 345.556 122.214C344.934 87.4424 334.008 51.6823 321.156 42.3398L324.723 41.9011C337.579 51.2398 348.501 87.0037 349.123 121.776C349.626 149.979 343.194 168.87 333.89 170.018Z" fill="#6C63FF"/>
<path d="M321.156 42.3398C334.012 51.6785 344.934 87.4424 345.556 122.214C346.178 156.99 336.259 177.606 323.403 168.267C310.547 158.928 299.622 123.168 299 88.3923C298.382 53.6164 308.301 32.9974 321.156 42.3398ZM323.194 156.491C333.646 164.082 341.707 147.324 341.203 119.048C340.7 90.7765 331.819 61.7038 321.366 54.1085C310.914 46.5132 302.853 63.2794 303.357 91.551C303.86 119.826 312.741 148.899 323.194 156.491Z" fill="#6C63FF"/>
<path d="M321.839 80.6862C326.863 84.337 331.135 98.3183 331.379 111.914C331.624 125.51 327.744 133.571 322.72 129.92C317.692 126.269 313.423 112.288 313.179 98.6921C312.935 85.0923 316.814 77.0316 321.839 80.6862ZM322.479 116.515C324.768 118.178 326.535 114.508 326.424 108.313C326.313 102.122 324.368 95.7471 322.079 94.0877C319.79 92.4244 318.02 96.0981 318.131 102.29C318.241 108.485 320.187 114.852 322.479 116.515Z" fill="#F7F7F7"/>
<path d="M341.206 119.052C340.836 98.2918 335.945 77.0966 329.239 64.2941C329.097 64.0233 328.952 63.7524 328.807 63.4892C328.086 62.1654 327.343 60.9409 326.583 59.8193C326.431 59.5943 326.278 59.3768 326.126 59.1594C324.596 57.0078 323.001 55.2988 321.369 54.1124C319.408 52.6894 317.535 52.121 315.784 52.327C314.761 52.4453 313.785 52.8268 312.854 53.4562C312.587 53.6355 312.327 53.8339 312.072 54.0552C311.816 54.2726 311.561 54.5129 311.313 54.7723C310.569 55.5468 309.867 56.4928 309.207 57.6029C308.986 57.973 308.772 58.3621 308.566 58.7665C308.356 59.1708 308.154 59.5943 307.956 60.0368C307.757 60.4793 307.563 60.9371 307.376 61.4101C304.847 67.8228 303.347 77.3217 303.336 88.9416C303.336 89.8038 303.344 90.6736 303.359 91.5586C303.557 102.602 305.03 113.768 307.38 123.729C307.475 124.126 307.57 124.522 307.666 124.919C308.44 128.074 309.299 131.103 310.237 133.956C311.29 137.169 312.434 140.159 313.659 142.872C313.93 143.474 314.204 144.062 314.483 144.638C317.13 150.097 320.094 154.244 323.2 156.498C323.688 156.853 324.172 157.158 324.653 157.406C324.974 157.574 325.29 157.715 325.603 157.837C325.916 157.959 326.229 158.055 326.534 158.131C326.995 158.245 327.449 158.306 327.9 158.322C328.197 158.329 328.495 158.318 328.785 158.284C336.079 157.433 341.209 143.188 341.229 121.673C341.229 120.807 341.221 119.933 341.206 119.052ZM322.952 142.776C315.299 137.218 308.795 115.931 308.429 95.2361C308.059 74.5369 313.964 62.2685 321.617 67.8266C329.265 73.3848 335.769 94.6715 336.14 115.367C336.506 136.066 330.6 148.334 322.952 142.776Z" fill="#F7F7F7"/>
<path d="M335.373 182.046L331.806 182.485C342.831 181.123 350.449 158.745 349.85 125.331C349.114 84.1388 336.174 41.7714 320.945 30.7085L324.512 30.2698C339.741 41.3327 352.685 83.7001 353.417 124.892C354.016 158.306 346.398 180.688 335.373 182.046Z" fill="#DBDBDB"/>
<path d="M349.855 125.335C349.119 84.1426 336.179 41.7752 320.95 30.7123C305.722 19.6455 293.972 44.0718 294.704 85.2679C295.441 126.464 308.38 168.828 323.613 179.891C338.838 190.954 350.588 166.531 349.855 125.335ZM345.212 135.997C345.106 137.474 344.976 138.912 344.827 140.308C344.686 141.617 344.53 142.887 344.35 144.123C344.282 144.607 344.209 145.088 344.133 145.561C344.011 146.336 343.881 147.095 343.744 147.839C343.671 148.239 343.595 148.632 343.519 149.025C343.378 149.735 343.229 150.425 343.076 151.104C343.042 151.26 343.004 151.417 342.969 151.573C342.84 152.13 342.706 152.676 342.565 153.21C342.523 153.378 342.477 153.542 342.431 153.71C342.004 155.293 341.543 156.777 341.039 158.158C340.967 158.356 340.894 158.547 340.822 158.741C340.467 159.684 340.093 160.572 339.7 161.412C339.322 162.217 338.933 162.976 338.529 163.681C338.071 164.479 337.594 165.215 337.102 165.879C336.839 166.234 336.568 166.569 336.29 166.886C336.255 166.928 336.217 166.97 336.183 167.008C335.744 167.504 335.294 167.95 334.836 168.343C334.52 168.614 334.199 168.858 333.871 169.079C333.543 169.301 333.215 169.495 332.875 169.667C332.54 169.839 332.196 169.984 331.853 170.102C331.54 170.212 331.224 170.296 330.903 170.361C330.842 170.373 330.781 170.384 330.72 170.396C330.407 170.453 330.091 170.491 329.77 170.506C329.755 170.506 329.74 170.51 329.724 170.51C327.729 170.594 325.608 169.873 323.399 168.271C315.518 162.545 308.365 146.892 303.864 127.624C303.684 126.865 303.513 126.098 303.345 125.327C303.082 124.122 302.826 122.905 302.582 121.677C302.216 119.83 301.876 117.957 301.56 116.065C301.445 115.378 301.334 114.684 301.228 113.993C300.35 108.336 299.706 102.515 299.336 96.659C299.332 96.5903 299.328 96.5216 299.324 96.453C299.156 93.7673 299.046 91.0779 299 88.3923C298.378 53.6202 308.297 33.0012 321.152 42.3436C322.339 43.2058 323.51 44.2968 324.658 45.5862C324.906 45.8647 325.154 46.1547 325.398 46.4522C336.332 59.7049 345.003 91.3488 345.552 122.214C345.644 127.101 345.521 131.713 345.212 135.997Z" fill="#F7F7F7"/>
<path d="M325.701 101.969C325.632 101.645 325.56 101.321 325.484 101.008C325.442 100.836 325.396 100.665 325.354 100.497C325.266 100.157 325.171 99.8291 325.072 99.5049C325.022 99.3447 324.972 99.1844 324.923 99.028C324.82 98.7152 324.713 98.4139 324.602 98.1201C323.885 96.2165 323.012 94.7669 322.081 94.0878C321.795 93.878 321.516 93.756 321.249 93.7102C319.78 93.4546 318.636 95.5527 318.262 99.0929C318.247 99.2531 318.228 99.4171 318.216 99.585C318.19 99.9169 318.167 100.264 318.152 100.619C318.129 101.153 318.125 101.71 318.132 102.294C318.182 105.006 318.579 107.749 319.208 110.118C319.296 110.457 319.391 110.785 319.491 111.11C319.689 111.754 319.903 112.361 320.128 112.925C320.357 113.49 320.597 114.009 320.852 114.47C320.917 114.585 320.978 114.699 321.043 114.81C321.303 115.245 321.57 115.626 321.848 115.939C322.054 116.176 322.268 116.37 322.481 116.527C323.34 117.148 324.126 117.023 324.766 116.294C324.873 116.172 324.976 116.034 325.075 115.882C325.32 115.497 325.541 115.012 325.728 114.436C325.804 114.207 325.873 113.963 325.934 113.704C326.029 113.318 326.113 112.899 326.182 112.452C326.346 111.411 326.434 110.217 326.434 108.897C326.434 108.71 326.434 108.515 326.43 108.325C326.388 106.15 326.125 103.968 325.701 101.969Z" fill="#6C63FF"/>
<path d="M312.75 28.1144L316.317 27.6757C318.884 27.3591 321.639 28.1831 324.515 30.2736L320.948 30.7123C318.072 28.6218 315.317 27.7978 312.75 28.1144Z" fill="#DBDBDB"/>
<path d="M321.611 67.8268C329.26 73.3849 335.764 94.6716 336.134 115.367C336.504 136.066 330.599 148.335 322.95 142.776C315.297 137.218 308.793 115.932 308.427 95.2362C308.053 74.537 313.958 62.2686 321.611 67.8268ZM322.721 129.92C327.745 133.571 331.625 125.511 331.381 111.915C331.137 98.3186 326.864 84.3373 321.84 80.6865C316.812 77.0357 312.936 85.0926 313.176 98.6924C313.421 112.285 317.693 126.266 322.721 129.92Z" fill="#6C63FF"/>
<path d="M197.615 46.2082C187.487 36.6292 175.199 33.9398 159.997 34.6531C157.506 34.7714 154.721 35.1872 153.291 36.9077C151.856 38.6282 153.405 41.7716 155.835 41.2871C138.668 33.1654 118.202 30.1135 98.7692 32.7724C96.6214 33.0662 94.283 33.5316 93.0012 35.0155C91.7194 36.4957 92.5701 39.2042 94.7445 39.2271C78.7757 32.6008 49.9853 45.3842 52.8693 46.4905L197.615 46.2082Z" fill="#DCF2FF"/>
</g>
<defs>
<clipPath id="clip0">
<rect width="378" height="276" fill="white"/>
</clipPath>
</defs>
</svg>

