<svg width="40" height="40" viewBox="0 0 40 40" fill="none" xmlns="http://www.w3.org/2000/svg">
<g clip-path="url(#clip0_1_7)">
<path d="M20 23.5652C21.969 23.5652 23.5652 21.969 23.5652 20C23.5652 18.031 21.969 16.4348 20 16.4348C18.031 16.4348 16.4348 18.031 16.4348 20C16.4348 21.969 18.031 23.5652 20 23.5652Z" fill="white"/>
<path d="M20 27.3043C30.5654 27.3043 39.1304 24.0341 39.1304 20C39.1304 15.9659 30.5654 12.6957 20 12.6957C9.43456 12.6957 0.869568 15.9659 0.869568 20C0.869568 24.0341 9.43456 27.3043 20 27.3043Z" stroke="white" stroke-width="1.73913"/>
<path d="M13.6743 23.6522C18.957 32.8021 26.0716 38.5845 29.5652 36.5674C33.0588 34.5504 31.6085 25.4978 26.3258 16.3478C21.043 7.19788 13.9284 1.41552 10.4348 3.43256C6.94117 5.4496 8.39153 14.5022 13.6743 23.6522Z" stroke="white" stroke-width="1.73913"/>
<path d="M13.6743 16.3478C8.39153 25.4978 6.94117 34.5504 10.4348 36.5674C13.9284 38.5845 21.043 32.8021 26.3258 23.6522C31.6085 14.5022 33.0588 5.4496 29.5652 3.43256C26.0716 1.41552 18.957 7.19788 13.6743 16.3478Z" stroke="white" stroke-width="1.73913"/>
</g>
<defs>
<clipPath id="clip0_1_7">
<rect width="40" height="40" fill="white"/>
</clipPath>
</defs>
</svg>
