<svg width="383" height="222" viewBox="0 0 383 222" fill="none" xmlns="http://www.w3.org/2000/svg">
<g clip-path="url(#clip0)">
<path d="M134.983 5.37933H-0.283203V132.106H134.983V5.37933Z" fill="#E1E0E0"/>
<path d="M140.194 10.6691H4.92773V137.396H140.194V10.6691Z" stroke="#E1E0E0" stroke-width="0.755675" stroke-miterlimit="10"/>
<path d="M20.1182 131.804H-0.511719L114.124 5.53049H134.83L20.1182 131.804Z" fill="white"/>
<path d="M134.978 24.1957V29.1076L41.6518 131.955H37.1934L134.978 24.1957Z" fill="white"/>
<path d="M372.645 4.85036H237.379V131.577H372.645V4.85036Z" fill="#E1E0E0"/>
<path d="M377.932 10.1401H242.666V136.867H377.932V10.1401Z" stroke="#E1E0E0" stroke-width="0.755675" stroke-miterlimit="10"/>
<path d="M257.856 131.35H237.227L351.863 5.0015H372.492L257.856 131.35Z" fill="white"/>
<path d="M372.646 23.7422V28.6541L279.32 131.502H274.861L372.646 23.7422Z" fill="white"/>
<path d="M72.5633 199.059C72.5633 198.681 72.5633 198.303 72.4877 197.925C71.8076 197.85 71.052 197.774 70.2963 197.699C69.6917 129.461 69.2383 63.2641 70.5985 18.5281C71.2031 18.6037 71.8832 18.6037 72.4877 18.6792C72.6389 18.3014 72.79 17.848 72.8656 17.4701C78.382 26.7649 84.5785 35.6819 90.4728 43.9188L91.0018 43.5409C85.0319 35.1529 78.6843 26.0093 73.0923 16.5633C73.1678 15.9588 73.2434 15.3543 73.1678 14.7497C72.4122 14.523 71.5809 14.2963 70.7497 14.0696C70.9008 9.00657 71.1275 4.24582 71.3542 -0.212662H63.7219C64.2509 3.86798 64.7043 8.32647 65.1577 13.0117C64.7043 13.0117 64.2509 12.9361 63.7975 12.9361C63.5708 13.994 63.4196 15.052 63.2685 16.1099L46.5681 35.2285L47.097 35.6819L63.1929 17.2434C63.1929 17.6968 63.1174 18.1502 63.1174 18.6036C63.9486 18.6036 64.7798 18.5281 65.6111 18.5281C68.9361 62.8862 67.8781 129.386 66.9713 197.623C66.0645 197.623 65.0821 197.623 64.1753 197.623C64.0997 198.152 64.0997 198.681 64.0997 199.21C55.4095 207.598 44.7544 214.097 33.3438 217.951C37.5755 218.102 41.9584 218.102 46.1902 217.875C45.7368 217.648 45.5101 217.12 45.6613 216.666C45.8124 216.213 46.2658 215.835 46.5681 215.533C52.2356 210.621 58.2055 206.011 64.2509 201.628C64.402 202.308 64.5531 202.988 64.7043 203.593C65.6111 203.669 66.5179 203.669 67.4247 203.669C67.3491 209.865 67.5758 217.044 65.1577 218.026C67.5003 218.253 69.6162 218.253 71.9588 217.951C69.994 216.515 69.465 209.638 69.0872 203.669C69.994 203.593 70.9008 203.593 71.8832 203.517C72.0343 202.913 72.1855 202.308 72.261 201.704C78.382 206.087 84.2763 210.696 89.9438 215.608C90.3217 215.91 90.6995 216.288 90.8506 216.742C91.0018 217.195 90.7751 217.724 90.3217 217.951C94.5535 218.177 98.9364 218.177 103.168 218.026C91.9086 213.946 81.2536 207.522 72.5633 199.059Z" fill="#004970"/>
<path d="M25.4824 39.0069L38.0266 161.88L107.927 160.897L110.723 54.0448C82.9137 47.017 54.5004 42.1051 25.4824 39.0069Z" fill="#DCEEFF"/>
<path d="M114.049 49.0574C115.031 49.7375 112.16 54.1204 110.724 54.1204C82.3107 49.5863 53.8974 43.6165 25.484 39.0824C24.1238 39.2336 23.2169 31.9035 24.5772 31.7524C55.4087 34.624 85.7868 40.216 114.049 49.0574ZM41.8821 171.93C63.3433 166.867 85.3335 164.147 107.324 163.693C108.306 163.693 108.759 161.048 107.928 160.822C84.7289 157.723 61.1518 158.101 38.0282 161.804C35.4589 162.862 39.3128 172.913 41.8821 171.93Z" fill="#004970"/>
<path d="M100.606 156.212C90.4044 154.55 80.3539 153.718 70.3034 153.643C65.316 153.643 60.3285 153.794 55.4166 154.096L51.7138 154.398L48.011 154.776L44.3082 155.23L40.3031 155.759C39.7742 151.074 39.3208 146.388 38.7918 141.703C38.3384 137.094 37.885 132.559 37.4316 127.95C36.5248 118.806 35.6935 109.662 34.7867 100.443C33.0487 82.0804 31.235 63.4907 29.1191 44.3722C31.5373 63.4907 33.5776 82.0804 35.4668 100.443C37.2804 118.731 39.0941 136.791 40.9077 154.927L44.2326 154.474L47.9355 154.096L51.6383 153.794L55.3411 153.567C60.3285 153.265 65.316 153.189 70.3034 153.265C80.4295 153.416 90.48 154.398 100.606 156.212Z" fill="#2A94F4"/>
<path d="M104.536 48.075C91.7646 44.9767 79.4471 42.483 67.054 40.4427C54.661 38.3268 42.2679 36.6643 29.1191 35.3796C42.3435 36.1353 54.8877 37.6467 67.2807 39.687C79.7494 41.8029 91.9913 44.5233 104.536 48.075Z" fill="#01384F"/>
<path d="M102.79 161.804C92.0596 161.426 81.858 160.973 71.6564 161.275C61.4548 161.577 51.2531 162.56 40.9004 165.356C51.1776 162.031 61.5303 160.822 71.7319 160.519C82.0091 160.217 92.2107 160.897 102.79 161.804Z" fill="#01384F"/>
<path d="M102.55 214.55L103.834 193.618L112.902 196.641L109.955 218.026L102.172 215.306L102.55 214.55Z" fill="#FACBB6"/>
<path d="M111.693 214.097C111.693 214.097 104.665 215.835 102.172 210.923L84.791 216.968L112.751 221.2L111.693 214.097Z" fill="#01384F"/>
<path d="M84.4102 219.387L112.446 223.618L112.748 221.2L84.788 216.968L84.4102 219.387Z" fill="white"/>
<path d="M123.484 116.312L123.03 117.673C118.421 125.305 114.113 134.827 111.166 143.366L103.383 165.809C102.552 168.152 102.023 170.57 101.872 172.988L99 206.087L114.491 207.22L118.421 173.895L136.708 138.378L135.726 117.597L123.484 116.312Z" fill="#004970"/>
<path d="M155.223 208.807L144.039 191.275L153.032 188.026L163.158 206.918L155.374 209.638L155.223 208.807Z" fill="#FACBB6"/>
<path d="M162.246 202.686C162.246 202.686 157.636 208.505 152.8 206.087L142.447 221.729L167.233 207.674L162.246 202.686Z" fill="#01384F"/>
<path d="M143.656 223.921L168.442 209.865L167.233 207.674L142.447 221.805L143.656 223.921Z" fill="white"/>
<path d="M128.098 136.036L131.498 169.512C131.649 171.099 132.103 172.61 132.707 174.046L146.612 204.953L160.516 197.094L148.501 169.134L149.03 144.953C149.03 144.953 150.39 122.887 143.287 114.499L129.911 116.69L128.098 136.036Z" fill="#004970"/>
<path d="M96.8157 96.1359L103.39 102.484L100.745 106.791L93.793 99.2342L96.8157 96.1359Z" fill="#FACBB6"/>
<path d="M96.8152 96.1359V88.1258C96.8152 87.7479 96.513 87.3701 96.1351 87.2945C95.6817 87.219 95.2283 87.4457 95.1528 87.8991L94.5482 90.0905L89.4096 84.4985C88.9562 84.0451 88.2005 84.1207 87.8983 84.7252L86.1602 87.8991C86.0091 88.1258 86.0091 88.5036 86.1602 88.7303C87.067 90.6195 90.7698 97.9496 93.8681 99.3098L96.8152 96.1359Z" fill="#FACBB6"/>
<path d="M126.436 82.9116C126.436 82.9116 128.174 86.8411 119.862 106.867C119.862 106.867 115.328 115.179 113.287 115.481C110.038 115.935 100.97 111.023 94.0176 101.048L99.2317 97.1939L109.433 103.088L115.403 87.5968C115.479 87.5212 118.955 77.244 126.436 82.9116Z" fill="#F6C429"/>
<path d="M134.907 76.1861L148.585 82.2315C149.567 82.6849 150.096 83.6673 150.021 84.7252L146.62 120.318C146.62 120.318 132.867 124.398 120.549 121.904L117.98 85.2542C117.829 84.1963 118.207 83.1383 119.038 82.3826L127.804 76.2617L134.907 76.1861Z" fill="#F6C429"/>
<path d="M134.293 110.947L143.437 110.796L144.646 115.708L134.369 115.33L134.293 110.947Z" fill="#FACBB6"/>
<path d="M134.293 110.947L128.55 105.28C128.247 104.977 127.794 104.977 127.492 105.204C127.114 105.431 126.963 105.96 127.189 106.338L128.323 108.302L123.335 108.907C122.731 108.907 122.202 109.511 122.429 110.116L123.487 113.592C123.562 113.894 123.789 114.121 124.091 114.197C126.056 114.877 131.194 116.539 134.368 115.255L134.293 110.947Z" fill="#FACBB6"/>
<path d="M149.111 82.5338C149.111 82.5338 153.041 84.2718 160.144 103.919C160.144 103.919 162.789 111.476 161.504 112.912C159.388 115.255 148.809 118.957 137.02 116.161L136.869 109.738L149.867 107.773L144.048 92.811C144.048 92.8865 139.816 83.2139 149.111 82.5338Z" fill="#F6C429"/>
<path d="M126.133 62.8862C126.208 64.6243 124.923 66.0601 123.261 66.1356C121.599 66.2112 120.163 64.851 120.087 63.1129C120.012 61.3749 121.296 59.9391 122.959 59.8635C124.621 59.788 126.057 61.1482 126.133 62.8862Z" fill="#FACBB6"/>
<path d="M127.569 70.2919L127.343 75.9594C127.267 78.6043 128.778 80.0401 131.272 80.0401C133.388 80.1156 136.486 78.6043 136.411 76.3373V66.8913L127.569 70.2919Z" fill="#FACBB6"/>
<path d="M127.418 75.2038C127.418 75.2038 134.824 75.0526 136.864 68.2515C137.544 66.1357 127.569 69.4606 127.569 69.4606L127.418 75.2038Z" fill="#EABEAC"/>
<path d="M129.682 72.4833C125.451 72.4078 121.975 68.7805 121.975 65.2288V57.6721C121.975 53.138 125.375 49.4352 129.758 49.2841C134.217 49.0574 138.751 52.6091 138.977 57.2187L138.902 63.113C138.826 68.4027 134.821 72.2566 129.682 72.4833Z" fill="#FACBB6"/>
<path d="M124.319 45.3546C125.981 44.75 130.213 44.1455 130.893 47.8483C135.049 47.6972 141.623 48.075 142.152 51.7022C142.908 56.992 138.903 62.055 138.903 62.055L137.845 62.5084C137.845 62.5084 135.2 60.9971 136.258 54.7249C136.258 54.7249 126.586 56.6141 122.203 53.9693C117.82 51.4 119.331 47.2438 124.319 45.3546Z" fill="#004970"/>
<path d="M142.832 63.1129C142.908 64.851 141.623 66.2868 139.961 66.3623C138.298 66.4379 136.938 65.0777 136.863 63.4152C136.787 61.6772 138.072 60.2414 139.734 60.1658C141.321 60.0147 142.757 61.3749 142.832 63.1129Z" fill="#FACBB6"/>
<path d="M127.721 76.1861L125.454 77.7731C125.454 77.7731 124.094 81.5514 130.517 82.0048C136.941 82.4582 138.83 77.8486 138.83 77.8486L134.296 75.506L127.721 76.1861Z" fill="#FACBB6"/>
<path d="M171.408 138.832V221.427" stroke="#1F120C" stroke-width="1.44213" stroke-miterlimit="10"/>
<path d="M139.686 141.056H203.012V136.522H139.686V141.056Z" fill="#6C63FF"/>
<path d="M157.346 136.262H188.631C189.538 136.262 190.294 135.431 190.294 134.449C190.294 133.466 189.538 132.635 188.631 132.635H157.346C156.439 132.635 155.684 133.466 155.684 134.449C155.684 135.431 156.439 136.262 157.346 136.262Z" fill="#020102"/>
<path d="M157.122 134.978C157.197 134.978 157.273 134.978 157.349 134.902C157.575 134.751 157.651 134.449 157.5 134.146L141.631 106.64C141.479 106.413 141.177 106.338 140.95 106.489C140.724 106.64 140.648 106.942 140.799 107.244L156.669 134.751C156.744 134.902 156.895 134.978 157.122 134.978Z" fill="#020102"/>
<path d="M223.388 150.62L190.441 151.527C184.849 151.754 180.693 157.195 181.448 163.24C182.128 168.227 186.133 172.006 190.743 172.006H229.963C229.963 172.006 244.094 166.565 239.635 153.341L223.388 150.62Z" fill="#ECECEC"/>
<path d="M189.086 215.759L183.57 218.706C182.965 219.009 182.663 219.764 182.814 220.444C182.965 220.973 183.418 221.427 184.628 221.427C187.348 221.502 199.439 219.538 199.439 219.538V220.898L205.031 220.218C205.031 220.218 205.409 213.266 203.746 212.283L189.086 215.759Z" fill="black"/>
<path d="M197.927 208.807L189.01 215.759C189.01 215.759 189.992 218.404 194.148 216.666C198.38 214.928 203.594 212.208 203.594 212.208L202.839 208.051L197.927 208.807Z" fill="#EFBEAB"/>
<path d="M203.745 212.208L198.38 186.061L189.463 186.968L196.944 211.301L203.745 212.208Z" fill="#EFBEAB"/>
<path d="M181.449 163.24L188.93 206.162H205.933L199.359 163.92L181.449 163.24Z" fill="#ECECEC"/>
<path d="M221.801 150.62L196.939 151.527C191.347 151.754 187.191 157.195 187.946 163.24C188.626 168.227 192.631 172.006 197.241 172.006H236.461C236.461 172.006 250.592 166.565 246.133 153.341L221.801 150.62Z" fill="#ECECEC"/>
<path d="M195.574 215.759L190.058 218.706C189.453 219.009 189.151 219.764 189.302 220.445C189.453 220.973 189.907 221.427 191.116 221.427C193.836 221.502 205.927 219.538 205.927 219.538V220.898L211.519 220.218C211.519 220.218 211.897 213.266 210.234 212.283L195.574 215.759Z" fill="black"/>
<path d="M204.487 208.807L195.57 215.759C195.57 215.759 196.553 218.404 200.709 216.666C204.941 214.928 210.155 212.208 210.155 212.208L209.399 208.051L204.487 208.807Z" fill="#FACBB6"/>
<path d="M210.235 212.208L204.87 186.061L195.953 186.968L203.51 211.301L210.235 212.208Z" fill="#FACBB6"/>
<path d="M188.025 163.24L195.431 206.162H212.434L205.859 163.92L188.025 163.24Z" fill="#ECECEC"/>
<path d="M232.007 207.984H237.297V176.246H232.007V207.984Z" fill="#DAD8DE"/>
<path d="M235.94 203.971L251.205 211.452L250.978 213.568L235.033 208.051L235.94 203.971Z" fill="#DAD8DE"/>
<path d="M233.37 203.971L218.105 211.452L218.332 213.568L234.201 208.051L233.37 203.971Z" fill="#DAD8DE"/>
<path d="M250.514 221.276C252.517 221.276 254.141 219.516 254.141 217.346C254.141 215.176 252.517 213.417 250.514 213.417C248.511 213.417 246.887 215.176 246.887 217.346C246.887 219.516 248.511 221.276 250.514 221.276Z" fill="#010102"/>
<path d="M218.098 221.276C220.101 221.276 221.725 219.516 221.725 217.346C221.725 215.176 220.101 213.417 218.098 213.417C216.095 213.417 214.471 215.176 214.471 217.346C214.471 219.516 216.095 221.276 218.098 221.276Z" fill="#010102"/>
<path d="M219.684 178.505H250.44C252.178 178.505 253.538 176.993 253.538 175.18C253.538 173.366 252.178 171.855 250.44 171.855H219.684C217.946 171.855 216.586 173.366 216.586 175.18C216.586 176.993 217.946 178.505 219.684 178.505Z" fill="#6C63FF"/>
<path d="M223.615 112.156L210.542 131.275C208.578 134.146 208.88 138.076 211.222 140.57C214.018 143.517 218.628 143.139 220.971 139.663L232.684 122.509L223.615 112.156Z" fill="#ECA646"/>
<path d="M199.284 121.904C199.284 121.904 196.942 117.144 192.937 116.01C189.838 115.179 187.269 120.242 186.287 122.509C186.06 123.038 186.287 123.718 186.816 123.869C187.118 123.945 187.42 123.794 187.647 123.567L188.705 121.98C188.705 121.98 188.478 125.381 191.199 125.078C193.919 124.776 194.75 123.643 194.75 123.643L197.773 125.91L199.284 121.904Z" fill="#FACBB6"/>
<path d="M218.024 131.577L198.981 117.673L193.918 125.91L213.566 142.308L218.024 131.577Z" fill="#2A94F4"/>
<path d="M223.085 108C223.085 108 231.624 111.627 237.745 124.474C243.866 137.32 246.208 153.265 246.208 153.265C246.208 153.265 234.873 156.666 221.8 150.545L217.191 134.524C217.191 134.524 213.11 129.386 217.191 113.29L223.085 108Z" fill="#2A94F4"/>
<path d="M194.824 127.043C194.824 127.043 191.575 123.038 187.494 123.038C184.32 123.038 182.885 128.63 182.356 131.124C182.205 131.728 182.658 132.257 183.187 132.257C183.489 132.257 183.791 132.03 183.943 131.728L184.698 129.915C184.698 129.915 185.152 133.315 187.721 132.257C190.29 131.199 190.895 129.915 190.895 129.915L194.295 131.275L194.824 127.043Z" fill="#FACBB6"/>
<path d="M214.319 132.786L192.782 124.02L189.684 133.391L212.278 144.348L214.319 132.786Z" fill="#2A94F4"/>
<path d="M221.955 114.272L208.882 133.391C206.917 136.262 207.22 140.192 209.562 142.686C212.358 145.633 216.968 145.255 219.31 141.779L231.023 124.625L221.955 114.272Z" fill="#2A94F4"/>
<path d="M211.986 99.2342L206.243 99.4609C203.144 102.937 204.353 109.663 204.353 109.663L213.724 106.715L211.986 99.2342Z" fill="black"/>
<path d="M211.307 104.146L217.201 113.365L223.095 108L214.48 94.549L211.307 104.146Z" fill="#FACBB6"/>
<path d="M214.479 109.058L214.404 102.786L211.91 105.128L214.479 109.058Z" fill="#EFBEAA"/>
<path d="M203.747 85.4053C203.747 85.4053 199.817 87.4457 201.102 93.1132C201.102 93.1132 202.084 97.1939 203.52 103.088C204.276 106.186 207.525 107.849 210.094 106.338C211.681 105.431 213.344 104.071 214.704 102.106L216.442 98.9319C220.22 90.4684 212.286 81.3247 204.351 85.1031C204.124 85.2542 203.973 85.3298 203.747 85.4053Z" fill="#FACBB6"/>
<path d="M203.146 98.7808L201.786 101.275C201.634 101.652 201.861 102.03 202.239 101.955L204.128 101.577L203.146 98.7808Z" fill="#FACBB6"/>
<path d="M211.91 93.7178C211.91 93.7178 210.701 79.4355 201.406 88.2769C201.406 88.2769 203.598 79.5866 214.328 81.0224C216.595 81.3247 219.316 83.2894 220.298 85.5565C221.885 89.1081 220.827 92.8865 219.316 99.7632L214.479 96.3626C214.026 95.5314 211.91 93.7178 211.91 93.7178Z" fill="black"/>
<path d="M214.328 88.6547L213.648 94.9269C198.534 94.549 202.993 85.5565 202.993 85.5565C202.993 85.5565 213.194 78.4531 214.328 88.6547Z" fill="black"/>
<path d="M208.057 93.4911L210.853 96.0604L212.288 91.6019L208.057 93.4911Z" fill="black"/>
<path d="M205.184 85.7076C205.184 85.7076 200.65 88.0502 200.952 91.8286C200.952 91.8286 196.116 88.8059 203.37 84.6497C207.678 82.2315 205.184 85.7076 205.184 85.7076Z" fill="black"/>
<path d="M213.57 96.6649C213.57 96.6649 216.291 103.164 216.291 105.809L227.701 101.501C227.701 101.501 224.376 97.7229 223.319 94.3979C222.487 91.753 222.109 85.1786 217.122 82.2315L217.349 90.9218L213.57 96.6649Z" fill="black"/>
<path d="M216.217 94.3979C216.746 95.9848 216.066 97.7984 214.554 98.403C213.119 99.0075 211.456 98.1763 210.852 96.5893C210.323 95.0024 211.003 93.1888 212.514 92.5843C214.025 91.9797 215.688 92.811 216.217 94.3979Z" fill="#FACBB6"/>
<path d="M223.094 108C223.094 108 221.281 113.743 216.596 115.935L217.956 109.511L223.094 108Z" fill="#FACBB6"/>
<path d="M233.6 79.36L238.587 82.2315L238.209 85.1786L242.139 88.7303L236.925 94.7002L224.834 86.4633C224.834 86.4633 228.083 76.1861 228.839 76.4128C229.595 76.7907 233.6 79.36 233.6 79.36Z" fill="#F6B69A"/>
<path d="M226.422 76.4884L228.538 91.753L237.001 91.9797L239.042 76.4884H226.422Z" fill="#CDEAFB"/>
<path d="M224.605 76.7151H240.55V75.2037H239.039V72.8611L226.117 74.5992L226.041 75.4304H224.605V76.8662" fill="#2A94F4"/>
<path d="M225.741 86.8411C222.793 87.0678 226.496 79.8134 226.496 79.8134C226.496 79.8134 234.431 79.3599 234.506 79.7378C234.582 80.1156 234.582 80.7957 233.902 80.9469C233.297 81.098 228.31 81.7025 228.31 81.7025C228.31 81.7025 233.448 81.9292 233.373 82.4582C233.222 83.2139 232.617 83.2895 231.106 83.5162C229.821 83.6673 226.95 83.7429 226.95 83.7429C226.95 83.7429 232.391 83.8184 232.315 84.1963C232.164 84.4985 232.542 85.5565 230.652 85.2542C226.345 84.6497 225.741 86.8411 225.741 86.8411Z" fill="#FACBB6"/>
<path d="M238.51 80.569C238.51 80.569 240.399 77.0929 242.742 77.244C242.742 77.244 239.946 80.3423 239.568 82.4582C239.19 84.5741 239.039 86.0099 239.039 86.0099H237.83L238.51 80.569Z" fill="#F6B69A"/>
<path d="M261.483 116.237C261.483 116.237 253.397 167.85 257.176 178.807C260.954 189.764 262.39 199.663 262.39 199.663L281.13 194.676C281.13 194.676 274.934 168.832 274.027 163.92C273.12 158.933 282.717 118.655 282.717 118.655L261.483 116.237Z" fill="#004970"/>
<path d="M270.326 119.94L279.168 202.913H297.077C297.077 202.913 291.258 115.103 292.316 114.348C293.374 113.668 270.326 119.94 270.326 119.94Z" fill="#004970"/>
<path d="M263.22 69.385C263.22 69.385 261.331 97.1939 257.174 96.2115C253.018 95.2291 241.985 87.9747 241.985 87.9747L235.26 94.6246C235.26 94.6246 255.739 115.255 264.127 106.791C272.666 98.403 263.22 69.385 263.22 69.385Z" fill="#7EC5A7"/>
<path d="M268.812 216.742L267.603 211.15L280.676 206.389L282.717 214.701L281.961 214.777C279.014 215.986 264.807 221.956 262.54 222.183C260.046 222.409 268.812 216.742 268.812 216.742Z" fill="#01384F"/>
<path d="M299.872 135.129L298.437 137.018C298.437 137.018 297.757 138.303 296.094 140.192C295.641 140.721 295.112 141.099 294.507 141.476C293.751 141.854 292.769 142.383 292.165 142.534C291.409 142.686 291.182 143.592 291.862 143.895C292.542 144.197 294.734 143.743 296.774 142.383C298.815 140.947 297.908 144.575 297.53 145.859C297.228 147.144 296.396 151.225 296.774 151.678C297.303 152.283 298.134 151.905 298.437 150.545C298.739 149.184 299.872 145.33 300.628 145.557C301.384 145.708 299.646 152.358 299.646 152.358C299.646 152.358 299.041 153.718 299.872 153.945C301.459 154.398 302.744 147.22 302.82 146.539C302.895 146.086 303.726 146.237 303.575 146.766C303.5 147.295 301.686 153.341 303.273 153.794C304.482 154.172 304.407 147.9 305.54 146.842C306.674 145.784 305.087 151.603 306.22 151.905C306.674 151.98 306.976 152.056 307.429 148.58C307.807 145.028 307.203 135.28 307.203 135.28L299.721 135.356" fill="#FACBB6"/>
<path d="M273.871 60.0147C274.022 58.8812 273.418 54.2715 273.418 54.2715C273.418 54.2715 268.732 53.9693 268.279 49.7375C267.826 45.5057 267.75 35.8331 267.75 35.8331L276.138 31.828L285.735 38.0245L287.927 42.6341L285.055 53.5914V59.1079L273.871 60.0147Z" fill="#F6B69A"/>
<path d="M273.42 54.2715C273.42 54.2715 276.518 54.196 279.541 52.2312C279.541 52.2312 278.256 55.3295 273.571 55.3295L273.42 54.2715Z" fill="#F19180"/>
<path d="M287.78 47.2438C286.495 49.813 285.739 53.5158 285.739 53.5158C285.059 54.6494 284.833 51.0221 284.833 51.0221C284.833 51.0221 284.228 47.4705 284.757 46.1102C284.757 46.1102 287.1 46.7903 287.629 42.9364C287.855 41.0472 284.757 40.1404 283.85 42.4074L281.886 42.5586C281.886 42.5586 281.734 35.3797 277.2 36.6643C277.2 36.6643 273.875 38.4779 271.911 37.3444C269.946 36.2109 270.097 35.8331 270.097 35.8331C270.097 35.8331 269.115 37.7222 266.621 36.5132C264.052 35.3041 263.749 33.037 264.656 31.9791C265.185 31.3746 265.639 30.6945 266.47 30.5433C267.301 30.3922 268.208 30.6945 268.737 31.299C268.132 30.4678 268.586 29.2587 269.492 28.6541C270.399 28.1252 271.684 28.1252 272.666 28.503C273.649 28.8808 274.555 29.4854 275.387 30.1655C275.991 28.6541 277.729 27.5962 279.543 27.7473C281.281 27.8985 282.868 29.1831 283.17 30.77C284.153 29.7121 285.966 29.4854 287.326 30.0144C288.687 30.5433 289.593 31.9035 289.896 33.2638C290.122 34.624 289.82 36.0598 289.291 37.3444C290.349 36.8154 291.86 37.1933 292.541 38.1001C293.221 39.0069 293.296 40.2915 292.767 41.2739C292.238 42.2563 291.256 43.012 290.198 43.5409C291.029 44.1455 291.256 45.279 290.727 46.1102C290.198 46.9415 289.064 47.3949 288.082 47.0926" fill="#01384F"/>
<path d="M284.455 44.6744C284.455 44.6744 284.531 44.75 284.606 44.75C284.682 44.8256 284.908 44.8256 285.135 44.8256C285.589 44.6744 285.966 44.1455 286.042 43.4654C286.042 43.1631 286.042 42.8608 285.891 42.5585C285.815 42.2563 285.589 42.1051 285.437 42.0296C285.211 41.954 285.06 42.1051 284.984 42.1807C284.908 42.2563 284.908 42.3319 284.908 42.3319C284.908 42.3319 284.833 42.2563 284.833 42.1051C284.833 42.0296 284.908 41.954 284.984 41.8784C285.06 41.8029 285.211 41.8029 285.362 41.8029C285.664 41.8029 285.891 42.1051 286.042 42.4074C286.193 42.7097 286.269 43.0875 286.193 43.3898C286.118 44.1455 285.664 44.75 285.06 44.9011C284.757 44.9767 284.531 44.8256 284.455 44.75C284.455 44.75 284.455 44.6744 284.455 44.6744Z" fill="#F19180"/>
<path d="M303.88 71.0475C303.88 71.0475 300.706 57.6721 285.139 59.0323C270.932 60.3169 270.932 60.3169 270.932 60.3169C270.932 60.3169 261.184 64.0197 262.544 74.5992C263.904 85.1031 264.585 94.7757 264.207 96.5893C263.829 98.4785 260.428 115.028 261.486 116.161C271.764 127.421 297.91 109.436 297.91 109.436L303.88 71.0475Z" fill="#EDE9E6"/>
<path d="M285.133 59.1078L288.76 137.471L299.566 132.182L298.433 62.6595C298.357 62.6595 295.486 58.1255 285.133 59.1078Z" fill="#7EC5A7"/>
<path d="M307.58 136.565L303.877 71.1231C302.744 67.118 300.25 64.0197 297.076 61.4504V137.471L307.58 136.565Z" fill="#7EC5A7"/>
<path d="M273.874 60.0147C273.874 60.0147 264.201 64.3976 264.654 79.0577C265.108 93.7933 258.836 135.355 258.836 135.355L250.75 133.844C250.75 133.844 260.12 94.4734 260.498 87.5212C260.876 80.4934 260.196 70.5185 265.486 63.6419C269.188 58.8056 273.874 60.0147 273.874 60.0147Z" fill="#7EC5A7"/>
<path d="M285.133 59.1078C285.133 59.1078 288.307 65.5311 288.004 67.9492C287.702 70.2918 286.569 75.2793 286.569 75.2793C286.569 75.2793 288.911 76.5639 288.76 77.6975C288.609 78.831 286.342 90.1661 286.342 90.1661L285.133 59.1078Z" fill="#1E3058"/>
<path d="M295.354 75.0526C295.429 75.0526 295.505 75.8838 295.656 77.4707C295.807 79.0577 295.958 81.3247 296.034 84.1207C296.26 89.7882 296.487 97.5717 296.638 106.186C296.789 114.801 296.865 122.585 297.016 128.252C297.092 131.048 297.092 133.315 297.167 134.902C297.243 136.489 297.167 137.32 297.167 137.32C297.092 137.32 297.016 136.489 296.865 134.902C296.714 133.315 296.563 131.048 296.487 128.252C296.26 122.585 296.034 114.801 295.883 106.186C295.731 97.5717 295.656 89.7882 295.505 84.1207C295.429 81.3247 295.429 79.0577 295.354 77.4707C295.278 75.9594 295.278 75.0526 295.354 75.0526Z" fill="#1E3058"/>
<path d="M268.66 210.772C268.811 210.696 265.41 198.908 265.41 198.908L276.896 195.885L279.315 206.994L268.66 210.772Z" fill="#F6B69A"/>
<path d="M295.112 202.913H282.039V212.208H295.112V202.913Z" fill="#F6B69A"/>
<path d="M280.827 217.195L282.036 211.603H296.092L294.58 219.84H293.825C290.575 219.991 274.933 220.747 272.741 220.142C270.399 219.538 280.827 217.195 280.827 217.195Z" fill="#01384F"/>
<path d="M361.456 45.3546C362.438 48.5284 363.42 51.7778 364.403 54.9517C364.554 55.4051 364.705 55.8585 364.63 56.3119C364.63 57.6721 363.269 58.73 361.909 58.9567C360.549 59.1834 359.113 58.8812 357.753 58.5033C357.375 59.8635 355.713 60.4681 354.277 60.6948C347.854 61.9039 341.052 61.0726 335.158 58.3522C337.727 54.8005 339.768 50.9466 341.355 46.9415C346.418 47.1682 351.405 47.3949 356.468 47.6216C357.375 47.6972 358.282 47.6972 359.113 47.3949C359.944 47.0926 360.7 46.4125 360.776 45.5057" fill="#01384F"/>
<path d="M302.886 87.5968L301.375 85.9343C301.375 85.9343 300.317 85.1031 298.806 83.2139C298.428 82.7605 298.126 82.156 297.899 81.5514C297.672 80.8713 297.37 79.8889 297.37 79.2844C297.37 78.6043 296.539 78.2264 296.085 78.7554C295.707 79.2844 295.556 81.1736 296.463 83.2895C297.37 85.4054 294.121 83.7429 292.911 83.1384C291.702 82.5338 287.924 80.9469 287.395 81.098C286.715 81.4003 286.942 82.2315 288.151 82.7605C289.36 83.2895 292.911 85.2542 292.534 85.8588C292.156 86.4633 286.11 83.365 286.11 83.365C286.11 83.365 284.901 82.5338 284.523 83.2139C283.768 84.423 290.493 87.219 291.098 87.5213C291.551 87.6724 291.173 88.3525 290.72 88.1258C290.267 87.8991 284.75 84.952 283.919 86.1611C283.314 87.1434 289.435 88.5036 290.191 89.7127C290.947 90.9218 285.657 88.2014 285.128 89.1082C284.901 89.486 284.826 89.7127 288.075 90.9218C291.476 92.1309 301.073 93.8689 301.073 93.8689L302.66 87.4457" fill="#F19180"/>
<path d="M330.167 72.4833C330.167 72.4833 324.651 87.8991 322.988 88.0502C311.426 89.1082 298.807 84.1963 298.807 84.1963L295.633 92.8865C295.633 92.8865 328.505 107.093 335.532 93.4155C343.014 78.831 342.636 76.5639 342.636 76.5639L330.167 72.4833Z" fill="#FACBB6"/>
<path d="M330.924 159.613C336.818 185.759 375.509 210.167 375.509 210.167L382.083 202.308C382.083 202.308 350.949 175.406 349.665 163.467C348.304 151.527 358.657 132.786 358.657 132.786L347.927 128.403L330.924 159.613Z" fill="#2A94F4"/>
<path d="M344.001 64.1709C344.227 63.1129 343.774 58.5789 343.774 58.5789C343.774 58.5789 339.542 58.1255 339.24 54.0448C338.938 49.9642 339.24 40.5182 339.24 40.5182L347.023 36.8154L355.562 43.0876L354.278 63.5663L344.001 64.1709Z" fill="#F6B69A"/>
<path d="M354.886 46.2614C354.886 46.2614 347.934 45.6568 346.725 39.5359L339.168 46.2614C339.168 46.2614 336.901 41.7273 341.057 37.4955C345.213 33.2638 348.085 34.1706 349.747 34.1706C351.259 34.1706 359.042 35.7575 361.309 44.2966C361.46 44.9012 361.611 46.4125 361.687 47.1682L354.886 46.2614Z" fill="#01384F"/>
<path d="M343.773 58.5789C343.773 58.5789 346.645 58.5789 349.365 56.7653C349.365 56.7653 348.081 59.788 343.849 59.6368L343.773 58.5789Z" fill="#F19180"/>
<path d="M335.008 110.343C335.008 111.778 335.537 113.819 335.537 113.819L365.462 122.207C365.462 122.207 367.577 109.058 362.137 101.803C359.643 98.4785 360.172 93.7178 361.23 89.7127L364.781 75.9594L360.096 63.0374L341.204 64.2464C341.204 64.2464 330.247 63.1885 326.469 77.1685L333.497 87.3701L333.572 91.224L335.008 110.343Z" fill="#6C63FF"/>
<path d="M364.251 105.204C364.553 105.204 369.994 116.993 365.082 124.02C364.629 124.7 363.495 126.287 361.984 128.554C354.729 139.361 338.18 164.751 337.575 168.454C336.895 172.913 323.52 220.293 323.52 220.293L313.545 218.782L321.706 165.129L335.006 110.418L364.251 105.204Z" fill="#2A94F4"/>
<path d="M346.945 39.0069C346.945 39.0069 345.433 41.8785 346.038 44.0699L339.237 45.7324C339.237 45.808 337.725 37.4955 346.945 39.0069Z" fill="#01384F"/>
<path d="M361.755 46.5636C361.755 46.5636 362.586 56.0096 354.35 57.6721L354.879 46.3369L361.755 46.5636Z" fill="#01384F"/>
<path opacity="0.34" d="M343.622 87.219L319.063 55.6317L272.967 75.8083L291.556 93.0377L312.564 96.3626L343.622 87.219Z" fill="url(#paint0_linear)"/>
<path d="M330.7 90.3928L313.849 97.2694L286.342 97.874L272.967 75.8083L301.305 73.9947L313.547 95.3047L330.625 88.8815L330.7 90.3928Z" fill="#A9CCEA"/>
<path d="M327.677 74.2213L322.992 85.4054L333.572 90.5439L334.554 80.7202L327.677 74.2213Z" fill="#6C63FF"/>
<path d="M356.924 63.1129L355.111 61.0726L347.479 62.9618L348.385 65.1533L356.924 63.1129Z" fill="#F9B751"/>
<path d="M348.38 65.1532L345.357 70.8964L345.281 65.1532L345.584 63.4152H347.624L348.38 65.1532Z" fill="#F6B69A"/>
<path d="M345.283 65.1533L345.661 62.9618L343.772 62.2061L341.58 64.1709L345.283 65.1533Z" fill="#F9B751"/>
<path d="M333.499 90.6951C333.499 90.6951 333.65 90.4684 333.65 89.9394C333.65 89.4104 333.348 88.7303 332.743 88.0502C332.214 87.3701 331.308 86.69 331.156 85.6321C331.081 85.1031 331.081 84.5741 331.308 83.9696C331.534 83.4406 331.912 82.9116 332.365 82.6094C332.819 82.3071 333.423 82.0804 333.952 82.0804H334.104V81.9293C334.406 79.8134 334.784 77.8486 334.935 76.4884C335.086 75.1282 334.935 74.2969 334.859 74.2969C334.784 74.2969 334.784 75.1282 334.632 76.4884C334.481 77.8486 334.028 79.7378 333.65 81.9293L333.877 81.7026C333.272 81.7026 332.592 81.9293 332.063 82.3071C331.459 82.6849 331.005 83.2895 330.779 83.894C330.552 84.4986 330.552 85.1787 330.703 85.7832C330.854 86.3877 331.156 86.9167 331.459 87.2946C331.837 87.6724 332.139 88.0502 332.441 88.3525C333.046 88.957 333.348 89.5616 333.423 90.015C333.575 90.3928 333.423 90.6951 333.499 90.6951Z" fill="#F9B751"/>
<path d="M333.499 75.8838C333.423 75.9594 333.65 76.4884 333.952 77.0929C334.255 77.6975 334.406 78.302 334.557 78.302C334.708 78.302 334.708 77.6219 334.406 76.9418C334.104 76.2617 333.575 75.8083 333.499 75.8838Z" fill="#F9B751"/>
<path d="M322.615 85.4053C322.539 85.4809 324.958 86.8411 328.056 88.2013C331.154 89.5615 333.723 90.4684 333.723 90.3928C333.799 90.2417 331.305 89.1837 328.207 87.8235C325.184 86.4633 322.691 85.3298 322.615 85.4053Z" fill="#F9B751"/>
<path d="M323.225 83.8185C323.149 83.894 325.34 85.1787 328.061 86.5389C330.781 87.9747 333.048 88.9571 333.124 88.8815C333.199 88.8059 331.008 87.5213 328.288 86.1611C325.567 84.7253 323.3 83.7429 323.225 83.8185Z" fill="#F9B751"/>
<path d="M337.43 76.2617C337.43 76.4128 338.034 76.4884 338.865 76.5639C339.697 76.6395 340.301 76.564 340.301 76.4128C340.301 76.2617 339.697 76.1861 338.865 76.1105C338.11 76.1105 337.43 76.1105 337.43 76.2617Z" fill="#F9B751"/>
<path d="M337.201 76.7907C337.201 76.9418 337.881 77.1685 338.864 77.3952C339.77 77.6219 340.602 77.6975 340.602 77.6219C340.602 77.4708 339.922 77.2441 338.939 77.0174C337.957 76.7151 337.201 76.6395 337.201 76.7907Z" fill="#F9B751"/>
<path d="M312.637 218.706C312.637 218.706 303.871 220.974 306.063 221.654C308.254 222.258 323.443 220.671 323.443 220.671L323.972 219.009L312.637 218.706Z" fill="#01384F"/>
<path d="M323.443 220.671L326.466 212.51H313.09L312.637 218.706L323.443 220.671Z" fill="#01384F"/>
<path d="M375.587 210.696C375.587 210.696 373.396 219.235 374.983 217.649C376.645 216.137 382.615 202.459 382.615 202.459L381.331 201.25L375.587 210.696Z" fill="#01384F"/>
<path d="M382.616 202.459L376.798 195.961L370.299 207.296L375.589 210.696L382.616 202.459Z" fill="#01384F"/>
<path d="M346.347 36.362C346.347 36.2865 345.515 36.2865 344.231 36.5887C342.946 36.891 341.284 37.7222 339.923 39.158C338.563 40.5938 337.883 42.2563 337.581 43.5409C337.354 44.75 337.43 45.5813 337.505 45.5813C337.581 45.5813 337.581 44.8256 337.959 43.6165C338.261 42.4074 339.017 40.8205 340.301 39.4603C341.586 38.1001 343.173 37.2688 344.382 36.891C345.515 36.5132 346.347 36.4376 346.347 36.362Z" fill="#01384F"/>
<path d="M290.042 86.3877C290.419 87.3701 291.326 87.9747 292.082 87.748C292.838 87.5213 293.14 86.4633 292.762 85.4809C292.384 84.4986 291.477 83.894 290.722 84.1207C289.966 84.423 289.664 85.4054 290.042 86.3877Z" fill="#F3EFEA"/>
<path d="M351.251 110.872C351.251 110.872 350.873 73.0879 352.233 70.2163C352.233 70.2163 353.669 63.1129 359.261 62.9618L356.767 63.113C356.767 63.113 351.704 62.7351 350.193 72.4833C348.757 82.156 348.833 111.174 348.833 111.174L351.251 110.872Z" fill="#01384F"/>
<path d="M340.372 112.232C340.372 112.232 338.861 68.7805 340.07 64.2465H338.559C338.559 64.2465 337.199 67.9493 337.501 78.3776C337.652 84.6497 337.501 112.232 337.501 112.232H340.372Z" fill="#01384F"/>
<path d="M322.471 92.8866C322.471 92.8866 315.141 97.4206 313.554 97.345C311.967 97.345 307.357 97.1939 307.811 97.7984C308.264 98.403 313.554 99.2342 313.554 99.2342L322.471 92.8866Z" fill="#F6B69A"/>
<path d="M323.072 102.408C323.072 102.408 357.833 111.476 362.593 96.8161C367.656 81.3247 367.732 85.3298 367.732 85.3298L356.85 75.1282C356.85 75.1282 351.032 93.0377 349.369 93.4155C340.225 95.6826 329.873 94.2468 326.245 93.5667C325.868 93.2644 325.339 92.811 324.81 92.3576C324.356 91.9042 323.978 91.4508 323.676 90.8462C323.298 90.1661 322.92 89.2593 322.845 88.7303C322.769 88.0502 321.787 87.8235 321.485 88.3525C321.182 88.8815 321.409 90.8462 322.618 92.811C322.618 92.811 314.381 97.9496 313.701 99.2342L323.072 102.408Z" fill="#F6B69A"/>
<path d="M360.102 62.9618C360.102 62.9618 368.036 64.3976 368.339 76.564C368.641 88.6548 363.578 97.874 363.578 97.874L350.127 91.0729L360.102 62.9618Z" fill="#6C63FF"/>
<path d="M350.209 91.1485C350.209 91.2241 350.965 91.5263 352.249 92.1309C353.534 92.6598 355.196 93.4911 357.086 94.3979C358.975 95.3803 360.637 96.2871 361.771 96.9672C362.98 97.6473 363.736 98.1007 363.736 98.0251C363.736 97.9496 363.131 97.4206 361.922 96.7405C360.788 95.9848 359.126 95.0024 357.237 94.0956C355.348 93.1133 353.61 92.3576 352.325 91.9042C351.04 91.2996 350.209 91.0729 350.209 91.1485Z" fill="#F9B751"/>
<path d="M350.732 90.2417C350.732 90.3173 351.488 90.6195 352.773 91.0729C354.057 91.5263 355.795 92.282 357.609 93.1133C359.498 94.0201 361.085 94.8513 362.294 95.5314C363.503 96.2115 364.183 96.5894 364.259 96.5138C364.259 96.4382 363.654 95.9848 362.521 95.2292C361.387 94.4735 359.725 93.5667 357.911 92.6599C356.022 91.7531 354.284 91.1485 352.999 90.6951C351.564 90.3928 350.732 90.1661 350.732 90.2417Z" fill="#F9B751"/>
<path d="M354.587 77.2441C354.738 77.2441 354.965 76.2617 354.814 74.977C354.738 73.6924 354.285 72.71 354.209 72.7856C354.058 72.7856 354.285 73.8435 354.36 75.0526C354.511 76.1861 354.436 77.2441 354.587 77.2441Z" fill="#F9B751"/>
<path d="M350.202 91.0729C350.277 91.0729 350.806 90.1661 351.486 88.6548C352.242 87.1434 353.073 84.9519 353.829 82.5338C354.585 80.0401 355.038 77.773 355.265 76.1105C355.491 74.4481 355.567 73.3901 355.491 73.3901C355.416 73.3901 355.265 74.3725 354.887 76.035C354.585 77.6975 354.056 79.8889 353.3 82.3827C352.544 84.8008 351.713 86.9923 351.108 88.5036C350.579 90.0906 350.126 90.9974 350.202 91.0729Z" fill="#F9B751"/>
</g>
<defs>
<linearGradient id="paint0_linear" x1="292.429" y1="87.4227" x2="327.128" y2="73.1599" gradientUnits="userSpaceOnUse">
<stop stop-color="white"/>
<stop offset="0.2316" stop-color="white" stop-opacity="0.7684"/>
<stop offset="1" stop-color="white" stop-opacity="0"/>
</linearGradient>
<clipPath id="clip0">
<rect width="382.982" height="222" fill="white"/>
</clipPath>
</defs>
</svg>
