<svg width="361" height="312" viewBox="0 0 361 312" fill="none" xmlns="http://www.w3.org/2000/svg">
<g clip-path="url(#clip0)">
<g opacity="0.1">
<g opacity="0.1">
<path opacity="0.1" d="M16.1182 211.886C15.9026 210.747 15.5639 209.638 15.102 208.592C14.8249 207.945 14.9173 207.206 15.3792 206.652L17.2575 204.342L14.4246 200.893L11.8072 202.279C11.1913 202.618 10.4215 202.556 9.83645 202.156C8.88187 201.509 7.86571 200.955 6.78796 200.524C6.14131 200.277 5.67942 199.662 5.61784 198.953L5.3407 195.997L0.906534 195.566L0.0443401 198.43C-0.171211 199.107 -0.725487 199.6 -1.43372 199.723C-2.57305 199.939 -3.68159 200.277 -4.72855 200.739C-5.37519 201.016 -6.11423 200.924 -6.6685 200.462L-8.97796 198.584L-12.4267 201.417L-11.0411 204.034C-10.7023 204.65 -10.7639 205.42 -11.1642 206.005C-11.8109 206.959 -12.3652 207.976 -12.7963 209.053C-13.0426 209.7 -13.6585 210.162 -14.3667 210.224L-17.3228 210.501L-17.7539 214.935L-14.8902 215.797C-14.2127 216.013 -13.72 216.567 -13.5969 217.275C-13.3813 218.414 -13.0426 219.523 -12.5807 220.57C-12.3036 221.217 -12.396 221.986 -12.8578 222.51L-14.7362 224.819L-11.9033 228.268L-9.28589 226.882C-8.67003 226.544 -7.9002 226.605 -7.31514 227.006C-6.36056 227.652 -5.3444 228.207 -4.26665 228.638C-3.62 228.884 -3.15812 229.5 -3.09653 230.208L-2.8194 233.164L1.61477 233.595L2.47697 230.732C2.69252 230.054 3.24678 229.561 3.95502 229.438C5.09435 229.223 6.2029 228.884 7.24985 228.422C7.8965 228.145 8.63552 228.237 9.1898 228.699L11.4993 230.578L14.9481 227.745L13.5624 225.127C13.2237 224.511 13.2852 223.742 13.6855 223.157C14.3322 222.202 14.8865 221.186 15.3176 220.108C15.5639 219.461 16.1798 218.999 16.888 218.938L19.8441 218.661L20.2752 214.227L17.4115 213.364C16.7648 213.149 16.2413 212.564 16.1182 211.886ZM0.167509 225.866C-6.05264 225.25 -10.61 219.708 -9.99412 213.488C-9.37826 207.267 -3.83555 202.71 2.38459 203.326C8.60474 203.942 13.1621 209.484 12.5462 215.705C11.9304 221.925 6.38766 226.451 0.167509 225.866Z" fill="#2A94F4"/>
<path opacity="0.1" d="M-6.2378 213.826C-5.8375 209.669 -2.14237 206.651 2.01466 207.052C6.17169 207.452 9.18938 211.147 8.78908 215.304C8.38877 219.461 4.69364 222.479 0.536612 222.078C-3.62042 221.678 -6.63811 217.983 -6.2378 213.826Z" fill="#2A94F4"/>
</g>
</g>
<path opacity="0.1" d="M153.976 312.302C230.93 312.302 293.314 307.256 293.314 301.032C293.314 294.807 230.93 289.761 153.976 289.761C77.0222 289.761 14.6387 294.807 14.6387 301.032C14.6387 307.256 77.0222 312.302 153.976 312.302Z" fill="#2A94F4"/>
<path opacity="0.19" d="M111.727 265.096C111.727 267.713 113.851 269.838 116.469 269.838H286.845C289.463 269.838 291.587 267.713 291.587 265.096V118.399H111.757V265.096H111.727Z" fill="#D0DDEE"/>
<path d="M165.245 204.526C166.046 207.298 167.155 209.977 168.571 212.533C169.433 214.072 169.372 215.981 168.386 217.459L164.26 223.649L172.174 231.562L178.363 227.436C179.841 226.451 181.75 226.389 183.29 227.251C185.815 228.668 188.494 229.776 191.296 230.577C192.99 231.07 194.283 232.455 194.653 234.211L196.1 241.509H207.278L208.756 234.18C209.094 232.455 210.388 231.039 212.112 230.546C214.883 229.746 217.562 228.637 220.118 227.221C221.658 226.358 223.567 226.42 225.045 227.405L231.234 231.532L239.148 223.618L235.022 217.429C234.037 215.951 233.975 214.041 234.837 212.502C236.254 209.977 237.362 207.298 238.163 204.496C238.655 202.802 240.041 201.509 241.796 201.139L249.094 199.692V188.514L241.766 187.036C240.041 186.697 238.625 185.404 238.132 183.68C237.331 180.908 236.223 178.229 234.806 175.674C233.944 174.134 234.006 172.225 234.991 170.747L239.117 164.557L231.204 156.644L225.014 160.77C223.536 161.755 221.627 161.817 220.087 160.955C217.562 159.538 214.883 158.43 212.081 157.629C210.388 157.136 209.094 155.751 208.725 153.995L207.278 146.698H196.1L194.622 154.026C194.283 155.751 192.99 157.167 191.265 157.66C188.494 158.46 185.815 159.569 183.259 160.985C181.72 161.848 179.81 161.786 178.332 160.801L172.143 156.674L164.229 164.588L168.356 170.777C169.341 172.256 169.402 174.165 168.54 175.704C167.124 178.229 166.015 180.908 165.215 183.71C164.722 185.404 163.336 186.697 161.581 187.067L154.283 188.514V199.692L161.612 201.17C163.367 201.509 164.784 202.802 165.245 204.526ZM201.643 165.697C217.316 165.697 230.034 178.414 230.034 194.088C230.034 209.761 217.316 222.479 201.643 222.479C185.969 222.479 173.252 209.761 173.252 194.088C173.252 178.445 185.969 165.727 201.643 165.697Z" fill="#526373"/>
<path d="M111.727 94.7196V108.915H291.557V94.7196C291.557 92.1022 289.432 89.9775 286.814 89.9775H116.438C113.82 89.9775 111.727 92.1022 111.727 94.7196ZM159.055 94.7196H168.508V104.204H159.055V94.7196ZM140.118 94.7196H149.571V104.204H140.118V94.7196ZM121.18 94.7196H130.633V104.204H121.18V94.7196Z" fill="#90CCFF"/>
<path d="M220.578 194.119C220.578 204.557 212.11 213.056 201.641 213.056C191.171 213.056 182.703 204.588 182.703 194.119C182.703 183.68 191.171 175.181 201.641 175.181C212.079 175.181 220.578 183.649 220.578 194.119Z" fill="#404257"/>
<path d="M206.384 9.54653C206.384 6.92915 204.26 4.80444 201.642 4.80444H31.2655C28.6481 4.80444 26.5234 6.92915 26.5234 9.54653V23.742H206.353V9.54653H206.384ZM45.461 18.9999H36.0076V9.54653H45.461V18.9999ZM64.3986 18.9999H54.9452V9.54653H64.3986V18.9999ZM83.3361 18.9999H73.8828V9.54653H83.3361V18.9999Z" fill="#90CCFF"/>
<path opacity="0.19" d="M102.243 94.7196C102.243 86.8674 108.586 80.5241 116.438 80.5241H206.353V33.1956H26.5234V179.892C26.5234 182.51 28.6481 184.635 31.2655 184.635H102.243V94.7196ZM140.118 56.8752H149.571V66.3286H140.118V56.8752ZM121.181 56.8752H130.634V66.3286H121.181V56.8752ZM102.243 56.8752H111.696V66.3286H102.243V56.8752ZM83.3361 170.439H45.461V160.986H83.3361V170.439ZM83.3361 151.501H45.461V142.048H83.3361V151.501ZM83.3361 132.595H45.461V123.141H83.3361V132.595ZM83.3361 113.657H45.461V104.204H83.3361V113.657ZM83.3361 94.7196H45.461V85.2662H83.3361V94.7196ZM83.3361 66.3286V56.8752H92.7895V66.3286H83.3361Z" fill="#D0DDEE"/>
<path d="M139.283 227.714L139.468 222.725L143.009 223.803L143.687 230.023C143.687 230.023 140.299 230.239 139.283 227.714Z" fill="#FCD2B1"/>
<path d="M139.593 227.744C140.424 228.083 141.81 228.391 143.534 227.991L143.319 226.574C143.319 226.574 144.304 227.159 144.551 228.453C144.797 229.715 144.859 229.376 146.46 230.362C148.092 231.347 147.969 233.564 147.969 233.564L135.898 233.256C135.898 233.256 135.559 230.824 137.745 228.237C138.177 227.683 138.946 227.467 139.593 227.744Z" fill="#0E538C"/>
<path d="M120.106 154.396C120.106 154.396 118.536 160.523 120.753 164.373C122.97 168.222 126.973 159.692 126.973 159.692C126.973 159.692 126.265 151.501 120.106 154.396Z" fill="#6C63FF"/>
<path d="M118.991 125.327C118.991 125.327 110.862 136.382 109.507 143.064C108.121 149.746 109.599 164.342 109.599 164.342H112.925C112.925 164.342 114.68 145.712 115.789 143.064C116.897 140.354 124.103 127.852 124.103 127.852L118.991 125.327Z" fill="#FFE3CA"/>
<path d="M148.46 233.01H117.605V236.551H148.46V233.01Z" fill="#D3D3D3"/>
<path d="M144.178 257.46H111.014V261.001H144.178V257.46Z" fill="#D3D3D3"/>
<path d="M141.189 281.109H108.025V284.65H141.189V281.109Z" fill="#D3D3D3"/>
<path d="M104.703 304.634H101.008L128.229 176.598H130.292L104.703 304.634Z" fill="#D3D3D3"/>
<path d="M143.285 304.634H139.59L161.176 172.995L162.992 173.857L143.285 304.634Z" fill="#D3D3D3"/>
<path d="M135.803 304.634L155.664 176.813L128.228 176.598L101.007 304.634H96.7578L124.41 172.995H161.176L140.761 304.634H135.187" fill="#F7F7F7"/>
<path d="M123.336 227.714L123.521 222.725L127.062 223.803L127.739 230.023C127.709 230.023 124.352 230.239 123.336 227.714Z" fill="#FCD2B1"/>
<path d="M158.288 115.166C158.288 115.166 167.063 114.519 168.11 110.455C169.157 106.39 168.973 95.4277 168.973 95.4277H172.021C172.021 95.4277 174.115 105.62 173.992 110.455C173.869 115.289 167.987 123.542 158.288 123.018C148.619 122.495 158.288 115.166 158.288 115.166Z" fill="#FFE3CA"/>
<path d="M129.866 114.643C129.866 114.643 124.785 115.166 122.691 117.383C121.675 118.461 115.362 126.282 115.609 127.976L123.03 132.595L129.096 124.188L129.866 114.643Z" fill="#3E8AF8"/>
<path d="M121.921 152.302C121.921 152.302 119.735 158.769 121.798 165.851C123.861 172.933 123.861 187.221 123.677 190.947C123.492 194.673 120.012 205.45 122.968 224.48H123.677H127.526C127.526 224.48 130.297 204.527 131.898 196.028C133.407 188.052 135.316 168.16 135.316 168.16C135.316 168.16 141.044 187.036 140.089 191.902C139.042 197.26 138.919 224.45 138.919 224.45H143.507C143.507 224.45 148.649 201.047 148.957 194.765C149.296 188.484 148.588 153.257 148.588 153.257C148.588 153.257 133.315 142.879 121.921 152.302Z" fill="#FEB802"/>
<path d="M137.56 102.356L132.91 116.582L141.317 118.245L143.164 103.495L137.56 102.356Z" fill="#FCD2B1"/>
<path d="M142.334 113.842C142.334 113.842 148.031 115.012 148.616 122.464C149.201 129.916 150.001 161.694 150.001 164.435C149.817 165.697 127.677 169.916 121.087 163.511C119.424 161.879 124.874 134.227 124.105 126.96C123.304 119.723 127.615 110.516 142.334 113.842Z" fill="#3E8AF8"/>
<path d="M148.957 128.746C148.957 128.746 151.235 123.542 158.287 123.018C158.287 123.018 159.98 118.184 158.287 115.166C158.287 115.166 145.508 112.549 140.643 113.534C135.777 114.519 148.957 128.746 148.957 128.746Z" fill="#3E8AF8"/>
<path d="M171.986 98.168C171.986 98.168 172.941 93.0564 171.247 90.1619C170.231 88.4375 169.122 87.6369 168.014 87.9448C167.275 88.1603 166.967 89.4536 167.152 90.1927C167.398 91.1472 168.198 93.7646 168.63 94.5036C168.63 94.5036 167.86 94.5036 167.059 92.7792C166.289 91.0856 165.704 93.5799 166.32 94.75C167.244 96.4436 170.292 101.093 171.986 98.168Z" fill="#FFE3CA"/>
<path d="M123.613 227.744C124.444 228.083 125.83 228.391 127.554 227.991L127.338 226.574C127.338 226.574 128.324 227.159 128.57 228.453C128.817 229.715 128.878 229.376 130.479 230.362C132.111 231.347 131.988 233.564 131.988 233.564L119.917 233.256C119.917 233.256 119.579 230.824 121.765 228.237C122.227 227.683 122.966 227.467 123.613 227.744Z" fill="#0E538C"/>
<path d="M149.48 100.231C149.264 98.4454 153.144 97.2445 145.723 92.0097C141.936 89.3616 135.346 90.5317 133.314 94.5348C131.281 98.5378 132.359 98.9381 130.789 99.2153C129.218 99.5232 130.881 111.902 140.365 111.748C149.88 111.594 149.48 100.231 149.48 100.231Z" fill="#0B4870"/>
<path d="M120.627 150.085H149.511C150.681 150.085 151.636 150.947 151.759 152.086C152.252 156.428 152.775 166.282 147.694 166.99C141.166 167.914 139.072 160.862 139.072 154.303L120.104 154.396C120.104 154.396 119.457 151.255 120.627 150.085Z" fill="#6C63FF"/>
<path d="M112.713 162.618C112.713 162.618 112.159 169.177 114.284 170.963C116.408 172.779 110.527 173.58 109.08 170.254C107.632 166.929 109.603 162.618 109.603 162.618H112.713Z" fill="#FFE3CA"/>
<path d="M112.159 163.48C112.159 163.48 114.129 163.818 114.868 165.943C115.3 167.144 115.546 168.437 115.669 169.33C115.761 169.915 115.084 170.316 114.591 169.946C114.099 169.577 113.637 169.022 113.698 168.068C113.852 166.066 111.451 166.651 111.451 166.651C111.451 166.651 110.65 164.28 112.159 163.48Z" fill="#FFE3CA"/>
<path d="M144.398 154.611H142.889V150.146C142.889 149.9 143.104 149.685 143.351 149.685H143.966C144.213 149.685 144.428 149.9 144.428 150.146V154.611H144.398Z" fill="#F7F7F7"/>
<path d="M146.646 154.611H145.137V151.655C145.137 151.409 145.352 151.193 145.599 151.193H146.214C146.461 151.193 146.676 151.409 146.676 151.655V154.611H146.646Z" fill="#F7F7F7"/>
<path d="M149.51 154.612H147.416V148.176C147.416 147.837 147.693 147.56 148.032 147.56H148.894C149.233 147.56 149.51 147.837 149.51 148.176V154.612Z" fill="#F7F7F7"/>
<path opacity="0.32" d="M151.204 154.611H139.564V155.596H151.204V154.611Z" fill="#161616"/>
<path d="M44.1697 243.849C43.6155 242.432 42.938 241.047 42.0758 239.784C41.5523 239.014 41.5215 237.998 41.9526 237.198L43.8618 233.749L39.366 229.93L36.2868 232.394C35.5477 232.979 34.5624 233.102 33.7002 232.702C32.3145 232.086 30.8364 231.593 29.3584 231.316C28.4346 231.131 27.6956 230.454 27.4492 229.561L26.3715 225.804L20.4901 226.297L20.0282 230.208C19.9358 231.131 19.2891 231.932 18.4269 232.271C17.0105 232.825 15.6248 233.502 14.3623 234.365C13.5925 234.888 12.5763 234.919 11.7757 234.488L8.3269 232.579L4.50859 237.074L6.97201 240.154C7.55708 240.893 7.68025 241.878 7.27994 242.74C6.66409 244.126 6.1714 245.604 5.89427 247.082C5.70951 248.006 5.03206 248.745 4.13907 248.991L0.351562 250.069L0.844249 255.95L4.75493 256.412C5.67871 256.505 6.47933 257.151 6.81805 258.013C7.37232 259.43 8.04976 260.816 8.91196 262.078C9.43543 262.848 9.46623 263.864 9.03513 264.665L7.12598 268.113L11.6217 271.932L14.701 269.468C15.44 268.883 16.4254 268.76 17.2876 269.16C18.6733 269.776 20.1513 270.269 21.6294 270.546C22.5532 270.731 23.2922 271.408 23.5385 272.301L24.6163 276.089L30.4977 275.596L30.9596 271.685C31.052 270.762 31.6986 269.961 32.5608 269.622C33.9773 269.068 35.363 268.391 36.6255 267.528C37.3953 267.005 38.4115 266.974 39.2121 267.405L42.6609 269.314L46.4792 264.819L44.0158 261.739C43.4307 261 43.3075 260.015 43.7078 259.153C44.3237 257.767 44.8164 256.289 45.0935 254.811C45.2783 253.887 45.9557 253.148 46.8487 252.902L50.6362 251.824L50.1435 245.943L46.2328 245.481C45.309 245.358 44.5084 244.711 44.1697 243.849ZM26.741 265.866C18.4885 266.543 11.2522 260.415 10.544 252.163C9.86654 243.91 15.9943 236.674 24.2468 235.966C32.4992 235.288 39.7355 241.416 40.4438 249.669C41.1212 257.921 34.9935 265.157 26.741 265.866Z" fill="#526373"/>
<path d="M15.5277 251.763C15.0658 246.251 19.1613 241.416 24.6424 240.954C30.1543 240.493 34.9888 244.588 35.4507 250.069C35.9125 255.581 31.8171 260.416 26.336 260.877C20.8241 261.339 15.9896 257.275 15.5277 251.763Z" fill="#404257"/>
<path d="M92.1113 203.326C90.6333 202.002 89.0321 200.831 87.2769 199.877C86.1991 199.292 85.5833 198.152 85.6141 196.951L85.768 191.84L78.3162 190.115L76.2223 194.765C75.7296 195.874 74.6518 196.613 73.4201 196.674C71.4494 196.767 69.4787 197.105 67.5695 197.66C66.3994 197.998 65.1369 197.66 64.3055 196.767L60.8259 193.041L54.3286 197.075L56.1146 201.878C56.5457 203.018 56.2993 204.311 55.4679 205.204C54.1438 206.682 52.9737 208.283 52.0191 210.038C51.4341 211.116 50.2947 211.732 49.0938 211.701L43.9822 211.547L42.2578 218.999L46.9075 221.093C48.0161 221.586 48.7551 222.663 48.8167 223.895C48.9091 225.866 49.2478 227.837 49.7712 229.746C50.11 230.916 49.7713 232.178 48.8783 233.01L45.1523 236.489L49.1862 242.987L53.9899 241.17C55.1292 240.739 56.3917 240.985 57.3155 241.817C58.7935 243.141 60.3948 244.311 62.15 245.265C63.2277 245.85 63.8744 246.99 63.8128 248.191L63.6588 253.302L71.1107 255.027L73.2046 250.377C73.6973 249.268 74.775 248.529 76.0067 248.468C77.9775 248.375 79.9482 248.037 81.8573 247.513C83.0275 247.175 84.29 247.513 85.1214 248.406L88.601 252.132L95.0982 248.098L93.3123 243.295C92.8812 242.155 93.1275 240.862 93.9589 239.969C95.283 238.491 96.4531 236.89 97.4077 235.135C97.9928 234.057 99.1321 233.441 100.333 233.472L105.445 233.626L107.169 226.174L102.519 224.08C101.411 223.587 100.672 222.51 100.61 221.278C100.518 219.307 100.179 217.336 99.6556 215.427C99.3169 214.257 99.6556 212.995 100.549 212.163L104.274 208.684L100.241 202.186L95.437 203.972C94.2976 204.373 93.0351 204.126 92.1113 203.326ZM85.029 239.076C75.9143 244.773 63.9051 241.971 58.2085 232.856C52.5118 223.741 55.314 211.732 64.4286 206.035C73.5433 200.339 85.5525 203.141 91.2491 212.256C96.915 221.401 94.1437 233.379 85.029 239.076Z" fill="#CCE9FF"/>
<path d="M63.7232 229.407C59.9357 223.341 61.7833 215.335 67.8803 211.547C73.9772 207.76 81.9526 209.607 85.7401 215.704C89.5276 221.77 87.68 229.777 81.5831 233.564C75.5169 237.352 67.5108 235.504 63.7232 229.407Z" fill="#CCE9FF"/>
<path d="M307.57 59.9852C306.369 61.5248 305.384 63.1876 304.583 64.9736C304.09 66.0513 303.044 66.7904 301.843 66.852L296.823 67.0983L295.715 74.5194L300.426 76.213C301.535 76.6133 302.335 77.6294 302.489 78.7996C302.736 80.7395 303.197 82.6179 303.906 84.4346C304.337 85.5432 304.09 86.8057 303.29 87.6987L299.933 91.3938L304.398 97.4292L308.956 95.3045C310.033 94.8118 311.296 94.935 312.251 95.674C313.79 96.8749 315.453 97.8603 317.239 98.6609C318.317 99.1536 319.056 100.201 319.117 101.401L319.364 106.421L326.785 107.529L328.478 102.818C328.879 101.709 329.895 100.909 331.065 100.755C333.005 100.508 334.883 100.047 336.7 99.3384C337.809 98.9073 339.071 99.1536 339.964 99.9542L343.659 103.341L349.695 98.8765L347.57 94.3191C347.077 93.2414 347.2 91.9789 347.939 91.0243C349.14 89.4847 350.126 87.8219 350.926 86.0359C351.419 84.9581 352.466 84.2191 353.667 84.1575L358.686 83.9112L359.795 76.4901L355.083 74.7965C353.975 74.3962 353.174 73.38 353.02 72.2099C352.774 70.27 352.312 68.3916 351.604 66.5748C351.173 65.4663 351.419 64.2038 352.22 63.3108L355.607 59.6157L351.142 53.5803L346.585 55.705C345.507 56.1977 344.244 56.0745 343.29 55.3355C341.75 54.1345 340.087 53.1492 338.301 52.3486C337.224 51.8559 336.485 50.8089 336.423 49.608L336.177 44.5888L328.756 43.4802L327.062 48.1915C326.662 49.3001 325.645 50.1007 324.475 50.2546C322.535 50.501 320.657 50.9629 318.84 51.6711C317.732 52.1022 316.469 51.8559 315.576 51.0553L311.881 47.668L305.846 52.133L307.97 56.6903C308.432 57.7681 308.309 59.0306 307.57 59.9852ZM343.074 64.1422C349.325 72.6102 347.539 84.5886 339.071 90.8396C330.603 97.0905 318.625 95.3045 312.374 86.8365C306.123 78.3685 307.909 66.3901 316.377 60.1391C324.876 53.8882 336.823 55.6742 343.074 64.1422Z" fill="#526373"/>
<path d="M335.285 85.7279C329.619 89.9157 321.674 88.7148 317.486 83.0489C313.298 77.383 314.499 69.4385 320.165 65.2507C325.831 61.0629 333.776 62.2638 337.964 67.9297C342.151 73.5647 340.95 81.5401 335.285 85.7279Z" fill="#404257"/>
<path d="M231.573 35.1046C231.111 37.5989 230.957 40.1239 231.05 42.6489C231.111 44.1885 230.342 45.6666 228.987 46.4364L223.352 49.6696L226.462 58.9075L232.928 58.0761C234.468 57.8913 235.977 58.5688 236.839 59.8313C238.286 61.9252 239.949 63.8343 241.796 65.5279C242.936 66.5749 243.398 68.1761 242.997 69.6542L241.304 75.9051L250.018 80.2469L254.021 75.1045C254.976 73.8728 256.515 73.2877 258.024 73.5648C260.518 74.0267 263.043 74.2115 265.568 74.0883C267.108 74.0267 268.586 74.7966 269.356 76.1514L272.589 81.7865L281.827 78.6765L280.996 72.21C280.811 70.6703 281.488 69.1615 282.751 68.2993C284.845 66.8828 286.754 65.1892 288.448 63.3416C289.494 62.2023 291.096 61.7404 292.574 62.1407L298.856 63.8343L303.197 55.0892L298.024 51.0861C296.792 50.1315 296.207 48.5919 296.484 47.083C296.946 44.5888 297.131 42.0638 297.008 39.5388C296.946 37.9992 297.747 36.5211 299.071 35.7513L304.706 32.518L301.596 23.2802L295.13 24.1116C293.59 24.2964 292.081 23.6189 291.219 22.3564C289.802 20.2625 288.109 18.3534 286.261 16.6598C285.122 15.6128 284.66 14.0116 285.06 12.5335L286.754 6.25179L278.07 1.91L274.067 7.0524C273.113 8.28411 271.573 8.86917 270.064 8.59204C267.57 8.13015 265.045 7.94539 262.52 8.06856C260.98 8.13015 259.502 7.36033 258.732 6.00544L255.499 0.370361L246.261 3.48044L247.093 9.94692C247.278 11.4866 246.6 12.9954 245.338 13.8576C243.244 15.2741 241.335 16.9677 239.641 18.8152C238.594 19.9546 236.993 20.4165 235.515 20.0162L229.233 18.3226L224.891 27.0677L230.034 31.0708C231.296 32.0254 231.881 33.565 231.573 35.1046ZM275.083 18.8768C287.339 24.9738 292.327 39.8467 286.261 52.1023C280.164 64.3578 265.291 69.3462 253.036 63.2801C240.78 57.1831 235.792 42.3102 241.858 30.0546C247.955 17.7991 262.828 12.8107 275.083 18.8768Z" fill="#CCE9FF"/>
<path d="M278.843 48.4381C274.778 56.5982 264.863 59.9546 256.703 55.89C248.543 51.8253 245.187 41.9101 249.251 33.75C253.316 25.5899 263.231 22.2335 271.391 26.2981C279.582 30.332 282.908 40.2472 278.843 48.4381Z" fill="#CCE9FF"/>
</g>
<defs>
<clipPath id="clip0">
<rect width="360.56" height="312" fill="white"/>
</clipPath>
</defs>
</svg>
